<svg width="13" height="18" viewBox="0 0 13 18" fill="none" xmlns="http://www.w3.org/2000/svg">
<path d="M6.5 0C4.77679 0.00228587 3.12482 0.687839 1.90633 1.90633C0.687839 3.12482 0.00228587 4.77679 0 6.5C0 11.1665 6.05583 17.011 6.31313 17.2575C6.36317 17.3061 6.43021 17.3334 6.5 17.3334C6.56979 17.3334 6.63683 17.3061 6.68687 17.2575C6.94417 17.011 13 11.1665 13 6.5C12.9977 4.77679 12.3122 3.12482 11.0937 1.90633C9.87518 0.687839 8.22321 0.00228587 6.5 0ZM6.5 9.47917C5.91078 9.47917 5.33479 9.30444 4.84486 8.97709C4.35494 8.64973 3.9731 8.18445 3.74761 7.64008C3.52212 7.09571 3.46313 6.49669 3.57808 5.91879C3.69303 5.34089 3.97677 4.81005 4.39341 4.39341C4.81005 3.97677 5.34089 3.69303 5.91879 3.57808C6.4967 3.46313 7.09571 3.52212 7.64008 3.74761C8.18445 3.97309 8.64973 4.35494 8.97709 4.84486C9.30444 5.33478 9.47917 5.91078 9.47917 6.5C9.47869 7.28998 9.16467 8.04747 8.60607 8.60607C8.04747 9.16466 7.28998 9.47869 6.5 9.47917Z" fill="white"/>
</svg>
