<svg width="23" height="29" viewBox="0 0 23 29" fill="none" xmlns="http://www.w3.org/2000/svg">
<path fill-rule="evenodd" clip-rule="evenodd" d="M11.5003 0C6.60725 0 2.62891 4.01383 2.62891 8.96474C2.62891 10.6418 3.36753 12.7223 4.44262 14.7975C6.80965 19.3673 10.7525 23.9699 10.7525 23.9699C10.9391 24.1881 11.2125 24.3143 11.5003 24.3143C11.7882 24.3143 12.0615 24.1881 12.2482 23.9699C12.2482 23.9699 16.191 19.3673 18.5581 14.7975C19.6331 12.7223 20.3718 10.6418 20.3718 8.96474C20.3718 4.01383 16.3934 0 11.5003 0ZM11.5003 1.97143C15.3118 1.97143 18.4003 5.10863 18.4003 8.96474C18.4003 10.8915 17.1781 13.4018 15.7665 15.7425C14.2524 18.2528 12.4808 20.5581 11.5003 21.7777C10.5199 20.5581 8.74822 18.2528 7.23416 15.7425C5.82262 13.4018 4.60033 10.8915 4.60033 8.96474C4.60033 5.10863 7.68891 1.97143 11.5003 1.97143Z" fill="black"/>
<path fill-rule="evenodd" clip-rule="evenodd" d="M11.4991 5.25684C9.50397 5.25684 7.88477 6.87604 7.88477 8.87112C7.88477 10.8662 9.50397 12.4854 11.4991 12.4854C13.4941 12.4854 15.1133 10.8662 15.1133 8.87112C15.1133 6.87604 13.4941 5.25684 11.4991 5.25684ZM11.4991 7.22826C12.4059 7.22826 13.1419 7.96426 13.1419 8.87112C13.1419 9.77798 12.4059 10.514 11.4991 10.514C10.5922 10.514 9.85619 9.77798 9.85619 8.87112C9.85619 7.96426 10.5922 7.22826 11.4991 7.22826Z" fill="black"/>
<path fill-rule="evenodd" clip-rule="evenodd" d="M17.7875 21.1951C18.8561 21.5158 19.7366 21.9127 20.3451 22.378C20.7394 22.6776 21.0286 22.9707 21.0286 23.3282C21.0286 23.5385 20.909 23.7291 20.7407 23.9196C20.4621 24.2337 20.0481 24.5163 19.5355 24.7792C17.7245 25.7057 14.7962 26.2853 11.5 26.2853C8.20377 26.2853 5.27554 25.7057 3.46446 24.7792C2.95189 24.5163 2.53789 24.2337 2.25926 23.9196C2.09103 23.7291 1.97143 23.5385 1.97143 23.3282C1.97143 22.9707 2.26057 22.6776 2.65486 22.378C3.26337 21.9127 4.14394 21.5158 5.21246 21.1951C5.73291 21.0387 6.02863 20.488 5.87223 19.9676C5.71583 19.4458 5.16514 19.1501 4.64469 19.3065C3.0176 19.7967 1.75326 20.4683 0.9936 21.2109C0.325943 21.8615 0 22.5896 0 23.3282C0 24.2508 0.521771 25.1708 1.5824 25.9384C3.44343 27.2842 7.18126 28.2568 11.5 28.2568C15.8187 28.2568 19.5566 27.2842 21.4176 25.9384C22.4782 25.1708 23 24.2508 23 23.3282C23 22.5896 22.6741 21.8615 22.0064 21.2109C21.2467 20.4683 19.9824 19.7967 18.3553 19.3065C17.8349 19.1501 17.2842 19.4458 17.1278 19.9676C16.9714 20.488 17.2671 21.0387 17.7875 21.1951Z" fill="black"/>
</svg>
