<svg width="19" height="24" viewBox="0 0 19 24" fill="none" xmlns="http://www.w3.org/2000/svg">
<path d="M9.50201 0.0857239C7.18799 0.0887935 4.96963 1.00939 3.33337 2.64565C1.69711 4.28191 0.776507 6.50028 0.773438 8.81429C0.773438 15.0807 8.90556 22.9291 9.25106 23.2601C9.31827 23.3254 9.40829 23.3619 9.50201 23.3619C9.59573 23.3619 9.68575 23.3254 9.75296 23.2601C10.0985 22.9291 18.2306 15.0807 18.2306 8.81429C18.2275 6.50028 17.3069 4.28191 15.6707 2.64565C14.0344 1.00939 11.816 0.0887935 9.50201 0.0857239ZM9.50201 12.8149C8.71077 12.8149 7.93729 12.5803 7.2794 12.1407C6.6215 11.7011 6.10874 11.0763 5.80594 10.3453C5.50315 9.61424 5.42392 8.80986 5.57828 8.03382C5.73265 7.25778 6.11367 6.54494 6.67316 5.98545C7.23265 5.42595 7.94549 5.04493 8.72153 4.89057C9.49757 4.73621 10.302 4.81543 11.033 5.11823C11.764 5.42102 12.3888 5.93379 12.8284 6.59168C13.268 7.24958 13.5026 8.02305 13.5026 8.81429C13.502 9.87512 13.0803 10.8923 12.3302 11.6424C11.58 12.3926 10.5628 12.8143 9.50201 12.8149Z" fill="white"/>
</svg>
