<svg width="23" height="24" viewBox="0 0 23 24" fill="none" xmlns="http://www.w3.org/2000/svg">
<path fill-rule="evenodd" clip-rule="evenodd" d="M2.54687 23.625C1.11053 23.625 0 22.4193 0 21V4.5C0 2.04511 1.91499 0 4.34375 0H14.7657C16.2021 0 17.3125 1.20569 17.3125 2.625V4.5V5.25H15.8125V4.5V2.625C15.8125 1.97328 15.3141 1.5 14.7657 1.5H5.27875V0.75H3.40875V1.66705C2.58124 1.97185 1.91718 2.6701 1.64 3.565H0.75V5.435H1.5V21C1.5 21.6517 1.99848 22.125 2.54687 22.125H7.9375H8.6875V23.625H7.9375H2.54687ZM1.5 5.435H4.34375H5.27875V4.5V1.5H4.34375C4.0181 1.5 3.70309 1.55864 3.40875 1.66705V3.565H1.64C1.54928 3.8579 1.5 4.17187 1.5 4.5V5.435ZM3.44531 9.0025H8.83594V10.8725H3.44531V9.0025ZM8.83594 12.7525H3.44531V14.6225H8.83594V12.7525ZM3.44531 16.5025H8.83594V18.3725H3.44531V16.5025ZM12.9688 23.625C11.5324 23.625 10.4219 22.4193 10.4219 21V9.75C10.4219 8.33067 11.5324 7.125 12.9688 7.125H20.1563C21.5927 7.125 22.7032 8.33069 22.7032 9.75V21C22.7032 22.4193 21.5927 23.625 20.1563 23.625H12.9688ZM11.9219 21C11.9219 21.6517 12.4204 22.125 12.9688 22.125H20.1563C20.7047 22.125 21.2032 21.6517 21.2032 21V9.75C21.2032 9.09828 20.7047 8.625 20.1563 8.625H12.9688C12.4204 8.625 11.9219 9.0983 11.9219 9.75V21ZM19.2578 10.875H13.8672V12.375H19.2578V10.875ZM14.7657 16.3125C15.2619 16.3125 15.6641 15.8928 15.6641 15.375C15.6641 14.8572 15.2619 14.4375 14.7657 14.4375C14.2695 14.4375 13.8672 14.8572 13.8672 15.375C13.8672 15.8928 14.2695 16.3125 14.7657 16.3125ZM19.2578 15.375C19.2578 15.8928 18.8556 16.3125 18.3594 16.3125C17.8633 16.3125 17.461 15.8928 17.461 15.375C17.461 14.8572 17.8633 14.4375 18.3594 14.4375C18.8556 14.4375 19.2578 14.8572 19.2578 15.375ZM18.3594 20.0625C18.8556 20.0625 19.2578 19.6428 19.2578 19.125C19.2578 18.6072 18.8556 18.1875 18.3594 18.1875C17.8633 18.1875 17.461 18.6072 17.461 19.125C17.461 19.6428 17.8633 20.0625 18.3594 20.0625ZM15.6641 19.125C15.6641 19.6428 15.2619 20.0625 14.7657 20.0625C14.2695 20.0625 13.8672 19.6428 13.8672 19.125C13.8672 18.6072 14.2695 18.1875 14.7657 18.1875C15.2619 18.1875 15.6641 18.6072 15.6641 19.125Z" fill="#E0B562"/>
</svg>
