<svg width="20" height="20" viewBox="0 0 20 20" fill="none" xmlns="http://www.w3.org/2000/svg">
<g clip-path="url(#clip0_522_7594)">
<path fill-rule="evenodd" clip-rule="evenodd" d="M8.90625 10.0828V10.5892C8.26466 11.5503 7.89062 12.7053 7.89062 13.9476C7.89062 14.0682 7.89415 14.1879 7.90109 14.3067C7.9788 15.6359 8.48507 16.8499 9.28374 17.8126H1.76011C1.4378 17.8126 1.17647 17.5512 1.17647 17.2289V10.0828H8.90625ZM9.96732 11.1227C9.97146 11.1171 9.97549 11.1114 9.97944 11.1057C10.8651 9.87131 12.3125 9.06715 13.9476 9.06715C14.0721 9.06715 14.1955 9.07181 14.3178 9.08097C15.2696 9.15232 16.1454 9.49659 16.8672 10.0364C17.2718 10.3389 17.628 10.7029 17.9221 11.1146L17.9276 11.1224C18.4947 11.9196 18.8281 12.8947 18.8281 13.9476C18.8281 16.6431 16.6431 18.8282 13.9476 18.8282C12.8948 18.8282 11.9199 18.4948 11.1226 17.9279L11.1146 17.9221C10.6966 17.6235 10.3278 17.2611 10.0226 16.8488C9.47848 16.1141 9.13617 15.2215 9.07646 14.2526C9.07025 14.1518 9.06709 14.0501 9.06709 13.9476C9.06709 12.8949 9.40044 11.92 9.96732 11.1227ZM10.0827 9.2838V1.17652H17.2288C17.5512 1.17652 17.8125 1.43782 17.8125 1.76016V9.2838C16.8714 8.50308 15.6902 8.00177 14.3961 7.90705C14.248 7.8962 14.0985 7.89068 13.9476 7.89068C12.4785 7.89068 11.1315 8.41374 10.0827 9.2838ZM8.90625 8.90631V1.17652H1.76011C1.43779 1.17652 1.17647 1.43782 1.17647 1.76016V8.90631H8.90625ZM9.48653 5.27326e-05H1.76011C0.788062 5.27326e-05 0 0.788051 0 1.76016V9.49454V17.2289C0 18.2009 0.78805 18.9891 1.76011 18.9891H10.5891C11.5503 19.6306 12.7053 20.0047 13.9476 20.0047C17.2928 20.0047 20.0046 17.2928 20.0046 13.9476C20.0046 12.7053 19.6306 11.5503 18.9889 10.5892V1.76016C18.9889 0.788051 18.2009 5.27326e-05 17.2288 5.27326e-05H9.50245C9.4998 1.76144e-05 9.49714 0 9.49448 0C9.49182 0 9.48918 1.76144e-05 9.48653 5.27326e-05ZM3.67418 5.62965C3.34929 5.62965 3.08594 5.36629 3.08594 5.04141C3.08594 4.71654 3.34929 4.45318 3.67418 4.45318H4.45313V3.67422C4.45313 3.34935 4.71648 3.08599 5.04137 3.08599C5.36624 3.08599 5.6296 3.34935 5.6296 3.67422V4.45318H6.40855C6.73342 4.45318 6.99679 4.71654 6.99679 5.04141C6.99679 5.36629 6.73342 5.62965 6.40855 5.62965H5.6296V6.4086C5.6296 6.73347 5.36624 6.99684 5.04137 6.99684C4.71648 6.99684 4.45313 6.73347 4.45313 6.4086V5.62965H3.67418ZM12.7758 5.62965C12.4508 5.62965 12.1875 5.36629 12.1875 5.04141C12.1875 4.71654 12.4508 4.45318 12.7758 4.45318H15.1195C15.4444 4.45318 15.7078 4.71654 15.7078 5.04141C15.7078 5.36629 15.4444 5.62965 15.1195 5.62965H12.7758ZM11.9922 14.9242C11.9922 15.2491 12.2555 15.5125 12.5805 15.5125H15.3148C15.6396 15.5125 15.9031 15.2491 15.9031 14.9242C15.9031 14.5994 15.6396 14.336 15.3148 14.336H12.5805C12.2555 14.336 11.9922 14.5994 11.9922 14.9242ZM12.5805 13.5593C12.2555 13.5593 11.9922 13.296 11.9922 12.9711C11.9922 12.6462 12.2555 12.3828 12.5805 12.3828H15.3148C15.6396 12.3828 15.9031 12.6462 15.9031 12.9711C15.9031 13.296 15.6396 13.5593 15.3148 13.5593H12.5805ZM6.43387 15.3401C6.66359 15.1105 6.66359 14.738 6.43387 14.5082L5.87325 13.9476L6.43387 13.3871C6.66359 13.1573 6.66359 12.7848 6.43387 12.5552C6.20415 12.3254 5.83169 12.3254 5.60198 12.5552L5.04137 13.1158L4.48074 12.5552C4.25102 12.3254 3.87858 12.3254 3.64885 12.5552C3.41913 12.7848 3.41913 13.1573 3.64885 13.3871L4.20947 13.9476L3.64885 14.5082C3.41913 14.738 3.41913 15.1105 3.64885 15.3401C3.87858 15.5699 4.25102 15.5699 4.48074 15.3401L5.04137 14.7795L5.60198 15.3401C5.83169 15.5699 6.20415 15.5699 6.43387 15.3401Z" fill="#AAB0BE"/>
</g>
<defs>
<clipPath id="clip0_522_7594">
<rect width="20" height="20" fill="white"/>
</clipPath>
</defs>
</svg>
