<svg width="20" height="20" viewBox="0 0 20 20" fill="none" xmlns="http://www.w3.org/2000/svg">
<path fill-rule="evenodd" clip-rule="evenodd" d="M0.833344 10C0.833344 4.93743 4.9374 0.833374 10 0.833374C11.4618 0.833374 12.8462 1.17622 14.0746 1.78672C14.528 2.01201 14.7129 2.56218 14.4876 3.01554C14.2622 3.46891 13.7121 3.65379 13.2588 3.42848C12.2781 2.94116 11.1724 2.66671 10 2.66671C5.94992 2.66671 2.66668 5.94995 2.66668 10C2.66668 14.0501 5.94992 17.3334 10 17.3334C14.0501 17.3334 17.3333 14.0501 17.3333 10C17.3333 9.72394 17.3181 9.45169 17.2885 9.18412C17.2329 8.68087 17.5958 8.22785 18.0989 8.1723C18.6021 8.11663 19.0551 8.47947 19.1108 8.98263C19.1477 9.31703 19.1667 9.65647 19.1667 10C19.1667 15.0626 15.0626 19.1667 10 19.1667C4.9374 19.1667 0.833344 15.0626 0.833344 10ZM18.8982 2.93519C19.2561 3.29318 19.2561 3.87357 18.8982 4.23156L10.6482 12.4815C10.2902 12.8395 9.70979 12.8395 9.35184 12.4815L6.60183 9.73155C6.24385 9.37359 6.24385 8.79316 6.60183 8.4352C6.95981 8.07721 7.54021 8.07721 7.89819 8.4352L10 10.537L17.6018 2.93519C17.9598 2.57721 18.5402 2.57721 18.8982 2.93519Z" fill="#CA9F3C"/>
</svg>
