<svg width="19" height="19" viewBox="0 0 19 19" fill="none" xmlns="http://www.w3.org/2000/svg">
<path d="M1.80111 18.7717C1.33528 18.7988 0.877161 18.6439 0.523345 18.3398C-0.174448 17.6378 -0.174448 16.5041 0.523345 15.8022L15.8027 0.522742C16.5285 -0.156383 17.6674 -0.118631 18.3465 0.607136C18.9606 1.26344 18.9964 2.2722 18.4303 2.97035L3.06086 18.3398C2.71161 18.6395 2.26084 18.7941 1.80111 18.7717Z" fill="black"/>
<path d="M17.0619 18.7717C16.5897 18.7697 16.1373 18.5823 15.802 18.2498L0.52259 2.97034C-0.12388 2.21541 -0.0359892 1.07929 0.718937 0.432758C1.39273 -0.144253 2.38643 -0.144253 3.06017 0.432758L18.4296 15.7122C19.1552 16.3915 19.1927 17.5304 18.5134 18.256C18.4864 18.2849 18.4584 18.3128 18.4296 18.3398C18.0532 18.6671 17.558 18.8235 17.0619 18.7717Z" fill="black"/>
</svg>
