<svg width="24" height="21" viewBox="0 0 24 21" fill="none" xmlns="http://www.w3.org/2000/svg">
<path fill-rule="evenodd" clip-rule="evenodd" d="M5.98916 3.48555C5.98916 2.93128 6.43851 2.48193 6.99277 2.48193H20.6709C21.2252 2.48193 21.6745 2.93128 21.6745 3.48555V12.2536C21.6745 12.8079 21.2252 13.2572 20.6709 13.2572H19.6673V10.5V8.74638C19.6673 7.36369 18.5464 6.24277 17.1637 6.24277H5.98916V3.48555ZM4.48916 6.24277V3.48555C4.48916 2.10286 5.61008 0.981934 6.99277 0.981934H20.6709C22.0536 0.981934 23.1745 2.10286 23.1745 3.48555V12.2536C23.1745 13.6363 22.0536 14.7572 20.6709 14.7572H19.6673V17.5144C19.6673 18.8971 18.5464 20.0181 17.1637 20.0181H3.48555C2.10286 20.0181 0.981934 18.8971 0.981934 17.5144V10.5V8.74638C0.981934 7.36369 2.10286 6.24277 3.48555 6.24277H4.48916ZM18.1673 14.0072V11.25H2.48193V17.5144C2.48193 18.0687 2.93128 18.5181 3.48555 18.5181H17.1637C17.718 18.5181 18.1673 18.0687 18.1673 17.5144V14.0072ZM2.48193 8.74638C2.48193 8.19212 2.93128 7.74277 3.48555 7.74277H5.23916H17.1637C17.718 7.74277 18.1673 8.19212 18.1673 8.74638V9.74999H2.48193V8.74638ZM11.1529 15.7608C11.1529 15.3466 11.4887 15.0108 11.9029 15.0108H15.4101C15.8243 15.0108 16.1601 15.3466 16.1601 15.7608C16.1601 16.175 15.8243 16.5108 15.4101 16.5108H11.9029C11.4887 16.5108 11.1529 16.175 11.1529 15.7608Z" fill="#AAB0BE"/>
</svg>
