<svg width="12" height="8" viewBox="0 0 12 8" fill="none" xmlns="http://www.w3.org/2000/svg">
<path d="M6.46822 6.8585L11.8083 1.51833C11.9319 1.39482 12 1.22994 12 1.05414C12 0.878337 11.9319 0.71346 11.8083 0.589948L11.4151 0.196682C11.1589 -0.0592192 10.7425 -0.0592192 10.4867 0.196682L6.00247 4.68095L1.51323 0.191706C1.38962 0.0681943 1.22484 -4.70997e-07 1.04913 -4.78678e-07C0.873229 -4.86367e-07 0.708449 0.0681943 0.584743 0.191706L0.191671 0.584972C0.0680618 0.708581 -3.43705e-05 0.873361 -3.43781e-05 1.04916C-3.43858e-05 1.22497 0.0680618 1.38985 0.191671 1.51336L5.53662 6.8585C5.66062 6.98231 5.82618 7.05031 6.00218 7.04991C6.17886 7.05031 6.34432 6.98231 6.46822 6.8585Z" fill="black"/>
</svg>
