<svg width="14" height="10" viewBox="0 0 14 10" fill="none" xmlns="http://www.w3.org/2000/svg">
<path d="M7.54628 8.88913L13.7763 2.65896C13.9206 2.51486 14 2.3225 14 2.1174C14 1.9123 13.9206 1.71994 13.7763 1.57584L13.3176 1.11703C13.0188 0.818484 12.533 0.818484 12.2345 1.11703L7.0029 6.34867L1.76547 1.11123C1.62126 0.967133 1.42901 0.887573 1.22402 0.887573C1.01881 0.887573 0.826563 0.967133 0.68224 1.11123L0.223658 1.57004C0.0794477 1.71425 9.09136e-07 1.90649 9.00171e-07 2.1116C8.91205e-07 2.3167 0.0794477 2.50906 0.223658 2.65315L6.45941 8.88913C6.60408 9.03357 6.79723 9.11291 7.00256 9.11245C7.20869 9.11291 7.40173 9.03357 7.54628 8.88913Z" fill="#162136"/>
</svg>
