<svg width="35" height="35" viewBox="0 0 35 35" fill="none" xmlns="http://www.w3.org/2000/svg">
<path d="M17.4316 0C7.81963 0 0 7.81963 0 17.4316C0 27.0437 7.81963 35 17.4316 35C27.0437 35 35 27.0437 35 17.4316C35 7.81963 27.0437 0 17.4316 0ZM24.7461 22.5586C23.3602 22.5586 22.138 21.864 21.3953 20.8089C20.4552 21.873 19.0965 22.5586 17.5684 22.5586C14.7415 22.5586 12.4414 20.2585 12.4414 17.4316C12.4414 14.6048 14.7415 12.3047 17.5684 12.3047C18.7269 12.3047 19.785 12.7056 20.6445 13.3563V13.3301C20.6445 12.7633 21.1032 12.3047 21.6699 12.3047C22.2367 12.3047 22.6953 12.7633 22.6953 13.3301C22.6953 15.6105 22.6953 16.1755 22.6953 18.457C22.6953 19.5876 23.6156 20.5078 24.7461 20.5078C25.8766 20.5078 26.7969 19.5876 26.7969 18.457C26.7969 11.5944 22.2556 8.20312 17.5684 8.20312C12.4795 8.20312 8.33984 12.3428 8.33984 17.4316C8.33984 22.5205 12.4795 26.6602 17.5684 26.6602C19.6191 26.6602 21.5588 26.0033 23.178 24.7596C24.2596 23.9339 25.4981 25.5638 24.4277 26.3858C22.446 27.9068 20.0748 28.7109 17.5684 28.7109C11.349 28.7109 6.28906 23.651 6.28906 17.4316C6.28906 11.2122 11.349 6.15234 17.5684 6.15234C23.2351 6.15234 28.8477 10.3315 28.8477 18.457C28.8477 20.7191 27.0082 22.5586 24.7461 22.5586Z" fill="#CA9F3C"/>
</svg>
