<svg width="16" height="19" viewBox="0 0 16 19" fill="none" xmlns="http://www.w3.org/2000/svg">
<path d="M9.85133 3.03125H2.27339C1.01976 3.03125 0 4.05101 0 5.30464V16.9065C0 17.4294 0.312294 17.8963 0.794796 18.0969C1.27803 18.2967 1.82937 18.1871 2.19938 17.8175L6.06236 13.9542L9.92534 17.8175C10.1725 18.0647 10.5007 18.1953 10.8352 18.1953C11.0013 18.1953 11.1693 18.1631 11.3299 18.0969C11.8124 17.8963 12.1247 17.4294 12.1247 16.9065V5.30464C12.1247 4.05101 11.105 3.03125 9.85133 3.03125ZM10.6091 16.3578L6.59814 12.3468C6.31397 12.0626 5.81074 12.0626 5.52657 12.3468L1.51559 16.3578V5.30464C1.51559 4.88688 1.85527 4.54684 2.27339 4.54684H9.85133C10.2695 4.54684 10.6091 4.88688 10.6091 5.30464V16.3578Z" fill="black"/>
<path d="M12.8825 0H5.30455C4.88606 0 4.54675 0.339306 4.54675 0.757795C4.54675 1.17628 4.88606 1.51559 5.30455 1.51559H12.8825C13.3006 1.51559 13.6403 1.85563 13.6403 2.27338V9.85133C13.6403 10.2698 13.9796 10.6091 14.3981 10.6091C14.8166 10.6091 15.1559 10.2698 15.1559 9.85133V2.27338C15.1559 1.01976 14.1361 0 12.8825 0Z" fill="black"/>
</svg>
