<svg width="18" height="22" viewBox="0 0 18 22" fill="none" xmlns="http://www.w3.org/2000/svg">
<path d="M17.9916 8.25C17.9914 8.01178 17.9084 7.77711 17.7364 7.60186L10.5364 0.268526C10.3643 0.0926977 10.1339 0.0073905 9.9 0.0073905V0H4.5C2.01887 0 0 2.05626 0 4.58333V17.4167C0 19.9437 2.01887 22 4.5 22H13.5C15.9811 22 18 19.9437 18 17.4167V8.25H17.9916ZM10.8 3.12956L14.9273 7.33333H13.5C12.0111 7.33333 10.8 6.09979 10.8 4.58333V3.12956ZM13.5 20.1667H4.5C3.01112 20.1667 1.8 18.9331 1.8 17.4167V4.58333C1.8 3.06688 3.01112 1.83333 4.5 1.83333H9V4.58333C9 7.11041 11.0189 9.16667 13.5 9.16667H16.2V17.4167C16.2 18.9331 14.9889 20.1667 13.5 20.1667ZM13.5 16.5C13.5 17.0067 13.097 17.4167 12.6 17.4167H5.4C4.90298 17.4167 4.5 17.0067 4.5 16.5C4.5 15.9933 4.90298 15.5833 5.4 15.5833H12.6C13.097 15.5833 13.5 15.9933 13.5 16.5ZM13.5 12.8333C13.5 13.34 13.097 13.75 12.6 13.75H5.4C4.90298 13.75 4.5 13.34 4.5 12.8333C4.5 12.3266 4.90298 11.9167 5.4 11.9167H12.6C13.097 11.9167 13.5 12.3266 13.5 12.8333ZM4.5 9.16667C4.5 8.65998 4.90298 8.25 5.4 8.25H7.2C7.69702 8.25 8.1 8.65998 8.1 9.16667C8.1 9.67335 7.69702 10.0833 7.2 10.0833H5.4C4.90298 10.0833 4.5 9.67335 4.5 9.16667Z" fill="#AAB0BE"/>
</svg>
