<svg width="17" height="17" viewBox="0 0 17 17" fill="none" xmlns="http://www.w3.org/2000/svg">
<g clip-path="url(#clip0_1658_15)">
<path d="M6.77661 9.44936L4.23831 11.9877L4.25 10.625C4.25 10.3317 4.012 10.0938 3.71875 10.0938C3.4255 10.0938 3.1875 10.3317 3.1875 10.625V13.2812C3.1875 13.4385 3.25231 13.5654 3.35536 13.6531C3.4515 13.7514 3.58539 13.8125 3.73361 13.8125H6.375C6.66825 13.8125 6.90625 13.5745 6.90625 13.2812C6.90625 12.988 6.66825 12.75 6.375 12.75H4.97833L7.52781 10.2005L6.77661 9.44936ZM6.375 4.25C6.66825 4.25 6.90625 4.012 6.90625 3.71875C6.90625 3.4255 6.66825 3.1875 6.375 3.1875H3.73364C3.58542 3.1875 3.45153 3.24914 3.35539 3.34686C3.25233 3.43453 3.18753 3.5615 3.18753 3.71875V6.375C3.18753 6.66825 3.42553 6.90625 3.71878 6.90625C4.01203 6.90625 4.25 6.66825 4.25 6.375L4.23831 5.01181L6.77661 7.55011L7.52781 6.79892L4.97886 4.25H6.375ZM13.2812 10.0938C12.988 10.0938 12.75 10.3317 12.75 10.625L12.7617 11.9882L10.2234 9.44986L9.47219 10.2011L12.0216 12.75H10.625C10.3317 12.75 10.0938 12.988 10.0938 13.2812C10.0938 13.5745 10.3317 13.8125 10.625 13.8125H13.2664C13.4151 13.8125 13.5485 13.7509 13.6446 13.6526C13.7477 13.5654 13.8125 13.4385 13.8125 13.2812V10.625C13.8125 10.3317 13.5745 10.0938 13.2812 10.0938ZM13.2664 3.1875H10.625C10.3317 3.1875 10.0938 3.4255 10.0938 3.71875C10.0938 4.012 10.3317 4.25 10.625 4.25H12.0211L9.47167 6.79947L10.2229 7.55067L12.7612 5.01236L12.75 6.375C12.75 6.66825 12.988 6.90625 13.2812 6.90625C13.5745 6.90625 13.8125 6.66825 13.8125 6.375V3.71875C13.8125 3.5615 13.7471 3.43453 13.6446 3.34686C13.5485 3.24914 13.4146 3.1875 13.2664 3.1875ZM14.875 0H2.125C0.951472 0 0 0.951472 0 2.125V14.875C0 16.0485 0.951472 17 2.125 17H14.875C16.0485 17 17 16.0485 17 14.875V2.125C17 0.951472 16.0485 0 14.875 0ZM15.9375 14.875C15.9375 15.462 15.462 15.9375 14.875 15.9375H2.125C1.53797 15.9375 1.0625 15.462 1.0625 14.875V2.125C1.0625 1.5385 1.53797 1.0625 2.125 1.0625H14.875C15.462 1.0625 15.9375 1.5385 15.9375 2.125V14.875Z" fill="#B00000"/>
</g>
<defs>
<clipPath id="clip0_1658_15">
<rect width="17" height="17" fill="white"/>
</clipPath>
</defs>
</svg>
