<svg width="23" height="23" viewBox="0 0 23 23" fill="none" xmlns="http://www.w3.org/2000/svg">
<g clip-path="url(#clip0_1981_4287)">
<path d="M9.16836 12.7844L5.73418 16.2186L5.75 14.375C5.75 13.9783 5.428 13.6563 5.03125 13.6563C4.6345 13.6563 4.3125 13.9783 4.3125 14.375V17.9688C4.3125 18.1815 4.40018 18.3532 4.53961 18.4719C4.66968 18.6049 4.85082 18.6875 5.05136 18.6875H8.625C9.02175 18.6875 9.34375 18.3655 9.34375 17.9688C9.34375 17.572 9.02175 17.25 8.625 17.25H6.73539L10.1847 13.8007L9.16836 12.7844ZM8.625 5.75C9.02175 5.75 9.34375 5.428 9.34375 5.03125C9.34375 4.6345 9.02175 4.3125 8.625 4.3125H5.05139C4.85086 4.3125 4.66971 4.39589 4.53964 4.52811C4.40022 4.64671 4.31254 4.8185 4.31254 5.03125V8.625C4.31254 9.02175 4.63454 9.34375 5.03129 9.34375C5.42804 9.34375 5.75 9.02175 5.75 8.625L5.73418 6.78068L9.16836 10.2149L10.1847 9.19853L6.73611 5.75H8.625ZM17.9688 13.6563C17.572 13.6563 17.25 13.9783 17.25 14.375L17.2658 16.2193L13.8316 12.7851L12.8153 13.8014L16.2646 17.25H14.375C13.9783 17.25 13.6563 17.572 13.6563 17.9688C13.6563 18.3655 13.9783 18.6875 14.375 18.6875H17.9486C18.1499 18.6875 18.3303 18.6041 18.4604 18.4711C18.5998 18.3532 18.6875 18.1815 18.6875 17.9688V14.375C18.6875 13.9783 18.3655 13.6563 17.9688 13.6563ZM17.9486 4.3125H14.375C13.9783 4.3125 13.6563 4.6345 13.6563 5.03125C13.6563 5.428 13.9783 5.75 14.375 5.75H16.2639L12.8146 9.19929L13.8309 10.2156L17.2651 6.78143L17.25 8.625C17.25 9.02175 17.572 9.34375 17.9688 9.34375C18.3655 9.34375 18.6875 9.02175 18.6875 8.625V5.03125C18.6875 4.8185 18.5991 4.64671 18.4604 4.52811C18.3303 4.39589 18.1492 4.3125 17.9486 4.3125ZM20.125 0H2.875C1.28729 0 0 1.28729 0 2.875V20.125C0 21.7127 1.28729 23 2.875 23H20.125C21.7127 23 23 21.7127 23 20.125V2.875C23 1.28729 21.7127 0 20.125 0ZM21.5625 20.125C21.5625 20.9192 20.9192 21.5625 20.125 21.5625H2.875C2.08079 21.5625 1.4375 20.9192 1.4375 20.125V2.875C1.4375 2.0815 2.08079 1.4375 2.875 1.4375H20.125C20.9192 1.4375 21.5625 2.0815 21.5625 2.875V20.125Z" fill="#B00000"/>
<rect y="9" width="40" height="14" fill="#D9D9D9"/>
</g>
<defs>
<clipPath id="clip0_1981_4287">
<rect width="23" height="23" fill="white"/>
</clipPath>
</defs>
</svg>
