<svg width="22" height="16" viewBox="0 0 22 16" fill="none" xmlns="http://www.w3.org/2000/svg">
<path fill-rule="evenodd" clip-rule="evenodd" d="M0 14.6667C0 13.9303 0.703544 13.3333 1.57143 13.3333H20.4286C21.2965 13.3333 22 13.9303 22 14.6667C22 15.4031 21.2965 16 20.4286 16H1.57143C0.703544 16 0 15.4031 0 14.6667ZM0 1.33333C0 0.596947 0.703544 0 1.57143 0H20.4286C21.2965 0 22 0.596947 22 1.33333C22 2.06971 21.2965 2.66667 20.4286 2.66667H1.57143C0.703544 2.66667 0 2.06971 0 1.33333ZM0 8C0 7.26363 0.703544 6.66667 1.57143 6.66667H11C11.8679 6.66667 12.5714 7.26363 12.5714 8C12.5714 8.7364 11.8679 9.33333 11 9.33333H1.57143C0.703544 9.33333 0 8.7364 0 8Z" fill="black"/>
</svg>
