<svg width="6" height="9" viewBox="0 0 6 9" fill="none" xmlns="http://www.w3.org/2000/svg">
<path d="M5.5557 0.143855L5.85256 0.438663C5.94527 0.531444 5.99634 0.654883 5.99634 0.786811C5.99634 0.918666 5.94527 1.04225 5.85256 1.13503L2.48946 4.49799L5.85629 7.86482C5.949 7.95745 6 8.08104 6 8.2129C6 8.34475 5.949 8.46841 5.85629 8.56112L5.56126 8.856C5.36941 9.048 5.05689 9.048 4.86504 8.856L0.842008 4.84738C0.749373 4.75475 0.684104 4.63131 0.684104 4.49828L0.684104 4.49674C0.684104 4.36482 0.749446 4.24138 0.842008 4.14874L4.85414 0.143855C4.94677 0.051074 5.07394 0.000146842 5.2058 -2.08726e-08C5.33773 -1.74053e-08 5.46314 0.051074 5.5557 0.143855Z" fill="white"/>
</svg>
