<svg width="25" height="25" viewBox="0 0 25 25" fill="none" xmlns="http://www.w3.org/2000/svg">
<g clip-path="url(#clip0_2162_3985)">
<path d="M23.4279 17.8139C23.3659 17.7648 18.8693 14.5236 17.6351 14.7562C17.0459 14.8605 16.709 15.2623 16.0329 16.0668C15.9242 16.1967 15.6628 16.5079 15.4596 16.7292C15.0324 16.5899 14.6156 16.4203 14.2125 16.2216C12.1319 15.2087 10.4508 13.5276 9.43792 11.447C9.23916 11.044 9.06952 10.6272 8.93032 10.1999C9.15239 9.99598 9.4636 9.73463 9.59654 9.62284C10.3972 8.95057 10.7998 8.61368 10.9041 8.02299C11.1178 6.79931 7.87886 2.2717 7.84487 2.23091C7.69791 2.02098 7.50613 1.84633 7.28339 1.71961C7.06066 1.59289 6.81254 1.51727 6.55699 1.49821C5.24418 1.49821 1.49609 6.36045 1.49609 7.17926C1.49609 7.22684 1.56483 12.0642 7.52989 18.1319C13.5916 24.0902 18.4282 24.1589 18.4758 24.1589C19.2953 24.1589 24.1568 20.4108 24.1568 19.098C24.138 18.8434 24.0628 18.5961 23.9367 18.374C23.8107 18.152 23.6369 17.9606 23.4279 17.8139Z" fill="white"/>
</g>
<defs>
<clipPath id="clip0_2162_3985">
<rect width="24.1714" height="24.1714" fill="white" transform="translate(0.742188 0.742859)"/>
</clipPath>
</defs>
</svg>
