<svg width="40" height="39" viewBox="0 0 40 39" fill="none" xmlns="http://www.w3.org/2000/svg">
<g clip-path="url(#clip0_1023_11424)">
<ellipse cx="20.0001" cy="19.4999" rx="11.8987" ry="11.6013" fill="white"/>
<path d="M20 0C8.95445 0 0 8.73044 0 19.5C0 30.2696 8.95445 39 20 39C31.0455 39 40 30.2696 40 19.5C40 8.73044 31.0455 0 20 0ZM26.9125 20.5337L16.9125 26.6274C16.7102 26.7506 16.4801 26.8125 16.25 26.8125C16.0416 26.8125 15.8328 26.7619 15.6439 26.6595C15.2466 26.4447 15 26.0371 15 25.5938V13.4062C15 12.9629 15.2466 12.5553 15.6439 12.3405C16.0413 12.1244 16.5271 12.1375 16.9125 12.3726L26.9125 18.4663C27.2778 18.6895 27.5 19.0799 27.5 19.5C27.5 19.9201 27.2778 20.3105 26.9125 20.5337Z" fill="#B00000"/>
</g>
<defs>
<clipPath id="clip0_1023_11424">
<rect width="40" height="39" fill="white"/>
</clipPath>
</defs>
</svg>
