<svg width="18" height="18" viewBox="0 0 18 18" fill="none" xmlns="http://www.w3.org/2000/svg">
<path d="M16.7893 16.0478L13.5049 12.6165C14.5003 11.2551 15.0462 9.60385 15.0464 7.86142C15.0464 5.76161 14.2636 3.78735 12.8422 2.30258C11.421 0.817811 9.53146 0 7.5213 0C5.51138 0 3.62163 0.817811 2.20042 2.30258C-0.733475 5.36795 -0.733475 10.3554 2.20042 13.4203C3.62163 14.9053 5.51138 15.7231 7.5213 15.7231C9.18914 15.7229 10.7697 15.1525 12.0728 14.1126L15.3572 17.5439C15.5548 17.7506 15.8141 17.8539 16.0733 17.8539C16.3324 17.8539 16.5918 17.7506 16.7893 17.5439C17.1849 17.1309 17.1849 16.4608 16.7893 16.0478ZM3.63251 11.9241C1.48834 9.68406 1.48858 6.03904 3.63251 3.79871C4.67122 2.71381 6.05237 2.11608 7.5213 2.11608C8.99047 2.11608 10.3714 2.71381 11.4101 3.79871C12.4488 4.88387 13.0209 6.3268 13.0209 7.86142C13.0209 9.3963 12.4488 10.839 11.4101 11.9241C10.3714 13.0093 8.99047 13.607 7.5213 13.607C6.05237 13.607 4.67122 13.0093 3.63251 11.9241Z" fill="black"/>
</svg>
