<svg width="17" height="17" viewBox="0 0 17 17" fill="none" xmlns="http://www.w3.org/2000/svg">
<g clip-path="url(#clip0_236_5416)">
<path fill-rule="evenodd" clip-rule="evenodd" d="M7.21361 0.0291748C3.22964 0.0291748 0 3.25881 0 7.24279C0 11.2268 3.22964 14.4564 7.21361 14.4564C11.1976 14.4564 14.4272 11.2268 14.4272 7.24279C14.4272 3.25881 11.1976 0.0291748 7.21361 0.0291748ZM16.7027 16.6607C16.3013 17.0691 15.641 17.0749 15.2326 16.6735L12.3491 13.8402C12.8977 13.4126 13.3914 12.918 13.8182 12.3688L16.6898 15.1905C17.0983 15.5919 17.1041 16.2522 16.7027 16.6607ZM7.21361 2.03763C10.0883 2.03763 12.4187 4.36806 12.4187 7.24275C12.4187 10.1174 10.0883 12.4479 7.21361 12.4479C4.33888 12.4479 2.00849 10.1174 2.00849 7.24275C2.00849 4.36806 4.33892 2.03763 7.21361 2.03763Z" fill="#162136"/>
</g>
<defs>
<clipPath id="clip0_236_5416">
<rect width="17" height="17" fill="white"/>
</clipPath>
</defs>
</svg>
