<svg width="19" height="15" viewBox="0 0 19 15" fill="none" xmlns="http://www.w3.org/2000/svg">
<path d="M17.5174 0.939726L17.2214 1.04155L1.15663 6.5326C1.04278 6.566 0.943836 6.63429 0.875297 6.72676C0.806759 6.81924 0.772502 6.93068 0.777896 7.04361C0.78329 7.15654 0.82803 7.26458 0.905104 7.3508C0.982177 7.43702 1.08723 7.49654 1.20379 7.52003L5.3623 8.60004L6.13805 10.76L6.91381 12.92C6.95837 13.0259 7.02951 13.1199 7.12104 13.1938C7.21257 13.2677 7.32173 13.3192 7.43904 13.344C7.55635 13.3688 7.67826 13.3661 7.79419 13.336C7.91012 13.3059 8.01656 13.2495 8.10428 13.1715L10.2526 11.246L14.4713 13.9599C14.9869 14.2932 15.722 14.0463 15.8537 13.4971L18.6477 1.78521C18.7843 1.2051 18.1403 0.728354 17.5174 0.939726V0.939726ZM15.4666 3.53945L8.20836 9.16781L7.86683 9.43318C7.79181 9.48961 7.74283 9.57148 7.73022 9.66153L7.65379 10.2602L7.44399 11.9419C7.44571 11.9623 7.4388 11.9826 7.42477 11.9982C7.41074 12.0139 7.39075 12.0236 7.36918 12.0252C7.34761 12.0268 7.32624 12.0203 7.30977 12.007C7.2933 11.9936 7.28308 11.9747 7.28136 11.9542L6.691 10.274L6.08113 8.55375C6.05534 8.47642 6.05876 8.39299 6.09082 8.3178C6.12288 8.24261 6.18156 8.18037 6.25677 8.14181L13.8094 4.03471L15.2308 3.26328C15.4374 3.1491 15.6488 3.39751 15.4666 3.53945V3.53945Z" fill="white"/>
</svg>
