<svg width="20" height="18" viewBox="0 0 20 18" fill="none" xmlns="http://www.w3.org/2000/svg">
<path d="M6.76343 8.79615C8.63048 8.79615 10.1458 7.28087 10.1458 5.41382C10.1458 3.54678 8.63048 2.03149 6.76343 2.03149C4.89639 2.03149 3.3811 3.54678 3.3811 5.41382C3.3811 7.28087 4.89639 8.79615 6.76343 8.79615ZM6.76343 3.38443C7.8796 3.38443 8.79283 4.29766 8.79283 5.41382C8.79283 6.52999 7.8796 7.44322 6.76343 7.44322C5.64726 7.44322 4.73404 6.52999 4.73404 5.41382C4.73404 4.29766 5.64726 3.38443 6.76343 3.38443Z" fill="#013220"/>
<path d="M12.5946 12.0431C11.9452 10.0205 9.76694 9.22226 9.15135 9.55373C8.22459 10.0475 7.34519 10.149 6.76343 10.149C5.7149 10.149 4.88962 9.82431 4.3755 9.55373C3.79374 9.24255 1.60199 9.94608 0.925525 12.0837L0.0528836 15.4728C-0.075645 15.9599 0.0325896 16.474 0.350529 16.8799C0.695526 17.3263 1.25023 17.5901 1.83875 17.5901H11.6949C12.2834 17.5901 12.8381 17.3263 13.1831 16.8799C13.501 16.474 13.6093 15.9599 13.4807 15.4728L12.5946 12.0431ZM11.6949 16.2372H1.83875C1.57493 16.2372 1.30435 16.0478 1.36523 15.8043L2.22434 12.449C2.47463 11.6575 3.11051 11.042 3.95609 10.8525C4.61226 11.1705 5.57961 11.5019 6.76343 11.5019C7.45342 11.5019 8.48165 11.3869 9.57076 10.8525C10.4163 11.0487 11.0522 11.6711 11.289 12.4152L12.1616 15.8043C12.2225 16.041 11.9587 16.2372 11.6881 16.2372H11.6949Z" fill="#013220"/>
<path d="M11.8749 1.88268C12.247 1.54445 12.7272 1.35504 13.2278 1.35504C15.9134 1.35504 15.9134 5.41384 13.2278 5.41384H13.1872C12.3214 5.41384 12.3078 6.76677 13.2278 6.76677C15.0949 6.76677 16.6102 5.25149 16.6102 3.38444C16.6102 0.441812 13.0993 -1.08024 10.9549 0.881515C10.292 1.48357 11.2052 2.48474 11.8681 1.87592L11.8749 1.88268Z" fill="#013220"/>
<path d="M19.9451 13.4435L19.0589 10.0206C18.4501 8.0385 16.2584 7.18616 15.6157 7.52439C14.8649 7.92351 14.1816 8.05203 13.7419 8.09262C12.849 8.16703 12.964 9.51997 13.8569 9.43879C14.3846 9.39144 15.1693 9.24938 16.0419 8.82997C16.8807 9.01938 17.5301 9.65526 17.7601 10.3926L18.6395 13.7817C18.7004 14.0185 18.4298 14.2146 18.1592 14.2146H16.4816C15.5887 14.2146 15.5887 15.5676 16.4816 15.5676H18.1592C19.3634 15.5676 20.2157 14.5258 19.9519 13.4502L19.9451 13.4435Z" fill="#013220"/>
</svg>
