<svg width="27" height="24" viewBox="0 0 27 24" fill="none" xmlns="http://www.w3.org/2000/svg">
<path d="M9.13058 11.8744C11.6511 11.8744 13.6967 9.82881 13.6967 7.30831C13.6967 4.78781 11.6511 2.74219 9.13058 2.74219C6.61008 2.74219 4.56445 4.78781 4.56445 7.30831C4.56445 9.82881 6.61008 11.8744 9.13058 11.8744ZM9.13058 4.56864C10.6374 4.56864 11.8702 5.80149 11.8702 7.30831C11.8702 8.81513 10.6374 10.048 9.13058 10.048C7.62375 10.048 6.3909 8.81513 6.3909 7.30831C6.3909 5.80149 7.62375 4.56864 9.13058 4.56864Z" fill="#B00000"/>
<path d="M17.0026 16.2585C16.1259 13.528 13.1853 12.4504 12.3543 12.8979C11.1031 13.5645 9.91595 13.7015 9.13058 13.7015C7.71508 13.7015 6.60095 13.2632 5.9069 12.8979C5.12152 12.4778 2.16268 13.4275 1.24945 16.3133L0.0713924 20.8886C-0.10212 21.5461 0.0439957 22.2402 0.473211 22.7881C0.938956 23.3908 1.6878 23.747 2.4823 23.747H15.788C16.5825 23.747 17.3313 23.3908 17.7971 22.7881C18.2263 22.2402 18.3724 21.5461 18.1989 20.8886L17.0026 16.2585ZM15.788 21.9205H2.4823C2.12615 21.9205 1.76086 21.6648 1.84305 21.3361L3.00284 16.8065C3.34074 15.738 4.19917 14.907 5.3407 14.6513C6.22652 15.0805 7.53244 15.528 9.13058 15.528C10.0621 15.528 11.4502 15.3727 12.9205 14.6513C14.062 14.9161 14.9204 15.7563 15.2401 16.7608L16.4181 21.3361C16.5003 21.6557 16.1441 21.9205 15.7789 21.9205H15.788Z" fill="#B00000"/>
<path d="M16.0314 2.54161C16.5337 2.085 17.1821 1.8293 17.8578 1.8293C21.4833 1.8293 21.4833 7.30864 17.8578 7.30864H17.803C16.6341 7.30864 16.6159 9.13509 17.8578 9.13509C20.3783 9.13509 22.424 7.08947 22.424 4.56897C22.424 0.596443 17.6843 -1.45831 14.7894 1.19004C13.8944 2.00281 15.1273 3.35438 16.0223 2.53248L16.0314 2.54161Z" fill="#B00000"/>
<path d="M26.9252 18.1488L25.7289 13.5279C24.907 10.8521 21.9481 9.70146 21.0805 10.1581C20.0669 10.6969 19.1445 10.8704 18.5509 10.9252C17.3455 11.0256 17.5007 12.8521 18.7062 12.7425C19.4185 12.6786 20.4778 12.4868 21.6559 11.9206C22.7883 12.1763 23.665 13.0347 23.9755 14.0301L25.1627 18.6054C25.2448 18.925 24.8796 19.1899 24.5143 19.1899H22.2495C21.044 19.1899 21.044 21.0163 22.2495 21.0163H24.5143C26.1398 21.0163 27.2905 19.6099 26.9343 18.1579L26.9252 18.1488Z" fill="#B00000"/>
</svg>
