<svg width="21" height="12" viewBox="0 0 21 12" fill="none" xmlns="http://www.w3.org/2000/svg">
<path fill-rule="evenodd" clip-rule="evenodd" d="M10.2745 11.9498H11.5297C11.5297 11.9498 11.9089 11.9081 12.1025 11.699C12.2806 11.5071 12.2749 11.1468 12.2749 11.1468C12.2749 11.1468 12.2504 9.45966 13.0321 9.21123C13.8027 8.9665 14.7923 10.8418 15.8411 11.5628C16.6343 12.1085 17.2369 11.9889 17.2369 11.9889L20.0414 11.9498C20.0414 11.9498 21.5084 11.8592 20.8128 10.7039C20.7558 10.6093 20.4077 9.84917 18.7277 8.28715C16.9692 6.65231 17.2047 6.91674 19.3229 4.08883C20.613 2.3666 21.1287 1.31517 20.9676 0.864837C20.8139 0.435923 19.8652 0.549291 19.8652 0.549291L16.7075 0.568995C16.7075 0.568995 16.4735 0.537012 16.2998 0.640956C16.1302 0.742902 16.021 0.98049 16.021 0.98049C16.021 0.98049 15.5213 2.3132 14.8547 3.4466C13.4487 5.83817 12.8865 5.96439 12.6567 5.8159C12.1221 5.4698 12.2556 4.4255 12.2556 3.68361C12.2556 1.366 12.6065 0.399658 11.5722 0.149506C11.229 0.0664077 10.9764 0.0115799 10.0986 0.00272747C8.9719 -0.00898055 8.01828 0.00615383 7.47832 0.271155C7.1191 0.447346 6.842 0.839993 7.01077 0.862552C7.21945 0.890537 7.69213 0.990198 7.94273 1.33202C8.2663 1.77292 8.2549 2.76325 8.2549 2.76325C8.2549 2.76325 8.44078 5.4915 7.82071 5.83046C7.39507 6.06291 6.81121 5.58831 5.55767 3.41861C4.91536 2.30721 4.43042 1.07872 4.43042 1.07872C4.43042 1.07872 4.33692 0.849131 4.17014 0.726339C3.96772 0.577562 3.68492 0.530159 3.68492 0.530159L0.684348 0.549862C0.684348 0.549862 0.233907 0.562428 0.0685549 0.758608C-0.0785513 0.933086 0.0568661 1.29404 0.0568661 1.29404C0.0568661 1.29404 2.406 6.79909 5.06589 9.57332C7.50483 12.1168 10.2745 11.9498 10.2745 11.9498Z" fill="white"/>
</svg>
