<svg width="21" height="21" viewBox="0 0 21 21" fill="none" xmlns="http://www.w3.org/2000/svg">
<path fill-rule="evenodd" clip-rule="evenodd" d="M17.9403 3.05182C15.9662 1.08486 13.3409 0.00115356 10.5439 0C4.78056 0 0.0900243 4.66796 0.0877061 10.4053C0.0869333 12.2393 0.568351 14.0297 1.4834 15.6077L0 21L5.543 19.5529C7.07032 20.3821 8.7898 20.819 10.5397 20.8195H10.544C16.3068 20.8195 20.9978 16.1512 21 10.4136C21.0012 7.63301 19.9146 5.01865 17.9403 3.05182ZM10.5439 19.0621H10.5403C8.98092 19.0615 7.45154 18.6444 6.11701 17.8565L5.79981 17.669L2.51051 18.5278L3.38847 15.3361L3.18176 15.0089C2.31178 13.6318 1.85239 12.0401 1.85316 10.4059C1.85496 5.63721 5.7537 1.75752 10.5474 1.75752C12.8687 1.75829 15.0508 2.65909 16.6916 4.29395C18.3324 5.92881 19.2354 8.10187 19.2347 10.413C19.2326 15.1821 15.3341 19.0621 10.5439 19.0621ZM15.311 12.5844C15.0498 12.4541 13.7652 11.8253 13.5257 11.7384C13.2864 11.6516 13.112 11.6084 12.938 11.8686C12.7637 12.1288 12.2631 12.7146 12.1106 12.888C11.9582 13.0616 11.8059 13.0833 11.5446 12.9531C11.2833 12.823 10.4415 12.5483 9.44353 11.6625C8.66693 10.9731 8.14263 10.1216 7.99014 9.86144C7.83791 9.60099 7.98885 9.47384 8.10476 9.3308C8.38758 8.98127 8.67079 8.61482 8.75786 8.4414C8.84505 8.26785 8.80139 8.11597 8.73596 7.98587C8.67079 7.85577 8.14829 6.57596 7.93064 6.05519C7.71839 5.54839 7.50318 5.61683 7.34271 5.60889C7.19048 5.60132 7.01623 5.59979 6.84197 5.59979C6.66785 5.59979 6.38477 5.66477 6.14522 5.92522C5.9058 6.18554 5.23094 6.81449 5.23094 8.09431C5.23094 9.37412 6.16711 10.6105 6.29771 10.784C6.4283 10.9576 8.14005 13.5839 10.7608 14.71C11.3841 14.9781 11.8707 15.138 12.2503 15.2578C12.8762 15.4557 13.4456 15.4278 13.8958 15.3609C14.3978 15.2861 15.4414 14.7318 15.6593 14.1245C15.877 13.5171 15.877 12.9966 15.8116 12.888C15.7464 12.7796 15.5721 12.7146 15.311 12.5844Z" fill="white"/>
</svg>
