<svg width="21" height="21" viewBox="0 0 21 21" fill="none" xmlns="http://www.w3.org/2000/svg">
<g clip-path="url(#clip0_2335_22925)">
<path d="M15.2235 12.273L15.2157 12.3374C13.3293 11.3972 13.132 11.2719 12.8884 11.6374C12.7194 11.8904 12.227 12.4643 12.0786 12.6342C11.9285 12.8015 11.7792 12.8143 11.5244 12.6985C11.2671 12.5699 10.441 12.2996 9.46304 11.4246C8.70127 10.7427 8.19 9.90625 8.03902 9.6489C7.78767 9.21483 8.31353 9.15307 8.79221 8.24719C8.87799 8.06704 8.83424 7.92549 8.77076 7.79768C8.70642 7.669 8.19429 6.40797 7.97983 5.90527C7.77395 5.40429 7.56206 5.46777 7.40336 5.46777C6.90924 5.42488 6.54809 5.43174 6.22983 5.76287C4.84527 7.28469 5.19441 8.85454 6.37909 10.5239C8.70728 13.571 9.94772 14.132 12.2159 14.9109C12.8284 15.1056 13.3868 15.0782 13.8286 15.0147C14.321 14.9366 15.3444 14.3962 15.558 13.7914C15.7768 13.1866 15.7768 12.6848 15.7124 12.569C15.6489 12.4532 15.4808 12.3889 15.2235 12.273Z" fill="white"/>
<path d="M17.808 2.9581C11.2121 -3.41825 0.296009 1.20638 0.29172 10.2017C0.29172 11.9998 0.762676 13.7532 1.65998 15.3016L0.205078 20.5876L5.63951 19.1705C12.4208 22.8335 20.7899 17.9695 20.7933 10.2069C20.7933 7.48236 19.7296 4.91827 17.7952 2.99155L17.808 2.9581ZM19.0793 10.1786C19.0742 16.7265 11.8863 20.8158 6.2014 17.4737L5.89258 17.2901L2.67567 18.1265L3.5378 14.9996L3.33277 14.6779C-0.204971 9.04621 3.85949 1.68591 10.561 1.68591C12.8377 1.68591 14.9746 2.57378 16.5839 4.18224C18.1923 5.77697 19.0793 7.91385 19.0793 10.1786Z" fill="white"/>
</g>
<defs>
<clipPath id="clip0_2335_22925">
<rect width="20.5882" height="20.5882" fill="white" transform="translate(0.205078)"/>
</clipPath>
</defs>
</svg>
