<svg width="22" height="22" viewBox="0 0 22 22" fill="none" xmlns="http://www.w3.org/2000/svg">
<path fill-rule="evenodd" clip-rule="evenodd" d="M18.6931 3.2985C16.6519 1.26464 13.9372 0.144074 11.0451 0.142881C5.08574 0.142881 0.235664 4.96962 0.233267 10.9021C0.232468 12.7985 0.730261 14.6497 1.67644 16.2815L0.142578 21.8572L5.87411 20.3609C7.45338 21.2182 9.23135 21.67 11.0407 21.6706H11.0453C17.004 21.6706 21.8546 16.8434 21.8569 10.9107C21.8581 8.03552 20.7345 5.33223 18.6931 3.2985ZM11.0451 19.8534H11.0414C9.42897 19.8527 7.84757 19.4215 6.46766 18.6068L6.13966 18.4129L2.73848 19.3009L3.6463 16.0006L3.43256 15.6623C2.53299 14.2383 2.05797 12.5925 2.05877 10.9027C2.06064 5.97184 6.09198 1.96018 11.0487 1.96018C13.449 1.96098 15.7053 2.89242 17.4019 4.58289C19.0985 6.27335 20.0323 8.52032 20.0315 10.91C20.0294 15.8413 15.9983 19.8534 11.0451 19.8534ZM15.9743 13.1553C15.7042 13.0206 14.376 12.3704 14.1283 12.2806C13.8809 12.1908 13.7006 12.1462 13.5206 12.4152C13.3405 12.6843 12.8228 13.2899 12.6652 13.4693C12.5075 13.6487 12.3501 13.6712 12.0799 13.5366C11.8097 13.4021 10.9393 13.118 9.90732 12.2021C9.1043 11.4892 8.56216 10.6088 8.40449 10.3397C8.24708 10.0704 8.40316 9.93896 8.52301 9.79105C8.81546 9.42964 9.1083 9.05072 9.19832 8.8714C9.28848 8.69195 9.24333 8.5349 9.17568 8.40038C9.1083 8.26586 8.56802 6.94251 8.34297 6.40403C8.1235 5.87999 7.90097 5.95076 7.73504 5.94255C7.57763 5.93473 7.39745 5.93314 7.21727 5.93314C7.03723 5.93314 6.74452 6.00033 6.49682 6.26964C6.24926 6.53882 5.55144 7.18916 5.55144 8.5125C5.55144 9.83585 6.51946 11.1143 6.65449 11.2937C6.78953 11.4732 8.5595 14.1888 11.2694 15.3532C11.9139 15.6305 12.4171 15.7957 12.8095 15.9197C13.4567 16.1243 14.0455 16.0954 14.511 16.0262C15.0301 15.949 16.1092 15.3758 16.3345 14.7478C16.5596 14.1197 16.5596 13.5815 16.4919 13.4693C16.4246 13.3571 16.2444 13.2899 15.9743 13.1553Z" fill="white"/>
</svg>
