<svg width="19" height="15" viewBox="0 0 19 15" fill="none" xmlns="http://www.w3.org/2000/svg">
<path d="M15.2262 0.916992H3.77294C3.31524 0.916992 2.86202 1.00718 2.43919 1.18241C2.01635 1.35763 1.63219 1.61446 1.30865 1.93821C0.985116 2.26196 0.728543 2.6463 0.553597 3.06925C0.378651 3.49219 0.288761 3.94547 0.289063 4.40318V10.5973C0.288761 11.055 0.378651 11.5082 0.553597 11.9312C0.728543 12.3541 0.985116 12.7385 1.30865 13.0622C1.63219 13.386 2.01635 13.6428 2.43919 13.818C2.86202 13.9932 3.31524 14.0834 3.77294 14.0834H15.2262C15.6839 14.0834 16.1372 13.9932 16.56 13.818C16.9828 13.6428 17.367 13.386 17.6905 13.0622C18.0141 12.7385 18.2706 12.3541 18.4456 11.9312C18.6205 11.5082 18.7104 11.055 18.7101 10.5973V4.40318C18.7104 3.94547 18.6205 3.49219 18.4456 3.06925C18.2706 2.6463 18.0141 2.26196 17.6905 1.93821C17.367 1.61446 16.9828 1.35763 16.56 1.18241C16.1372 1.00718 15.6839 0.916992 15.2262 0.916992V0.916992ZM7.07262 10.3232V4.67719L11.9266 7.50022L7.07262 10.3232Z" fill="white"/>
</svg>
