<svg width="27" height="13" viewBox="0 0 27 13" fill="none" xmlns="http://www.w3.org/2000/svg">
<path d="M26.6906 5.7579C26.6903 5.75758 26.6901 5.75722 26.6897 5.7569L21.1787 0.305287C20.7659 -0.103112 20.0981 -0.101593 19.6872 0.308851C19.2762 0.719243 19.2778 1.38303 19.6907 1.79148L23.3907 5.45161L1.05469 5.45161C0.472183 5.45161 -4.66314e-07 5.92098 -5.11916e-07 6.5C-5.57518e-07 7.07902 0.472183 7.54839 1.05469 7.54839L23.3907 7.54839L19.6907 11.2085C19.2779 11.617 19.2763 12.2808 19.6872 12.6911C20.0982 13.1016 20.766 13.1031 21.1788 12.6947L26.6898 7.2431C26.6901 7.24278 26.6903 7.24242 26.6907 7.2421C27.1038 6.83229 27.1024 6.16635 26.6906 5.7579Z" fill="black"/>
</svg>
