<svg width="20" height="10" viewBox="0 0 20 10" fill="none" xmlns="http://www.w3.org/2000/svg">
<path d="M0.878544 5.77316C0.87876 5.77337 0.878941 5.77363 0.879193 5.77384L4.63997 9.51649C4.92172 9.79686 5.37742 9.79582 5.65787 9.51404C5.93828 9.2323 5.9372 8.7766 5.65545 8.49619L3.13046 5.98343L18.373 5.98343C18.7705 5.98343 19.0928 5.6612 19.0928 5.26369C19.0928 4.86618 18.7705 4.54395 18.373 4.54395L3.1305 4.54395L5.65542 2.0312C5.93716 1.75079 5.93824 1.29508 5.65783 1.01334C5.37738 0.731527 4.92165 0.730557 4.63994 1.01089L0.879157 4.75354C0.878939 4.75376 0.87876 4.75401 0.878508 4.75422C0.596621 5.03557 0.597521 5.49275 0.878544 5.77316Z" fill="black"/>
</svg>
