<svg width="19" height="10" viewBox="0 0 19 10" fill="none" xmlns="http://www.w3.org/2000/svg">
<path d="M18.5243 4.46659C18.5241 4.46637 18.5239 4.46612 18.5236 4.4659L14.7629 0.723258C14.4811 0.442883 14.0254 0.443927 13.745 0.725705C13.4646 1.00745 13.4656 1.46315 13.7474 1.74356L16.2724 4.25631H1.0298C0.632286 4.25631 0.310059 4.57854 0.310059 4.97605C0.310059 5.37357 0.632286 5.69579 1.0298 5.69579H16.2723L13.7474 8.20855C13.4657 8.48896 13.4646 8.94466 13.745 9.2264C14.0254 9.50822 14.4812 9.50919 14.7629 9.22885L18.5237 5.48621C18.5239 5.48599 18.5241 5.48574 18.5243 5.48552C18.8062 5.20418 18.8053 4.747 18.5243 4.46659Z" fill="white"/>
</svg>
