<svg width="21" height="21" viewBox="0 0 21 21" fill="none" xmlns="http://www.w3.org/2000/svg">
<path d="M10.5 0C4.7103 0 0 4.7103 0 10.5C0 16.2897 4.7103 21 10.5 21C16.2897 21 21 16.2897 21 10.5C21 4.7103 16.2897 0 10.5 0ZM10.5 19.0909C5.76291 19.0909 1.90909 15.237 1.90909 10.5C1.90909 5.76297 5.76291 1.90909 10.5 1.90909C15.2371 1.90909 19.0909 5.76297 19.0909 10.5C19.0909 15.237 15.237 19.0909 10.5 19.0909Z" fill="#039571"/>
<path d="M14.4372 6.78773L9.03743 12.1875L6.56261 9.71259C6.18989 9.33987 5.58547 9.33981 5.21269 9.71252C4.83991 10.0853 4.83991 10.6897 5.21269 11.0624L8.36244 14.2123C8.54145 14.3913 8.78422 14.4919 9.03736 14.4919H9.03743C9.29057 14.4919 9.53335 14.3913 9.71236 14.2124L15.7871 8.13771C16.1599 7.76493 16.1599 7.16058 15.7871 6.7878C15.4144 6.41502 14.81 6.41495 14.4372 6.78773Z" fill="#039571"/>
</svg>
