<svg width="24" height="24" viewBox="0 0 24 24" fill="none" xmlns="http://www.w3.org/2000/svg">
<circle cx="12.8813" cy="12.2939" r="10.5796" fill="white"/>
<path d="M12 0C5.4 0 0 5.4 0 12C0 18.6 5.4 24 12 24C18.6 24 24 18.6 24 12C24 5.4 18.6 0 12 0ZM17.16 9.12L11.64 16.32C11.4 16.56 11.04 16.8 10.68 16.8C10.32 16.8 9.96 16.68 9.72 16.32L6.84 12.6C6.48 12.12 6.48 11.28 7.08 10.92C7.68 10.56 8.4 10.56 8.76 11.16L10.68 13.68L15.24 7.68C15.6 7.2 16.44 7.08 16.92 7.44C17.52 7.8 17.52 8.52 17.16 9.12Z" fill="#039BE5"/>
</svg>
