<svg width="28" height="28" viewBox="0 0 28 28" fill="none" xmlns="http://www.w3.org/2000/svg">
<path d="M10.0441 24.7069H2.25094V21.4138H10.0268V24.7069H10.0441ZM11.613 19.7586H0.699219V28H2.25094V26.3449H11.5785V19.7586H11.613ZM2.25094 4.94828L5.37163 1.65517V13.1897H2.25094V4.94828ZM0.699219 14.8276H6.90611V0H4.59577L0.699219 4.12069V14.8276ZM10.0441 1.65517H13.1647V13.1897H10.0441V1.65517ZM8.49232 14.8276H14.6992V0H8.49232V14.8276ZM25.5785 14.8276H27.1302V0H24.7854V0.0172413L22.4406 2.48276V0H20.0958L16.2337 4.12069V14.8276H17.7854V4.94828L20.9061 1.65517V14.8276H22.4578V4.94828L25.5785 1.65517V14.8276ZM0.699219 18.1207H27.1475V16.4655H0.699219V18.1207ZM20.9233 21.4138H25.5785V24.7069H20.9233V21.4138ZM19.3716 24.7069H14.6992V21.4138H19.3716V24.7069ZM20.9233 26.3449H27.1475V19.7586H13.1647V26.3449H19.3716V28H20.9233V26.3449Z" fill="#384249"/>
</svg>
