<svg width="15" height="9" viewBox="0 0 15 9" fill="none" xmlns="http://www.w3.org/2000/svg">
<path d="M8.0853 8.66691L14.7604 1.99172C14.9149 1.83733 15 1.63124 15 1.41148C15 1.19173 14.9149 0.985633 14.7604 0.831244L14.2689 0.339663C13.9487 0.0197873 13.4282 0.0197873 13.1084 0.339663L7.50311 5.94498L1.89157 0.333443C1.73706 0.179054 1.53109 0.0938104 1.31145 0.0938104C1.09158 0.0938104 0.885603 0.179054 0.73097 0.333443L0.239632 0.825024C0.0851213 0.979535 5.11887e-07 1.18551 5.02281e-07 1.40526C4.92676e-07 1.62502 0.0851213 1.83111 0.239632 1.9855L6.9208 8.66691C7.0758 8.82167 7.28275 8.90667 7.50274 8.90618C7.7236 8.90667 7.93042 8.82167 8.0853 8.66691Z" fill="black"/>
</svg>
