<svg width="22" height="22" viewBox="0 0 22 22" fill="none" xmlns="http://www.w3.org/2000/svg">
<path d="M20.4629 9.60159C19.8623 8.87778 18.922 8.42816 18.0088 8.42816H15.5932C16.1368 7.56182 16.546 6.69003 16.7953 5.85987C17.1758 4.59307 17.1625 3.48877 16.7568 2.66635C16.2998 1.74003 15.3737 1.22986 14.1493 1.22986C13.8708 1.22986 13.6198 1.39787 13.5137 1.65533C12.5603 3.96778 10.0735 7.29142 7.73059 9.48089C7.49151 8.65043 6.72534 8.04096 5.819 8.04096H2.87564C1.77869 8.04096 0.88623 8.93342 0.88623 10.0303V18.7807C0.88623 19.8777 1.77869 20.7702 2.87564 20.7702H5.819C6.49004 20.7702 7.08413 20.4358 7.44464 19.9253C7.99 20.45 8.71299 20.7702 9.5052 20.7702H16.9165C17.7358 20.7702 18.4654 20.4213 19.0265 19.7613C19.489 19.2172 19.8175 18.4821 19.9764 17.6356L21.0688 11.8165C21.2154 11.0357 21.0002 10.2491 20.4629 9.60159ZM6.43337 18.7808C6.43337 19.1196 6.15777 19.3952 5.819 19.3952H2.87564C2.53688 19.3952 2.26123 19.1196 2.26123 18.7808V10.0304C2.26123 9.69161 2.53688 9.41601 2.87564 9.41601H5.819C6.15777 9.41601 6.43337 9.69161 6.43337 10.0304V18.7808ZM19.7174 11.5628L18.6251 17.3819C18.4424 18.3552 17.8976 19.3952 16.9165 19.3952H9.50516C8.56956 19.3952 7.80841 18.549 7.80841 17.5088V11.2465C10.3999 9.09512 13.3021 5.40028 14.5834 2.63867C15.267 2.75435 15.4547 3.13492 15.5237 3.27466C15.9699 4.17919 15.5996 6.26193 13.732 8.69727C13.5728 8.90494 13.5453 9.18509 13.6611 9.41979C13.7769 9.65448 14.0158 9.80311 14.2776 9.80311H18.0089C18.5159 9.80311 19.0639 10.0686 19.4048 10.4795C19.5967 10.711 19.8068 11.0867 19.7174 11.5628Z" fill="black"/>
</svg>
