<svg width="72" height="70" viewBox="0 0 72 70" fill="none" xmlns="http://www.w3.org/2000/svg">
<path fill-rule="evenodd" clip-rule="evenodd" d="M40.2162 69.2206C41.0586 53.0785 56.5925 51.4687 68.9321 46.9502C70.1136 48.5267 71.109 50.6694 71.8639 53.0008V37.88C71.7107 37.6579 71.5576 37.4359 71.4044 37.2139C47.7644 43.1645 36.1139 55.0657 36.0921 55.0546C36.0811 55.0657 24.4197 43.1756 0.779726 37.2139C0.70315 37.3249 0.626578 37.447 0.539062 37.558V52.3457C1.26106 50.2697 2.17997 48.3824 3.24109 46.9613C15.5917 51.4687 31.1256 53.0896 31.957 69.2317H36.0811H40.2162V69.2206Z" fill="url(#paint0_linear_2335_23253)"/>
<path fill-rule="evenodd" clip-rule="evenodd" d="M40.3049 7.20512C38.303 8.92592 36.859 11.0575 35.9948 13.6109C35.2728 11.0908 33.8069 8.85931 31.805 7.20512C33.9929 5.37331 35.4916 2.81988 36.0495 0C36.4871 2.57564 37.8983 4.98475 40.3049 7.20512ZM39.211 19.4838C37.7233 20.7605 36.6621 22.3481 36.0167 24.2354C35.4807 22.3703 34.3977 20.7161 32.9099 19.4838C34.5289 18.1183 35.6448 16.231 36.0605 14.1327C36.3777 16.0533 37.4279 17.8407 39.211 19.4838ZM48.5532 21.4488C46.7811 22.2704 45.3371 23.5138 44.2212 25.1569C44.1994 23.214 43.5868 21.3156 42.4819 19.7392C44.4072 18.8621 45.9715 17.3522 46.9233 15.4427C46.7264 17.3745 47.2733 19.3728 48.5532 21.4488ZM38.5437 29.642C37.3732 30.6523 36.5309 31.8957 36.0167 33.3945C35.5901 31.9179 34.7368 30.6079 33.5663 29.642C34.8462 28.5652 35.7213 27.0775 36.0495 25.4233C36.3121 26.9221 37.1435 28.332 38.5437 29.642ZM45.2386 31.052C43.8384 31.707 42.7007 32.684 41.8146 33.9829C41.7927 32.4508 41.3114 30.9521 40.4362 29.6975C41.9568 29.0092 43.1929 27.8102 43.9478 26.3004C43.7946 27.8324 44.2322 29.4089 45.2386 31.052ZM23.6443 21.4488C25.4164 22.2704 26.8604 23.5138 27.9763 25.1569C27.9981 23.214 28.6107 21.3156 29.7156 19.7392C27.7903 18.8621 26.2259 17.3522 25.2742 15.4427C25.4711 17.3745 24.9351 19.3728 23.6443 21.4488ZM26.9589 31.052C28.3591 31.707 29.4968 32.684 30.3829 33.9829C30.4048 32.4508 30.8861 30.9521 31.7613 29.6975C30.2407 29.0092 29.0046 27.8102 28.2497 26.3004C28.4029 27.8324 27.9763 29.4089 26.9589 31.052ZM47.6672 33.9718C48.5751 34.5713 49.7894 34.3048 50.3801 33.3723C50.9708 32.4508 50.7083 31.2185 49.7894 30.619C48.8814 30.0195 47.6671 30.2859 47.0764 31.2185C46.4966 32.14 46.7592 33.3723 47.6672 33.9718ZM51.5506 27.8546C52.3383 28.3653 53.3885 28.1433 53.8917 27.3439C54.3949 26.5446 54.1761 25.4788 53.3885 24.9681C52.6008 24.4575 51.5506 24.6795 51.0474 25.4788C50.5333 26.2782 50.763 27.3439 51.5506 27.8546ZM55.1388 22.2149C55.8061 22.6479 56.6812 22.4591 57.1078 21.7819C57.5345 21.1047 57.3485 20.2165 56.6812 19.7836C56.0139 19.3506 55.1388 19.5393 54.7121 20.2165C54.2855 20.8826 54.4715 21.7819 55.1388 22.2149ZM24.5522 33.9718C23.6443 34.5713 22.43 34.3048 21.8393 33.3723C21.2485 32.4508 21.5111 31.2185 22.43 30.619C23.338 30.0195 24.5522 30.2859 25.143 31.2185C25.7227 32.14 25.4602 33.3723 24.5522 33.9718ZM20.6687 27.8546C19.8811 28.3653 18.8309 28.1433 18.3277 27.3439C17.8245 26.5446 18.0433 25.4788 18.8309 24.9681C19.6186 24.4575 20.6687 24.6795 21.1719 25.4788C21.6752 26.2782 21.4564 27.3439 20.6687 27.8546ZM17.0806 22.2149C16.4133 22.6479 15.5382 22.4591 15.1115 21.7819C14.6849 21.1047 14.8709 20.2165 15.5382 19.7836C16.2055 19.3506 17.0806 19.5393 17.5073 20.2165C17.9339 20.8826 17.7479 21.7819 17.0806 22.2149Z" fill="url(#paint1_linear_2335_23253)"/>
<defs>
<linearGradient id="paint0_linear_2335_23253" x1="7.10138" y1="23.3201" x2="66.2218" y2="65.9729" gradientUnits="userSpaceOnUse">
<stop stop-color="#F6CF87"/>
<stop offset="0.29" stop-color="#B68819"/>
<stop offset="0.51" stop-color="#FFE59D"/>
<stop offset="0.63" stop-color="#B68819"/>
<stop offset="1" stop-color="#F6CF87"/>
</linearGradient>
<linearGradient id="paint1_linear_2335_23253" x1="22.8214" y1="4.52668" x2="49.843" y2="39.6109" gradientUnits="userSpaceOnUse">
<stop stop-color="#F6CF87"/>
<stop offset="0.29" stop-color="#B68819"/>
<stop offset="0.51" stop-color="#FFE59D"/>
<stop offset="0.63" stop-color="#B68819"/>
<stop offset="1" stop-color="#F6CF87"/>
</linearGradient>
</defs>
</svg>
