<svg width="138" height="4" viewBox="0 0 138 4" fill="none" xmlns="http://www.w3.org/2000/svg">
<path fill-rule="evenodd" clip-rule="evenodd" d="M0.546875 3.47813V0.624941C0.601572 0.61384 0.667207 0.613843 0.743782 0.602741C0.820358 0.59164 0.896935 0.591643 0.97351 0.580541C1.06103 0.569439 1.1376 0.569437 1.22512 0.569437C1.31263 0.569437 1.40015 0.569437 1.48766 0.569437C1.62987 0.569437 1.77209 0.580538 1.90336 0.602741C2.03463 0.624945 2.1659 0.658249 2.2753 0.713759C2.38469 0.769268 2.47221 0.835884 2.53784 0.935801C2.60348 1.02462 2.6363 1.14674 2.6363 1.29106C2.6363 1.36877 2.62536 1.43538 2.60348 1.5131C2.5816 1.57971 2.54878 1.64632 2.50502 1.71293C2.46127 1.77954 2.40657 1.82395 2.32999 1.86836C2.25342 1.91276 2.17684 1.94607 2.06745 1.96828V1.99048C2.15496 2.00158 2.24248 2.02378 2.31905 2.05709C2.39563 2.09039 2.47221 2.1348 2.5269 2.20142C2.5816 2.25693 2.6363 2.33463 2.66911 2.41235C2.70193 2.50116 2.72381 2.60108 2.72381 2.7121C2.72381 2.86753 2.69099 2.98965 2.61442 3.10067C2.54878 3.21168 2.45033 3.3005 2.34093 3.36711C2.23154 3.43372 2.10027 3.48923 1.95805 3.52253C1.81584 3.55584 1.66269 3.56694 1.52048 3.56694C1.46578 3.56694 1.41109 3.56694 1.32357 3.56694C1.24699 3.56694 1.15948 3.56695 1.07197 3.55585C0.98445 3.55585 0.885995 3.54474 0.79848 3.53364C0.700026 3.50033 0.623451 3.48924 0.546875 3.47813ZM1.12666 3.02295C1.1376 3.03406 1.17042 3.03406 1.20324 3.03406C1.23605 3.03406 1.26887 3.03405 1.30169 3.04515C1.34545 3.04515 1.37827 3.04515 1.42203 3.04515C1.46578 3.04515 1.4986 3.04515 1.53142 3.04515C1.608 3.04515 1.68457 3.03406 1.75021 3.02295C1.81584 3.01185 1.88148 2.98965 1.93618 2.95634C1.99087 2.92304 2.03463 2.87863 2.06745 2.83422C2.10027 2.78982 2.11121 2.7232 2.11121 2.65659C2.11121 2.56777 2.08933 2.49007 2.05651 2.44566C2.01275 2.39015 1.969 2.35684 1.90336 2.32354C1.83772 2.30133 1.77209 2.27913 1.69551 2.27913C1.61893 2.26803 1.54236 2.26802 1.46578 2.26802H1.12666V3.02295ZM1.12666 1.80175H1.33451C1.37827 1.80175 1.42202 1.80175 1.47672 1.80175C1.53142 1.80175 1.57518 1.80174 1.61893 1.79064C1.72833 1.75734 1.82678 1.70183 1.90336 1.64632C1.97993 1.57971 2.02369 1.50199 2.02369 1.39097C2.02369 1.31326 2.01275 1.25776 1.97993 1.21335C1.94712 1.16894 1.9143 1.13563 1.8596 1.10232C1.8049 1.08012 1.75021 1.05792 1.69551 1.05792C1.62987 1.04682 1.56424 1.04682 1.4986 1.04682C1.42202 1.04682 1.34545 1.04682 1.27981 1.04682C1.21418 1.04682 1.15948 1.05792 1.12666 1.05792V1.80175ZM4.17875 2.04599C4.17875 1.81285 4.21157 1.60192 4.26627 1.41318C4.32096 1.22445 4.40848 1.06902 4.52881 0.935801C4.63821 0.802579 4.78042 0.713761 4.94451 0.64715C5.1086 0.580539 5.29457 0.547229 5.50242 0.547229C5.7212 0.547229 5.91811 0.580541 6.0822 0.658254C6.2463 0.735967 6.37757 0.835883 6.4979 0.969106C6.60729 1.10233 6.69481 1.25776 6.74951 1.44649C6.8042 1.63522 6.83702 1.83505 6.83702 2.05709C6.83702 2.29023 6.8042 2.50116 6.74951 2.68989C6.68387 2.87863 6.59635 3.03406 6.48696 3.15618C6.37757 3.2894 6.23536 3.37821 6.07126 3.44482C5.90717 3.51143 5.7212 3.54474 5.5243 3.54474C5.30551 3.54474 5.1086 3.51144 4.95545 3.43373C4.79136 3.36711 4.64914 3.25609 4.53975 3.12287C4.43036 2.98964 4.34284 2.83423 4.28814 2.64549C4.20063 2.46786 4.17875 2.26803 4.17875 2.04599ZM4.81324 2.04599C4.81324 2.19031 4.82417 2.32354 4.85699 2.43455C4.87887 2.55668 4.92263 2.65659 4.97733 2.7343C5.03202 2.82312 5.09766 2.88973 5.18517 2.93414C5.27269 2.97854 5.37114 3.00075 5.49148 3.00075C5.71026 3.00075 5.87436 2.92303 5.99469 2.77871C6.11502 2.63439 6.16972 2.37904 6.16972 2.03489C6.16972 1.90166 6.15878 1.76844 6.1369 1.64632C6.11502 1.5242 6.07127 1.42429 6.01657 1.33547C5.96187 1.24665 5.8853 1.18004 5.79778 1.13564C5.71026 1.09123 5.61181 1.05792 5.48054 1.05792C5.27269 1.05792 5.09766 1.13564 4.98827 1.29106C4.86793 1.46869 4.81324 1.71293 4.81324 2.04599ZM8.17163 3.38932L8.32478 2.85642C8.39041 2.88973 8.48887 2.92304 8.62014 2.95634C8.75141 2.98965 8.90457 3.01185 9.0796 3.01185C9.14523 3.01185 9.19993 3.00075 9.26557 2.98965C9.3312 2.97855 9.3859 2.95635 9.4406 2.92304C9.49529 2.88973 9.53905 2.85643 9.57187 2.80092C9.60469 2.74541 9.61563 2.68989 9.61563 2.61218C9.61563 2.54557 9.60469 2.49007 9.58281 2.44566C9.56093 2.40125 9.51717 2.35684 9.46248 2.32354C9.40778 2.29023 9.3312 2.26803 9.24369 2.24582C9.14523 2.22362 9.03584 2.21251 8.89363 2.21251C8.86081 2.21251 8.82799 2.21251 8.81705 2.21251C8.79517 2.21251 8.77329 2.21251 8.72954 2.21251H8.62014V1.75734H8.72954C8.75141 1.75734 8.78423 1.75734 8.82799 1.75734C8.87175 1.75734 8.90456 1.75734 8.94832 1.75734C8.99208 1.75734 9.03584 1.75734 9.06866 1.74623C9.11241 1.74623 9.14523 1.73513 9.16711 1.73513C9.26557 1.71293 9.35308 1.67962 9.42966 1.62411C9.49529 1.5686 9.52811 1.49089 9.52811 1.40208C9.52811 1.27996 9.48435 1.19114 9.39684 1.14673C9.30932 1.10232 9.18899 1.08012 9.04678 1.08012C8.98114 1.08012 8.9155 1.08013 8.84987 1.09123C8.78423 1.10233 8.72953 1.11343 8.67484 1.13564C8.62014 1.15784 8.56544 1.16894 8.52169 1.19114C8.47793 1.21334 8.43417 1.22445 8.41229 1.24665L8.25914 0.724863C8.29196 0.713761 8.33572 0.691554 8.39041 0.66935C8.44511 0.647146 8.51075 0.624948 8.59826 0.613846C8.67484 0.591642 8.76235 0.580539 8.84987 0.569437C8.93738 0.558335 9.03584 0.547229 9.13429 0.547229C9.26556 0.547229 9.3859 0.558338 9.51717 0.580541C9.6375 0.602745 9.7469 0.636049 9.84535 0.691559C9.94381 0.747068 10.0204 0.824778 10.0751 0.913593C10.1298 1.00241 10.1626 1.12453 10.1626 1.26885C10.1626 1.41318 10.1188 1.5464 10.0423 1.66852C9.96569 1.79064 9.83441 1.87946 9.64844 1.93496V1.95717C9.83441 1.99048 9.98757 2.06819 10.097 2.17921C10.2064 2.30133 10.261 2.45675 10.261 2.65659C10.261 2.81202 10.2282 2.94524 10.1626 3.05626C10.097 3.16728 10.0094 3.25609 9.90005 3.3338C9.79066 3.40042 9.65938 3.45592 9.51717 3.48923C9.37496 3.52254 9.23275 3.54474 9.0796 3.54474C8.98114 3.54474 8.88269 3.54474 8.79517 3.53364C8.70766 3.52254 8.62014 3.51144 8.54357 3.50033C8.46699 3.48923 8.39041 3.46703 8.33572 3.45593C8.25914 3.43372 8.20445 3.41152 8.17163 3.38932ZM11.541 3.99992V2.94524H11.8691C11.891 2.91193 11.9238 2.84532 11.9676 2.74541C12.0114 2.64549 12.0551 2.50117 12.1098 2.31243C12.1536 2.1237 12.1973 1.89056 12.2301 1.60191C12.263 1.32437 12.2739 0.980203 12.2739 0.591637H14.1336V2.94524H14.5274V3.99992H14.1008L14.0351 3.48923H12.0442L11.9785 3.99992H11.541ZM12.5036 2.95634H13.521V1.13564H12.8209C12.8099 1.61302 12.7662 2.00158 12.7005 2.30133C12.6458 2.60108 12.5693 2.82312 12.5036 2.95634ZM15.501 0.602741H16.2121L16.8356 1.86836L16.9231 2.23472H16.956L17.0216 1.84616L17.492 0.602741H18.1265L17.306 2.61218C17.2404 2.76761 17.1857 2.90083 17.12 3.01185C17.0544 3.12287 16.9888 3.22278 16.9231 3.2894C16.8575 3.36711 16.77 3.42262 16.6825 3.45593C16.595 3.48923 16.4965 3.51144 16.3762 3.51144C16.2777 3.51144 16.2011 3.50033 16.1464 3.50033C16.0917 3.48923 16.0261 3.46703 15.9605 3.41152L16.1136 2.92304C16.1683 2.94524 16.2121 2.96744 16.2558 2.96744C16.2996 2.97854 16.3433 2.97854 16.3871 2.97854C16.5293 2.97854 16.6278 2.87863 16.6825 2.68989L15.501 0.602741ZM19.4283 3.48923V0.591637H20.0299V2.94524H20.7629V0.591637H21.3645V2.94524H22.0975V0.591637H22.6991V3.48923H19.4283ZM24.3619 3.48923V0.591637H24.9636V1.75734H26.1013V0.591637H26.7029V3.48923H26.1013V2.29022H24.9636V3.48923H24.3619ZM28.0923 3.48923L29.2081 0.580541H29.6566L30.7833 3.48923H30.1379L29.8972 2.87863H28.9346L28.7049 3.48923H28.0923ZM29.0877 2.39015H29.7332L29.5144 1.79064L29.4159 1.33547H29.394L29.2956 1.80175L29.0877 2.39015ZM31.8992 3.48923L32.5336 2.54557L32.7962 2.35684C32.6977 2.33464 32.6102 2.30133 32.5336 2.25692C32.4461 2.21251 32.3805 2.15701 32.3149 2.07929C32.2492 2.00158 32.2055 1.92386 32.1726 1.82395C32.1398 1.72403 32.1179 1.61302 32.1179 1.4909C32.1179 1.31327 32.1508 1.16894 32.2164 1.04682C32.282 0.924698 32.3696 0.83588 32.4899 0.758167C32.6102 0.680454 32.7415 0.636047 32.9056 0.602741C33.0697 0.569436 33.2338 0.558333 33.4197 0.558333C33.4635 0.558333 33.5291 0.558333 33.5948 0.558333C33.6604 0.558333 33.726 0.569437 33.8026 0.569437C33.8682 0.569437 33.9448 0.580535 34.0105 0.591637C34.0761 0.602739 34.1417 0.61384 34.1964 0.624941V3.48923H33.5948V2.35684L33.2775 2.43455L32.6212 3.48923H31.8992ZM32.7634 1.5242C32.7634 1.60191 32.7743 1.67962 32.8071 1.73513C32.8399 1.79064 32.8837 1.83505 32.9275 1.86836C32.9822 1.90166 33.0478 1.92386 33.1134 1.94607C33.19 1.95717 33.2666 1.96828 33.3432 1.96828H33.5729V1.11343C33.5401 1.11343 33.5072 1.10232 33.4744 1.10232C33.4416 1.10232 33.3979 1.10232 33.3432 1.10232C33.2666 1.10232 33.19 1.11343 33.1134 1.12453C33.0369 1.13563 32.9822 1.15783 32.9275 1.19114C32.8728 1.22445 32.829 1.26886 32.7962 1.32437C32.7743 1.36877 32.7634 1.43539 32.7634 1.5242ZM44.7529 3.48923L45.7047 2.02378L44.8405 0.602741H45.5734L46.0547 1.42428L46.1641 1.71293L46.2735 1.42428L46.7658 0.602741H47.4221L46.5251 2.00158L47.4659 3.50033H46.7439L46.1969 2.62328L46.0766 2.32354L45.9563 2.62328L45.4093 3.50033H44.7529V3.48923ZM48.527 0.602741H49.2381L49.8616 1.86836L49.9491 2.23472H49.982L50.0476 1.84616L50.518 0.602741H51.1525L50.332 2.61218C50.2664 2.76761 50.2117 2.90083 50.1461 3.01185C50.0804 3.12287 50.0148 3.22278 49.9491 3.2894C49.8835 3.36711 49.796 3.42262 49.7085 3.45593C49.621 3.48923 49.5225 3.51144 49.4022 3.51144C49.3037 3.51144 49.2271 3.50033 49.1725 3.50033C49.1178 3.48923 49.0521 3.46703 48.9865 3.41152L49.1396 2.92304C49.1943 2.94524 49.2381 2.96744 49.2818 2.96744C49.3256 2.97854 49.3694 2.97854 49.4131 2.97854C49.5553 2.97854 49.6538 2.87863 49.7085 2.68989L48.527 0.602741ZM52.1151 3.99992V2.94524H52.4433C52.4652 2.91193 52.498 2.84532 52.5418 2.74541C52.5855 2.64549 52.6402 2.50117 52.684 2.31243C52.7278 2.1237 52.7715 1.89056 52.8043 1.60191C52.8371 1.32437 52.8481 0.980203 52.8481 0.591637H54.7078V2.94524H55.1016V3.99992H54.675L54.6093 3.48923H52.6184L52.5527 3.99992H52.1151ZM53.0778 2.95634H54.0952V1.13564H53.3951C53.3841 1.61302 53.3404 2.00158 53.2747 2.30133C53.2091 2.60108 53.1434 2.82312 53.0778 2.95634ZM56.3596 2.04599C56.3596 1.81285 56.3924 1.60192 56.4471 1.41318C56.5018 1.22445 56.5894 1.06902 56.7097 0.935801C56.8191 0.802579 56.9613 0.713761 57.1254 0.64715C57.2895 0.580539 57.4754 0.547229 57.6833 0.547229C57.9021 0.547229 58.099 0.580541 58.2631 0.658254C58.4272 0.735967 58.5584 0.835883 58.6788 0.969106C58.7882 1.10233 58.8757 1.25776 58.9304 1.44649C58.9851 1.63522 59.0179 1.83505 59.0179 2.05709C59.0179 2.29023 58.9851 2.50116 58.9304 2.68989C58.8648 2.87863 58.7772 3.03406 58.6678 3.15618C58.5584 3.2894 58.4162 3.37821 58.2521 3.44482C58.0881 3.51143 57.9021 3.54474 57.7052 3.54474C57.4864 3.54474 57.2895 3.51144 57.1254 3.43373C56.9613 3.36711 56.8191 3.25609 56.7097 3.12287C56.6003 2.98964 56.5128 2.83423 56.4581 2.64549C56.3924 2.46786 56.3596 2.26803 56.3596 2.04599ZM56.9941 2.04599C56.9941 2.19031 57.0051 2.32354 57.0379 2.43455C57.0597 2.55668 57.1035 2.65659 57.1582 2.7343C57.2129 2.82312 57.2785 2.88973 57.3661 2.93414C57.4536 2.97854 57.552 3.00075 57.6724 3.00075C57.8911 3.00075 58.0552 2.92303 58.1756 2.77871C58.2959 2.63439 58.3506 2.37904 58.3506 2.03489C58.3506 1.90166 58.3397 1.76844 58.3178 1.64632C58.2959 1.5242 58.2521 1.42429 58.1974 1.33547C58.1427 1.24665 58.0662 1.18004 57.9787 1.13564C57.8911 1.09123 57.7927 1.05792 57.6614 1.05792C57.4536 1.05792 57.2785 1.13564 57.1691 1.29106C57.0598 1.46869 56.9941 1.71293 56.9941 2.04599ZM60.1337 3.48923L60.9432 2.22362L61.1839 2.05709L60.9542 1.90166L60.1994 0.591637H60.9104L61.5449 1.82395H61.7199V0.591637H62.2888V1.86836L62.4529 1.81285L63.0983 0.591637H63.7875L63.0655 1.85725L62.8576 2.00158L63.1092 2.17921L63.9297 3.47813H63.1967L62.4857 2.23472H62.3107V3.47813H61.7418V2.19031L61.5886 2.24582L60.8776 3.47813H60.1337V3.48923ZM65.2534 3.48923V0.591637H67.0912V1.12453H65.855V1.75734H66.9708V2.29022H65.855V2.94524H67.113V3.47813H65.2534V3.48923ZM68.5789 2.04599C68.5789 1.76844 68.6227 1.5242 68.7102 1.33547C68.7977 1.14674 68.9071 0.991305 69.0384 0.869184C69.1697 0.747064 69.3228 0.669355 69.4869 0.613846C69.651 0.558336 69.8151 0.536133 69.9792 0.536133C70.1542 0.536133 70.3073 0.547233 70.4277 0.569437C70.548 0.591641 70.6465 0.613844 70.723 0.64715L70.6027 1.15784C70.5371 1.12453 70.4605 1.10233 70.362 1.09123C70.2745 1.08013 70.1542 1.06902 70.0229 1.06902C69.9026 1.06902 69.7932 1.09123 69.6947 1.12453C69.5963 1.16894 69.5088 1.22444 69.4431 1.30216C69.3775 1.37987 69.3228 1.47979 69.279 1.60191C69.2353 1.72403 69.2243 1.86836 69.2243 2.02378C69.2243 2.16811 69.2462 2.30133 69.279 2.41235C69.3119 2.53447 69.3666 2.63439 69.4431 2.7121C69.5088 2.80092 69.6072 2.86753 69.7166 2.91194C69.826 2.95634 69.9573 2.97854 70.0995 2.97854C70.2308 2.97854 70.3402 2.96744 70.4386 2.94524C70.5261 2.92304 70.6136 2.88973 70.6793 2.84532L70.7996 3.3338C70.7121 3.40042 70.5918 3.44483 70.4496 3.46703C70.3073 3.50034 70.1542 3.51144 70.001 3.51144C69.8151 3.51144 69.64 3.48924 69.476 3.43373C69.3119 3.37822 69.1587 3.2894 69.0384 3.16727C68.9071 3.04515 68.8087 2.88973 68.7321 2.701C68.6227 2.54557 68.5789 2.31244 68.5789 2.04599ZM71.9701 1.13564V0.602741H74.3768V1.13564H73.4688V3.48923H72.8672V1.13564H71.9701ZM75.8099 3.47813V0.624941C75.8646 0.61384 75.9302 0.613843 76.0068 0.602741C76.0833 0.59164 76.1599 0.591643 76.2365 0.580541C76.324 0.569439 76.4006 0.569437 76.4881 0.569437C76.5756 0.569437 76.6631 0.569437 76.7506 0.569437C76.8929 0.569437 77.0351 0.580538 77.1663 0.602741C77.2976 0.624945 77.4289 0.658249 77.5383 0.713759C77.6477 0.769268 77.7352 0.835884 77.8008 0.935801C77.8665 1.02462 77.8993 1.14674 77.8993 1.29106C77.8993 1.36877 77.8883 1.43538 77.8665 1.5131C77.8446 1.57971 77.8118 1.64632 77.768 1.71293C77.7242 1.77954 77.6696 1.82395 77.593 1.86836C77.5164 1.91276 77.4398 1.94607 77.3304 1.96828V1.99048C77.418 2.00158 77.5055 2.02378 77.582 2.05709C77.6586 2.09039 77.7352 2.1348 77.7899 2.20142C77.8446 2.25693 77.8993 2.33463 77.9321 2.41235C77.9649 2.50116 77.9868 2.60108 77.9868 2.7121C77.9868 2.86753 77.954 2.98965 77.8774 3.10067C77.8118 3.21168 77.7133 3.3005 77.6039 3.36711C77.4945 3.43372 77.3632 3.48923 77.221 3.52253C77.0788 3.55584 76.9257 3.56694 76.7835 3.56694C76.7288 3.56694 76.6741 3.56694 76.5866 3.56694C76.51 3.56694 76.4225 3.56695 76.3349 3.55585C76.2474 3.55585 76.149 3.54474 76.0615 3.53364C75.9739 3.50033 75.8864 3.48924 75.8099 3.47813ZM76.3896 3.02295C76.4006 3.03406 76.4334 3.03406 76.4662 3.03406C76.499 3.03406 76.5319 3.03405 76.5647 3.04515C76.6084 3.04515 76.6412 3.04515 76.685 3.04515C76.7288 3.04515 76.7616 3.04515 76.7944 3.04515C76.871 3.04515 76.9476 3.03406 77.0132 3.02295C77.0788 3.01185 77.1445 2.98965 77.1992 2.95634C77.2539 2.92304 77.2976 2.87863 77.3304 2.83422C77.3633 2.78982 77.3742 2.7232 77.3742 2.65659C77.3742 2.56777 77.3523 2.49007 77.3195 2.44566C77.2757 2.39015 77.232 2.35684 77.1663 2.32354C77.1007 2.30133 77.0351 2.27913 76.9585 2.27913C76.8819 2.26803 76.8053 2.26802 76.7288 2.26802H76.3896V3.02295ZM76.3896 1.80175H76.5975C76.6412 1.80175 76.685 1.80175 76.7397 1.80175C76.7944 1.80175 76.8382 1.80174 76.8819 1.79064C76.9913 1.75734 77.0898 1.70183 77.1663 1.64632C77.2429 1.57971 77.2867 1.50199 77.2867 1.39097C77.2867 1.31326 77.2757 1.25776 77.2429 1.21335C77.2101 1.16894 77.1773 1.13563 77.1226 1.10232C77.0679 1.08012 77.0132 1.05792 76.9585 1.05792C76.8929 1.04682 76.8272 1.04682 76.7616 1.04682C76.685 1.04682 76.6084 1.04682 76.5428 1.04682C76.4772 1.04682 76.4225 1.05792 76.3896 1.05792V1.80175ZM79.5402 3.48923V0.591637H81.378V1.12453H80.1419V1.75734H81.2577V2.29022H80.1419V2.94524H81.3999V3.47813H79.5402V3.48923ZM82.9752 3.48923V0.591637H83.5768V1.75734H84.7145V0.591637H85.3162V3.48923H84.7145V2.29022H83.5768V3.48923H82.9752ZM86.968 3.48923V0.591637H87.5697V1.75734H88.7074V0.591637H89.3091V3.48923H88.7074V2.29022H87.5697V3.48923H86.968ZM90.6984 3.48923L91.8142 0.580541H92.2627L93.3895 3.48923H92.744L92.5034 2.87863H91.5407L91.3 3.48923H90.6984ZM91.7048 2.39015H92.3502L92.1314 1.79064L92.033 1.33547H92.0111L91.9126 1.80175L91.7048 2.39015ZM94.5162 3.48923L95.1507 2.54557L95.4132 2.35684C95.3148 2.33464 95.2273 2.30133 95.1507 2.25692C95.0632 2.21251 94.9975 2.15701 94.9319 2.07929C94.8663 2.00158 94.8225 1.92386 94.7897 1.82395C94.7569 1.72403 94.735 1.61302 94.735 1.4909C94.735 1.31327 94.7678 1.16894 94.8335 1.04682C94.8991 0.924698 94.9866 0.83588 95.1069 0.758167C95.2273 0.680454 95.3585 0.636047 95.5226 0.602741C95.6867 0.569436 95.8508 0.558333 96.0368 0.558333C96.0805 0.558333 96.1462 0.558333 96.2118 0.558333C96.2774 0.558333 96.3431 0.569437 96.4197 0.569437C96.4853 0.569437 96.5619 0.580535 96.6275 0.591637C96.6932 0.602739 96.7588 0.61384 96.8135 0.624941V3.48923H96.2118V2.35684L95.8946 2.43455L95.2382 3.48923H94.5162ZM95.3695 1.5242C95.3695 1.60191 95.3804 1.67962 95.4132 1.73513C95.4461 1.79064 95.4898 1.83505 95.5336 1.86836C95.5883 1.90166 95.6539 1.92386 95.7195 1.94607C95.7961 1.95717 95.8727 1.96828 95.9493 1.96828H96.179V1.11343C96.1462 1.11343 96.1134 1.10232 96.0805 1.10232C96.0477 1.10232 96.004 1.10232 95.9493 1.10232C95.8727 1.10232 95.7961 1.11343 95.7195 1.12453C95.643 1.13563 95.5883 1.15783 95.5336 1.19114C95.4789 1.22445 95.4351 1.26886 95.4023 1.32437C95.3804 1.36877 95.3695 1.43539 95.3695 1.5242ZM100.686 3.48923V0.591637H102.48V1.12453H101.288V3.47813H100.686V3.48923ZM103.837 3.48923V0.591637H104.438V2.1459L104.394 2.53447H104.427L104.646 2.1459L105.806 0.591637H106.254V3.48923H105.653V1.89056L105.685 1.5242H105.663L105.456 1.90166L104.285 3.48923H103.837ZM107.906 3.48923V0.591637H108.453L109.273 1.92387L109.427 2.24582H109.448L109.58 1.92387L110.367 0.591637H110.903V3.48923H110.302V2.03489L110.367 1.43538H110.346L110.149 1.89056L109.492 2.96744H109.306L108.606 1.87946L108.42 1.43538H108.398L108.486 2.02378V3.47813H107.906V3.48923ZM112.555 3.48923V0.591637H113.157V1.75734H114.295V0.591637H114.896V3.48923H114.295V2.29022H113.157V3.48923H112.555ZM116.297 3.48923L117.412 0.580541H117.861L118.988 3.48923H118.342L118.102 2.87863H117.139L116.909 3.48923H116.297ZM117.292 2.39015H117.937L117.719 1.79064L117.62 1.33547H117.598L117.5 1.80175L117.292 2.39015ZM120.125 2.04599C120.125 1.76844 120.169 1.5242 120.257 1.33547C120.344 1.14674 120.453 0.991305 120.585 0.869184C120.716 0.747064 120.869 0.669355 121.033 0.613846C121.197 0.558336 121.361 0.536133 121.526 0.536133C121.701 0.536133 121.854 0.547233 121.974 0.569437C122.094 0.591641 122.193 0.613844 122.269 0.64715L122.149 1.15784C122.083 1.12453 122.007 1.10233 121.908 1.09123C121.821 1.08013 121.701 1.06902 121.569 1.06902C121.449 1.06902 121.34 1.09123 121.241 1.12453C121.143 1.16894 121.055 1.22444 120.99 1.30216C120.924 1.37987 120.869 1.47979 120.825 1.60191C120.782 1.72403 120.771 1.86836 120.771 2.02378C120.771 2.16811 120.793 2.30133 120.825 2.41235C120.858 2.53447 120.913 2.63439 120.99 2.7121C121.055 2.80092 121.154 2.86753 121.263 2.91194C121.372 2.95634 121.504 2.97854 121.646 2.97854C121.777 2.97854 121.887 2.96744 121.985 2.94524C122.073 2.92304 122.16 2.88973 122.226 2.84532L122.346 3.3338C122.258 3.40042 122.138 3.44483 121.996 3.46703C121.854 3.50034 121.701 3.51144 121.547 3.51144C121.361 3.51144 121.186 3.48924 121.022 3.43373C120.858 3.37822 120.705 3.2894 120.585 3.16727C120.453 3.04515 120.355 2.88973 120.278 2.701C120.158 2.54557 120.125 2.31244 120.125 2.04599ZM123.506 1.13564V0.602741H125.912V1.13564H125.004V3.48923H124.403V1.13564H123.506ZM127.356 3.48923V0.591637H127.958V2.1459L127.914 2.53447H127.936L128.155 2.1459L129.314 0.591637H129.763V3.48923H129.161V1.89056L129.194 1.5242H129.172L128.964 1.90166L127.794 3.48923H127.356ZM131.415 3.48923V0.591637H132.016V1.86836L132.159 1.80175L133.012 0.591637H133.701L132.793 1.80175L132.563 1.95717L132.804 2.1237L133.843 3.47813H133.099L132.181 2.25692H132.016V3.47813H131.415V3.48923ZM134.926 3.48923L136.042 0.580541H136.491L137.606 3.48923H136.961L136.72 2.87863H135.758L135.528 3.48923H134.926ZM135.933 2.39015H136.578L136.359 1.79064L136.261 1.33547H136.239L136.152 1.79064L135.933 2.39015ZM38.2221 2.68989C38.2221 2.58998 38.244 2.49007 38.2768 2.40125C38.3096 2.31244 38.3643 2.22361 38.43 2.1348C38.4956 2.05709 38.5722 1.97937 38.6597 1.90166C38.7472 1.83505 38.8566 1.76844 38.966 1.71293C38.8894 1.62412 38.8347 1.5353 38.78 1.44649C38.7363 1.35767 38.7035 1.25775 38.7035 1.15784C38.7035 1.08012 38.7144 1.01351 38.7472 0.935801C38.7691 0.858088 38.8238 0.791477 38.8785 0.735967C38.9441 0.680458 39.0207 0.624943 39.1192 0.591637C39.2176 0.558332 39.3379 0.536133 39.4802 0.536133C39.6224 0.536133 39.7427 0.547236 39.8412 0.580541C39.9396 0.613847 40.0271 0.658249 40.0818 0.713759C40.1475 0.769268 40.1912 0.824782 40.2131 0.891393C40.235 0.958004 40.2568 1.03571 40.2568 1.10232C40.2568 1.21334 40.2131 1.32437 40.1256 1.44649C40.0381 1.57971 39.8849 1.69073 39.6661 1.80175C39.7208 1.87946 39.7755 1.94607 39.8193 2.01268C39.874 2.07929 39.9177 2.1348 39.9724 2.20142C40.0271 2.25693 40.0818 2.32353 40.1365 2.37904C40.1912 2.43455 40.2459 2.49006 40.3115 2.54557C40.3772 2.47896 40.4428 2.39014 40.4975 2.29022C40.5522 2.19031 40.6069 2.0793 40.6397 1.96828L41.0554 2.20142C41.0335 2.24582 41.0117 2.30133 40.9788 2.35684C40.946 2.41235 40.9132 2.46786 40.8804 2.52337C40.8476 2.57888 40.8148 2.63438 40.771 2.68989C40.7382 2.7454 40.6944 2.78981 40.6725 2.82312C40.7601 2.90083 40.8366 2.95635 40.9132 3.00075C40.9788 3.04516 41.0554 3.08956 41.1211 3.12287L40.8148 3.54474C40.7382 3.51144 40.6616 3.46702 40.5741 3.40041C40.4866 3.3449 40.3991 3.2783 40.3225 3.20059C40.2131 3.2894 40.0818 3.36711 39.9177 3.44482C39.7536 3.51143 39.5567 3.54474 39.327 3.54474C39.1739 3.54474 39.0316 3.52254 38.9004 3.48923C38.7691 3.44482 38.6488 3.38931 38.5503 3.3227C38.4518 3.24499 38.3753 3.15617 38.3096 3.05626C38.244 2.94524 38.2221 2.82312 38.2221 2.68989ZM38.791 2.64549C38.791 2.77872 38.8457 2.87863 38.9551 2.95634C39.0645 3.03406 39.2176 3.06736 39.4036 3.06736C39.5239 3.06736 39.6333 3.04515 39.7427 3.01185C39.8521 2.96744 39.9287 2.92304 39.9834 2.87863C39.8302 2.73431 39.688 2.58998 39.5677 2.45675C39.4364 2.31243 39.327 2.19031 39.2395 2.05709C39.0973 2.157 38.9879 2.25692 38.9113 2.34574C38.8238 2.43455 38.791 2.53447 38.791 2.64549ZM39.2832 1.19114C39.2832 1.30216 39.3379 1.42428 39.4473 1.5464C39.5567 1.47979 39.6442 1.42428 39.6989 1.36877C39.7536 1.31326 39.7755 1.25775 39.7755 1.20224C39.7755 1.13563 39.7536 1.08012 39.7208 1.04682C39.6771 1.01351 39.6114 0.991306 39.5239 0.991306C39.4473 0.991306 39.3817 1.01351 39.3489 1.04682C39.3051 1.09123 39.2832 1.13563 39.2832 1.19114Z" fill="black"/>
</svg>
