<svg width="235" height="25" viewBox="0 0 235 25" fill="none" xmlns="http://www.w3.org/2000/svg">
<path d="M96.694 6.26681H91.5039V3.84375H105.225L104.409 6.26681H99.5474V21.7806H96.694V6.26681Z" fill="black"/>
<path d="M116.324 14.8412L114.856 10.7535C114.366 9.28562 114.095 8.46958 113.904 7.8723H113.852C113.686 8.49938 113.417 9.3151 112.874 10.7535L111.403 14.8412H116.324H116.324ZM112.738 3.76074H114.936L122.029 21.7817H118.964L117.191 17.1806H110.564L108.852 21.7817H105.867L112.738 3.76074H112.738Z" fill="black"/>
<path d="M128.237 6.26681H123.051V3.84375H136.77L135.954 6.26681H131.09V21.7806H128.237V6.26681Z" fill="black"/>
<path d="M147.324 14.8412L145.856 10.7535C145.367 9.28562 145.096 8.46958 144.904 7.8723H144.851C144.688 8.49938 144.416 9.3151 143.868 10.7535L142.405 14.8412H147.324ZM143.734 3.76074H145.935L153.028 21.7817H149.955L148.196 17.1806H141.566L139.85 21.7817H136.859L143.734 3.76074Z" fill="black"/>
<path d="M159.189 12.2273C160.083 12.2273 160.735 12.0624 161.336 11.7378C162.149 11.2473 162.692 10.3755 162.692 9.17838C162.692 8.17245 162.313 7.2984 161.522 6.81049C161.031 6.4291 160.328 6.18245 159.213 6.18245H157.667V12.2273H159.189H159.189ZM154.809 3.84277H159.29C161.031 3.84277 162.257 4.143 163.181 4.65944C164.945 5.55854 165.65 7.13576 165.65 8.88037C165.65 11.3031 164.27 12.8794 162.119 13.5575V13.6133C162.669 13.9126 163.369 14.8944 164.321 16.5005L167.395 21.7806H164.103L161.358 17.0173C160.493 15.4651 159.833 14.7048 159.345 14.5967H157.667V21.7809H154.809V3.84309V3.84277Z" fill="black"/>
<path d="M172.295 18.3791C173.275 19.0337 174.63 19.6297 176.261 19.6297C177.922 19.6297 179.466 19.003 179.466 17.2593C179.466 13.4778 171.67 13.9422 171.67 8.52641C171.67 5.88397 173.736 3.67871 177.321 3.67871C179.087 3.67871 180.609 4.08704 181.532 4.57781V7.16191C180.203 6.48125 178.811 6.10113 177.404 6.10113C176.044 6.10113 174.716 6.64642 174.716 8.25218C174.716 11.789 182.48 11.3828 182.48 17.0168C182.48 20.1462 179.901 22.0522 176.315 22.0522C174.251 22.0522 172.402 21.4523 171.152 20.5548L172.295 18.3787L172.295 18.3791Z" fill="black"/>
<path d="M191.168 6.26681H185.975V3.84375H199.698L198.88 6.26681H194.019V21.7806H191.168V6.26681Z" fill="black"/>
<path d="M210.801 14.8412L209.329 10.7535C208.841 9.28562 208.57 8.46958 208.38 7.8723H208.324C208.162 8.49938 207.889 9.3151 207.346 10.7535L205.877 14.8412H210.801ZM207.215 3.76074H209.413L216.505 21.7817H213.435L211.665 17.1806H205.039L203.324 21.7817H200.34L207.216 3.76074H207.215Z" fill="black"/>
<path d="M231.951 21.7804L223.91 11.1608C223.01 10.0205 222.332 9.04052 221.708 8.20198H221.656C221.708 8.98758 221.733 9.91267 221.733 11.0844V21.7804H218.881V3.84473H221.678L229.421 14.0502C230.351 15.2473 231.055 16.2282 231.623 17.0953H231.678C231.651 16.1464 231.623 15.1392 231.623 14.0214V3.84473H234.477V21.7804H231.951Z" fill="black"/>
<path fill-rule="evenodd" clip-rule="evenodd" d="M70.668 25V0L82.4259 12.6019L70.668 25Z" fill="#B00000"/>
<path d="M31.3948 13.1045C31.3695 19.228 36.2891 22.2515 40.9277 22.2515C42.8239 22.2515 44.6174 21.8159 46.1296 21.0727V18.1776C44.9506 19.0745 43.2853 19.5611 41.4398 19.5611C38.0064 19.5611 34.3675 17.5112 34.3675 13.1045C34.3929 8.36494 37.9551 6.3407 41.3888 6.3407C43.0801 6.3407 44.7458 6.80198 46.0015 7.67286V4.82911C44.4639 4.06031 42.6955 3.65039 40.9014 3.65039C36.1867 3.65039 31.3945 6.72526 31.3945 13.1045H31.3948Z" fill="black"/>
<path d="M23.6914 3.9834V21.9181H26.6127V3.9834H23.6914Z" fill="black"/>
<path d="M16.2723 3.9834L9.45585 14.2574L2.63943 3.9834H0V21.9181H2.921V9.33803L8.58449 17.8696H10.3272L15.9904 9.36371V21.9181H18.912V3.9834H16.2723Z" fill="black"/>
<path d="M50.9102 3.97754H60.3952L59.5796 6.40218H53.7646V11.5745H59.5498V13.996H53.7646V19.4936H60.4748V21.9189H50.9102V3.97754Z" fill="black"/>
</svg>
