<svg width="172" height="18" viewBox="0 0 172 18" fill="none" xmlns="http://www.w3.org/2000/svg">
<path fill-rule="evenodd" clip-rule="evenodd" d="M10.3158 8.37139L16.3872 16.6312H12.6022L7.32939 9.41497H3.32557V16.6201H0V0.344727H3.32557V7.67197H7.1106L12.3834 0.344727H16.0481L10.3158 8.37139ZM23.7166 15.5765C24.2089 15.5765 24.6683 15.4877 25.095 15.299C25.5216 15.1102 25.8935 14.8216 26.2217 14.4219C26.539 14.0223 26.8015 13.5116 26.9875 12.8788C27.1734 12.246 27.2719 11.4799 27.2719 10.5807C27.2719 9.68141 27.1734 8.91538 26.9875 8.28257C26.8015 7.64976 26.539 7.12797 26.2217 6.73941C25.9045 6.33974 25.5216 6.05109 25.095 5.86236C24.6683 5.67363 24.2089 5.58481 23.7166 5.58481C23.2243 5.58481 22.7649 5.67363 22.3382 5.86236C21.9116 6.05109 21.5397 6.33974 21.2115 6.73941C20.8942 7.13908 20.6317 7.64976 20.4457 8.28257C20.2597 8.91538 20.1613 9.68141 20.1613 10.5807C20.1613 11.4799 20.2597 12.246 20.4457 12.8788C20.6317 13.5116 20.8942 14.0334 21.2115 14.4219C21.5287 14.8216 21.9116 15.1102 22.3382 15.299C22.7758 15.4877 23.2353 15.5765 23.7166 15.5765ZM23.7166 4.06386C24.7449 4.06386 25.6857 4.20818 26.5499 4.49683C27.4141 4.78548 28.1471 5.20735 28.7597 5.75134C29.3723 6.30643 29.8536 6.98365 30.1927 7.79409C30.5318 8.60453 30.7069 9.53709 30.7069 10.5696C30.7069 11.6242 30.5318 12.5568 30.1927 13.3561C29.8536 14.1666 29.3723 14.8438 28.7597 15.3878C28.1471 15.9429 27.4141 16.3536 26.5499 16.6423C25.6857 16.9309 24.7449 17.0753 23.7166 17.0753C22.6774 17.0753 21.7256 16.9309 20.8724 16.6423C20.0191 16.3536 19.2861 15.9318 18.6735 15.3878C18.0609 14.8327 17.5796 14.1555 17.2405 13.3561C16.9014 12.5457 16.7263 11.6242 16.7263 10.5696C16.7263 9.52599 16.9014 8.60453 17.2405 7.79409C17.5796 6.98365 18.0609 6.29533 18.6735 5.75134C19.2861 5.19625 20.0191 4.78548 20.8724 4.49683C21.7366 4.20818 22.6774 4.06386 23.7166 4.06386ZM42.4011 6.16211H39.6553C38.616 6.16211 37.8175 6.43966 37.2705 7.00586C36.7235 7.57206 36.45 8.41579 36.45 9.52598V16.6201H33.2448V9.52598C33.2448 7.94952 33.7371 6.71721 34.7216 5.84016C35.7062 4.96311 37.1283 4.53013 38.977 4.53013H42.412V6.16211H42.4011ZM49.9602 15.5765C50.4525 15.5765 50.9119 15.4877 51.3386 15.299C51.7652 15.1102 52.1371 14.8216 52.4653 14.4219C52.7826 14.0223 53.0451 13.5116 53.2311 12.8788C53.417 12.246 53.5155 11.4799 53.5155 10.5807C53.5155 9.68141 53.417 8.91538 53.2311 8.28257C53.0451 7.64976 52.7826 7.12797 52.4653 6.73941C52.1481 6.33974 51.7652 6.05109 51.3386 5.86236C50.9119 5.67363 50.4525 5.58481 49.9602 5.58481C49.4679 5.58481 49.0085 5.67363 48.5818 5.86236C48.1552 6.05109 47.7833 6.33974 47.4551 6.73941C47.1378 7.13908 46.8753 7.64976 46.6893 8.28257C46.5033 8.91538 46.4049 9.68141 46.4049 10.5807C46.4049 11.4799 46.5033 12.246 46.6893 12.8788C46.8753 13.5116 47.1378 14.0334 47.4551 14.4219C47.7723 14.8216 48.1552 15.1102 48.5818 15.299C49.0085 15.4877 49.4679 15.5765 49.9602 15.5765ZM49.9602 4.06386C50.9885 4.06386 51.9293 4.20818 52.7935 4.49683C53.6577 4.78548 54.3906 5.20735 55.0032 5.75134C55.6159 6.30643 56.0862 6.98365 56.4363 7.79409C56.7754 8.60453 56.9505 9.53709 56.9505 10.5696C56.9505 11.6242 56.7754 12.5568 56.4363 13.3561C56.0972 14.1666 55.6159 14.8438 55.0032 15.3878C54.3906 15.9429 53.6577 16.3536 52.7935 16.6423C51.9293 16.9309 50.9885 17.0753 49.9602 17.0753C48.9209 17.0753 47.9692 16.9309 47.116 16.6423C46.2627 16.3536 45.5297 15.9318 44.9171 15.3878C44.3045 14.8327 43.8232 14.1555 43.4841 13.3561C43.145 12.5457 42.9699 11.6242 42.9699 10.5696C42.9699 9.52599 43.145 8.60453 43.4841 7.79409C43.8232 6.98365 44.3045 6.29533 44.9171 5.75134C45.5297 5.19625 46.2627 4.78548 47.116 4.49683C47.9692 4.20818 48.9209 4.06386 49.9602 4.06386ZM62.7921 16.6201H59.5869V0.344727H62.7921V16.6201ZM72.8782 15.4655C73.6221 15.4655 74.3222 15.3323 74.9786 15.0658C75.624 14.7994 76.2694 14.433 76.893 13.9445L77.8119 15.3434C77.5165 15.6098 77.1774 15.843 76.7945 16.065C76.4007 16.287 75.985 16.4647 75.5365 16.609C75.088 16.7533 74.6176 16.8754 74.1253 16.9531C73.633 17.042 73.1517 17.0864 72.6594 17.0864C71.5764 17.0864 70.5809 16.942 69.6948 16.6534C68.7978 16.3647 68.043 15.9429 67.4195 15.3989C66.7959 14.8438 66.3036 14.1666 65.9645 13.3672C65.6254 12.5568 65.4504 11.6353 65.4504 10.5807C65.4504 9.53708 65.6145 8.61563 65.9426 7.80519C66.2708 6.99475 66.7303 6.30644 67.321 5.76244C67.9117 5.20735 68.6118 4.79658 69.4214 4.50793C70.2309 4.21929 71.1279 4.07496 72.1015 4.07496C73.0204 4.07496 73.8846 4.21928 74.6941 4.49683C75.5037 4.77438 76.2038 5.18515 76.8055 5.71804C77.3962 6.25093 77.8775 6.89484 78.2276 7.66087C78.5776 8.41579 78.7527 9.28174 78.7527 10.2476V11.8796H68.9619C69.1479 13.1674 69.5855 14.0889 70.2746 14.644C70.9529 15.1768 71.828 15.4655 72.8782 15.4655ZM72.0796 5.57371C71.6311 5.57371 71.2264 5.66252 70.8435 5.82905C70.4606 5.99558 70.1324 6.27313 69.848 6.63949C69.5636 7.01696 69.3339 7.49433 69.1588 8.08273C68.9838 8.67113 68.8853 9.38166 68.8744 10.2254H75.2958C75.2958 9.41496 75.2083 8.72665 75.0223 8.12714C74.8364 7.53874 74.5957 7.05026 74.3003 6.6728C74.005 6.29533 73.6549 6.01779 73.272 5.84016C72.8673 5.66253 72.4735 5.57371 72.0796 5.57371ZM89.1451 16.6201H84.102L79.5184 4.53013H82.7237L86.5087 14.644H86.7384L90.5234 4.53013H93.7287L89.1451 16.6201ZM97.5137 12.7899C97.5137 14.2665 98.3889 14.9992 100.15 14.9992H103.355V10.5807H100.15C98.3889 10.5807 97.5137 11.3134 97.5137 12.7899ZM103.355 8.94869C103.355 7.8274 103.071 7.00586 102.491 6.48407C101.922 5.96228 101.178 5.69584 100.26 5.69584C99.5703 5.69584 98.903 5.79575 98.2467 6.00669C97.5903 6.21762 96.9996 6.49517 96.4854 6.85043L95.6868 5.45159C96.026 5.21845 96.3979 5.01862 96.8027 4.85209C97.2074 4.68556 97.6231 4.54124 98.0497 4.41912C98.4764 4.3081 98.903 4.20818 99.3187 4.15267C99.7344 4.08606 100.128 4.06386 100.5 4.06386C101.474 4.06386 102.338 4.17487 103.093 4.40801C103.837 4.64115 104.471 4.97421 104.996 5.40718C105.521 5.84016 105.904 6.36195 106.178 6.95035C106.44 7.54985 106.582 8.20486 106.582 8.93758V16.609H100.161C98.0826 16.609 96.5511 16.287 95.5665 15.6542C94.582 15.0214 94.0897 14.0556 94.0897 12.7677C94.0897 11.4799 94.582 10.5141 95.5665 9.88124C96.5511 9.24844 98.0826 8.92648 100.161 8.92648H103.355V8.94869ZM123.987 2.08772H117.795V16.6201H114.47V2.08772H108.278V0.344727H123.976V2.08772H123.987ZM130.398 15.4655C129.347 15.4655 128.472 15.1879 127.772 14.6329C127.072 14.0778 126.634 13.1563 126.459 11.8685H136.25V10.2365C136.25 9.27064 136.075 8.41579 135.725 7.64976C135.375 6.89483 134.905 6.23982 134.303 5.70693C133.712 5.17404 133.001 4.76327 132.192 4.48573C131.382 4.20818 130.518 4.06386 129.599 4.06386C128.625 4.06386 127.728 4.20818 126.919 4.49683C126.109 4.78548 125.409 5.20735 124.818 5.75134C124.228 6.30643 123.768 6.98365 123.44 7.79409C123.112 8.60453 122.948 9.53709 122.948 10.5696C122.948 11.6242 123.123 12.5568 123.462 13.3561C123.801 14.1666 124.293 14.8438 124.917 15.3878C125.54 15.9429 126.306 16.3536 127.192 16.6423C128.089 16.9309 129.074 17.0753 130.157 17.0753C130.649 17.0753 131.13 17.0309 131.623 16.942C132.115 16.8532 132.585 16.7422 133.034 16.5979C133.482 16.4536 133.909 16.2648 134.292 16.0539C134.686 15.8319 135.025 15.5987 135.309 15.3323L134.39 13.9334C133.767 14.4108 133.121 14.7883 132.476 15.0547C131.852 15.3323 131.152 15.4655 130.398 15.4655ZM129.599 5.57371C129.993 5.57371 130.387 5.66253 130.78 5.84016C131.174 6.01779 131.513 6.29533 131.809 6.6728C132.104 7.05026 132.345 7.53874 132.531 8.12714C132.717 8.71554 132.804 9.41496 132.804 10.2254H126.383C126.394 9.39276 126.492 8.67113 126.667 8.08273C126.842 7.49433 127.072 7.01696 127.356 6.63949C127.641 6.26203 127.969 5.99558 128.352 5.82905C128.746 5.66252 129.15 5.57371 129.599 5.57371ZM141.512 12.7899C141.512 14.2665 142.387 14.9992 144.148 14.9992H147.354V10.5807H144.148C142.398 10.5807 141.512 11.3134 141.512 12.7899ZM147.354 8.94869C147.354 7.8274 147.069 7.00586 146.489 6.48407C145.921 5.96228 145.177 5.69584 144.258 5.69584C143.569 5.69584 142.901 5.79575 142.245 6.00669C141.589 6.21762 140.998 6.49517 140.484 6.85043L139.685 5.45159C140.024 5.21845 140.396 5.01862 140.801 4.85209C141.206 4.68556 141.621 4.54124 142.048 4.41912C142.475 4.3081 142.901 4.20818 143.317 4.15267C143.733 4.08606 144.126 4.06386 144.498 4.06386C145.472 4.06386 146.336 4.17487 147.091 4.40801C147.835 4.64115 148.469 4.97421 148.994 5.40718C149.52 5.84016 149.902 6.36195 150.176 6.95035C150.438 7.54985 150.581 8.20486 150.581 8.93758V16.609H144.159C142.081 16.609 140.549 16.287 139.565 15.6542C138.58 15.0214 138.088 14.0556 138.088 12.7677C138.088 11.4799 138.58 10.5141 139.565 9.88124C140.549 9.24844 142.081 8.92648 144.159 8.92648H147.354V8.94869ZM153.666 4.53013H165.579C167.766 4.53013 169.375 4.9298 170.425 5.72914C171.475 6.52848 171.989 7.71638 171.989 9.30395V16.6312H168.784V9.30395C168.784 8.18266 168.51 7.38332 167.963 6.89483C167.416 6.40635 166.618 6.16211 165.579 6.16211H164.43V16.6312H161.225V6.16211H156.871V16.6312H153.666V4.53013Z" fill="black"/>
</svg>
