<svg width="124" height="64" viewBox="0 0 124 64" fill="none" xmlns="http://www.w3.org/2000/svg">
<g clip-path="url(#clip0_3_8)">
<path fill-rule="evenodd" clip-rule="evenodd" d="M45.3042 0.416382H49.9714L50.0072 0.481194L33.2452 30.7042V60.992H28.5776L28.5664 30.6895L45.3042 0.416382Z" fill="#E0B562"/>
<path fill-rule="evenodd" clip-rule="evenodd" d="M23.7278 47.3623V60.992H19.0951L19.02 30.6895L35.7948 0.416382H40.5484L23.7278 30.7041V38.9067V47.3623Z" fill="#E0B562"/>
<path fill-rule="evenodd" clip-rule="evenodd" d="M14.2205 47.3875V55.868L13.9514 56.348L9.54585 48.2254L9.46729 30.7045L26.2879 0.416382H31.041L14.2205 30.7045V38.9067V47.3875Z" fill="#E0B562"/>
<path fill-rule="evenodd" clip-rule="evenodd" d="M4.7137 30.7042V38.9065L4.51539 39.2602L0 31.0196V30.6895L16.7808 0.416382H21.5343L4.7137 30.7042Z" fill="#E0B562"/>
<path fill-rule="evenodd" clip-rule="evenodd" d="M61.9462 30.7049L49.9795 9.03569L52.3717 4.76761L66.6958 30.7049H61.9462Z" fill="#E0B562"/>
<path fill-rule="evenodd" clip-rule="evenodd" d="M52.4393 30.7043L45.1909 17.5784L47.585 13.3068L57.193 30.7043H52.4393Z" fill="#E0B562"/>
<path fill-rule="evenodd" clip-rule="evenodd" d="M42.7968 21.8512L47.6865 30.705H42.9325L40.4023 26.123L42.7968 21.8512Z" fill="#E0B562"/>
<path fill-rule="evenodd" clip-rule="evenodd" d="M42.6734 60.9699H61.4284V63.9996H67.0258V55.0305H64.3184V34.1609H57.3623V54.6506H49.6403V34.1609H42.6733L42.6734 60.9699ZM87.0749 47.7882V60.9699C89.426 60.9699 91.7878 60.9699 94.1062 60.9699V34.0414H91.6365L78.1661 47.2996V34.1608C75.8477 34.1608 73.5289 34.1608 71.21 34.1608V61.0136H73.6368L87.0744 47.7882H87.0749ZM107.889 60.9699V50.7416C108.763 50.7416 109.594 50.7416 110.51 50.5893L116.366 60.9699H123.937V59.895L116.711 48.1028C121.996 44.6934 121.845 39.6334 121.845 34.1608C119.494 34.1608 117.164 34.1608 114.846 34.1608C114.846 39.1773 115.191 44.3024 108.375 44.3024H107.889V34.1608C105.528 34.1608 103.241 34.1608 100.966 34.1608V60.9699C103.241 60.9699 105.528 60.9699 107.889 60.9699Z" fill="#235060"/>
</g>
<defs>
<clipPath id="clip0_3_8">
<rect width="124" height="64" fill="white"/>
</clipPath>
</defs>
</svg>
