<svg width="58" height="58" viewBox="0 0 58 58" fill="none" xmlns="http://www.w3.org/2000/svg">
<circle cx="29" cy="29" r="29" fill="#039571"/>
<circle cx="29.6899" cy="29.6902" r="14.5" fill="white"/>
<path d="M28.9995 6.90454C16.7968 6.90454 6.9043 16.7969 6.9043 28.9998C6.9043 41.2027 16.7968 51.095 28.9995 51.095C41.2022 51.095 51.0948 41.2027 51.0948 28.9998C51.0948 16.7969 41.2022 6.90454 28.9995 6.90454ZM36.6362 30.171L25.5886 37.0758C25.365 37.2153 25.1109 37.2855 24.8567 37.2855C24.6264 37.2855 24.3958 37.2282 24.1871 37.1122C23.7481 36.8688 23.4757 36.4069 23.4757 35.9045V22.095C23.4757 21.5927 23.7481 21.1308 24.1871 20.8874C24.6261 20.6426 25.1628 20.6574 25.5886 20.9238L36.6362 27.8286C37.0398 28.0814 37.2852 28.5238 37.2852 28.9998C37.2852 29.4758 37.0398 29.9182 36.6362 30.171Z" fill="#039571"/>
</svg>
