<svg width="28" height="28" viewBox="0 0 28 28" fill="none" xmlns="http://www.w3.org/2000/svg">
<path d="M21.3841 0L6.30078 1.99067V6.5L21.3841 5.14014V0Z" fill="#E4003A"/>
<path d="M15.6176 9.08333C13.1585 9.08333 11.1599 10.598 10.6644 11.2251V9.40748H6.30078V28H10.637V21.387C11.1461 22.0277 13.1309 23.5151 15.6038 23.5151C19.7075 23.5151 21.9674 21.2915 21.9674 16.2886C21.9674 11.2857 19.7105 9.08333 15.6176 9.08333ZM14.0642 19.9132C11.4806 19.9132 10.6674 18.9756 10.6674 16.278C10.6674 13.5804 11.4745 12.6428 14.0642 12.6428C16.654 12.6428 17.4459 13.5668 17.4459 16.278C17.4459 18.9892 16.6661 19.9071 14.0642 19.9071V19.9132Z" fill="#00274F"/>
</svg>
