<svg width="28" height="28" viewBox="0 0 28 28" fill="none" xmlns="http://www.w3.org/2000/svg">
<path fill-rule="evenodd" clip-rule="evenodd" d="M9.93531 15.8729L12.6855 13.1787V11.3431L9.93531 14.0312V15.8729ZM9.93531 9.04092L12.6855 6.33424V4.61068L9.93531 7.29247V9.0347V9.04092ZM9.93531 11.2996L12.6855 8.60536V6.87558L9.93531 9.56359V11.2996ZM9.1513 4.62935L8.77797 4.2809V0H8.3673V3.87024L8.00641 3.51557V0H7.58952V3.11112L7.22241 2.75023V0H6.81174V4.08179L9.57442 6.77602V0H9.15753V4.62935H9.1513ZM9.93531 13.5583L12.6855 10.864V9.13425L9.93531 11.8223V13.5583ZM6.80552 13.1787L9.56819 15.8729V14.0312L6.80552 11.3431V13.1787ZM12.2749 2.75023L11.9078 3.11112V0H11.4971V3.52179L11.1238 3.87024V0H10.7131V4.27468L10.3522 4.62935V0H9.93531V6.78225L12.6855 4.08179V0H12.2749V2.75023ZM6.80552 6.33424L9.56819 9.04092V7.29869L6.80552 4.60446V6.32802V6.33424ZM6.80552 8.60536L9.56819 11.2996V9.55737L6.80552 6.8818V8.60536ZM6.80552 10.864L9.56819 13.5583V11.8223L6.80552 9.14048V10.864ZM23.2136 12.2889H16.5184C16.6646 12.0627 16.7423 11.7991 16.7424 11.5298C16.7391 10.7435 16.0789 10.0891 15.2927 10.0925C14.5111 10.0958 13.8587 10.7483 13.8553 11.5298C13.8553 11.8409 13.9549 12.1272 14.1229 12.3636C13.9976 12.447 13.9188 12.5927 13.9175 12.7432C13.9175 12.9049 14.0047 13.048 14.1229 13.1289C13.9495 13.3725 13.856 13.6638 13.8553 13.9627C13.8553 14.7456 14.5098 15.4001 15.2927 15.4001C16.0789 15.4034 16.7391 14.749 16.7424 13.9627C16.7424 13.6827 16.6616 13.4214 16.5184 13.2036H21.5025V13.5085H21.0047V13.9316H21.5025V14.3672H21.0047V15.1761H21.5025V14.8152H22.2305V15.1761H22.722V14.3672H22.2305V13.9316H22.722V13.5085H22.2305V13.1974H23.2136C23.4034 13.1974 23.562 13.0387 23.562 12.8489V12.6374C23.5587 12.4489 23.402 12.2922 23.2136 12.2889ZM16.0393 13.9689C16.0393 14.3756 15.6993 14.7156 15.2927 14.7156C14.886 14.7156 14.546 14.3756 14.546 13.9689C14.546 13.6832 14.7403 13.4433 14.882 13.2098C14.7473 13.0948 14.6682 12.9202 14.6704 12.7432C14.6704 12.5565 14.7513 12.3947 14.8758 12.2827C14.7418 12.0482 14.5477 11.8054 14.5522 11.5236C14.5522 11.1169 14.8922 10.7769 15.2989 10.7769C15.7056 10.7769 16.0456 11.1169 16.0456 11.5236C16.0456 11.8285 15.6971 12.5503 15.6971 12.5503V12.936C15.6909 12.9423 16.0393 13.664 16.0393 13.9689ZM4.30418 11.4116V13.2098C4.30418 14.9209 5.05085 16.0285 5.4864 16.4516L8.33619 19.2516C9.13264 20.0294 9.26953 20.2845 9.44997 20.7263V18.7352C9.44997 17.1147 8.69649 16.4046 8.21157 15.9477C7.36444 15.1494 6.53338 14.3315 5.7104 13.5085C5.08782 12.926 4.6068 12.2087 4.30418 11.4116ZM5.7104 17.9512C5.13146 17.4265 4.65651 16.7974 4.3104 16.0969V17.6463C4.2918 18.8401 4.71002 19.9996 5.4864 20.9067L8.33619 23.6881C9.10476 24.4386 9.25914 24.8126 9.43115 25.2292L9.44997 25.2748V23.1779C9.44997 21.5544 8.69385 20.8436 8.21274 20.3913L8.21246 20.391L8.21171 20.3903C7.3662 19.5952 6.53162 18.7724 5.7104 17.9512ZM13.7626 3.32258C13.5653 3.32258 13.3681 3.3227 13.1709 3.33503V4.16881C17.9205 3.80456 22.5184 6.50828 24.509 10.8359C25.1613 12.254 25.5184 13.7899 25.5585 15.3503C25.639 18.4809 24.4069 21.5684 22.1932 23.7834C19.9795 25.9985 16.8926 27.2324 13.762 27.1538C10.7102 27.1571 7.78189 25.9483 5.62098 23.7932C3.46006 21.6382 2.24339 18.7132 2.23844 15.6613C2.23844 12.1333 3.82511 8.98482 6.33268 6.86926V5.79903C4.79987 6.94592 3.55574 8.43455 2.69917 10.1466C1.84261 11.8587 1.39723 13.7469 1.39844 15.6613C1.39844 22.4746 6.93624 28 13.7683 28C17.0429 28.0016 20.1842 26.7028 22.5015 24.389C24.8187 22.0753 26.1223 18.9359 26.1256 15.6613C26.1256 8.84811 20.5881 3.32286 13.7626 3.32258ZM23.0518 21.2986C22.8838 21.5786 22.6972 21.8524 22.5105 22.1075V19.6435H23.0518V21.2986ZM24.143 18.8741C24.1257 18.9309 24.1084 18.9882 24.091 19.0462C23.7923 18.7413 23.2572 18.7475 22.7781 18.76H22.5105V18.3244H24.3025C24.2548 18.5058 24.1997 18.6872 24.143 18.8741ZM11.6651 18.256H12.1505V18.2622V23.1778H11.6651V18.256ZM10.5451 17.3159H12.1504C12.5673 17.3159 12.8598 17.403 13.0215 17.5648C13.1895 17.7204 13.2704 18.0128 13.2704 18.4235V23.0279C13.2704 23.4386 13.1958 23.7248 13.0215 23.8866C12.7726 24.1417 12.2998 24.1417 11.914 24.1417L11.6651 24.1355V26.3133L12.1504 26.4004V24.6084C12.8971 24.6084 13.3762 24.3595 13.6064 23.8493V26.5186H13.7682L14.0793 26.5124V18.5044C14.0793 18.0813 14.1602 17.7826 14.3282 17.6146C14.4838 17.4466 14.7762 17.3657 15.1807 17.3657C15.2379 17.3657 15.2987 17.3645 15.362 17.3633C15.7594 17.3556 16.2509 17.3462 16.5247 17.6146C16.6864 17.7826 16.7611 18.0875 16.7611 18.5044V20.8688H15.6598V18.3426H15.1807V26.4253C15.3424 26.4066 15.4918 26.3817 15.6598 26.3506V21.3417H16.7611V26.0955C16.9851 26.0333 17.2091 25.9648 17.4331 25.8839V21.5284C17.4331 21.0306 17.5513 20.6573 18.0553 20.4893L17.4953 17.459H18.6153L18.802 20.763H18.9389L19.1256 17.459H20.2953L19.6669 20.4893C20.1896 20.6759 20.2953 20.9933 20.2953 21.5222V24.3408C20.6218 24.0961 20.9334 23.8322 21.2287 23.5506V17.4341H24.4953L24.5576 16.9861H16.9104L17.0162 17.5399C16.7798 17.0919 16.3193 16.8679 15.6473 16.8679H15.1682C14.3593 16.8679 13.8615 17.1915 13.6749 17.8324C13.5069 17.1604 12.9904 16.8244 12.1442 16.8244H10.0535V25.8591C10.2153 25.9151 10.3771 25.9711 10.5389 26.0146V17.3221L10.5451 17.3159ZM20.6811 20.7879L20.1522 20.2902L20.6811 17.571V20.7879ZM18.6943 25.3358C18.6658 25.3505 18.6374 25.3652 18.6091 25.3799V25.3736V21.3914H19.1069V25.1123C18.9775 25.1899 18.8352 25.2632 18.6943 25.3358Z" fill="#42AB44"/>
</svg>
