<svg width="28" height="28" viewBox="0 0 28 28" fill="none" xmlns="http://www.w3.org/2000/svg">
<path d="M24.746 5.43914C25.4022 6.29898 25.9578 7.23312 26.4014 8.22282L13.8177 17.6238L8.55859 14.2828V10.2633L13.8177 13.6044L24.746 5.43914Z" fill="#21A038"/>
<path d="M3.19149 13.9996C3.19149 13.8193 3.19583 13.6401 3.20451 13.462L0.0173578 13.3037C0.00650975 13.5345 3.85152e-06 13.7676 3.85152e-06 14.0029C-0.00135219 15.8409 0.355382 17.6611 1.04975 19.359C1.74411 21.057 2.76244 22.5993 4.04631 23.8975L6.30704 21.6074C5.31876 20.6099 4.53475 19.4242 4.00008 18.1186C3.46541 16.813 3.19061 15.4132 3.19149 13.9996Z" fill="url(#paint0_linear_345_30533)"/>
<path d="M13.8156 3.23422C13.9934 3.23422 14.1702 3.24082 14.3459 3.24961L14.5054 0.0184767C14.2769 0.00748273 14.0469 0.0019864 13.8156 0.0019864C12.001 -0.000256111 10.2041 0.360757 8.52769 1.0643C6.85129 1.76784 5.32855 2.80005 4.04688 4.10166L6.3076 6.3928C7.29193 5.3909 8.46198 4.59605 9.75047 4.05399C11.039 3.51193 12.4204 3.23333 13.8156 3.23422Z" fill="url(#paint1_linear_345_30533)"/>
<path d="M13.816 24.7659C13.6381 24.7659 13.4612 24.7659 13.2845 24.7516L13.125 27.9817C13.3542 27.9934 13.5846 27.9993 13.816 27.9993C15.6297 28.0012 17.4258 27.6399 19.1013 26.9362C20.7768 26.2325 22.2986 25.2001 23.5793 23.8985L21.3229 21.6085C20.3384 22.6099 19.1684 23.4042 17.8802 23.9461C16.592 24.488 15.2108 24.7666 13.816 24.7659Z" fill="url(#paint2_linear_345_30533)"/>
<path d="M19.805 5.11223L22.491 3.10583C20.036 1.09113 16.9715 -0.00559257 13.8125 2.14465e-05V3.23336C15.9516 3.23067 18.0411 3.88582 19.805 5.11223Z" fill="url(#paint3_linear_345_30533)"/>
<path d="M27.6275 14.0001C27.6292 13.159 27.5566 12.3193 27.4105 11.4913L24.4371 13.7121C24.4371 13.8078 24.4371 13.9034 24.4371 14.0001C24.4379 15.5044 24.1267 16.9921 23.5239 18.3667C22.921 19.7413 22.0398 20.9722 20.9375 21.9795L23.0822 24.3818C24.5153 23.0706 25.6604 21.4689 26.4434 19.6805C27.2265 17.892 27.6299 15.9567 27.6275 14.0001Z" fill="#21A038"/>
<path d="M13.8141 24.7662C12.3297 24.7667 10.8617 24.4513 9.50514 23.8403C8.14867 23.2294 6.9339 22.3365 5.93951 21.2195L3.57031 23.392C4.86389 24.8445 6.44428 26.0053 8.20901 26.7991C9.97373 27.5928 11.8833 28.0018 13.8141 27.9995V24.7662Z" fill="url(#paint4_linear_345_30533)"/>
<path d="M6.69107 6.02005L4.5475 3.61786C3.11401 4.92876 1.96841 6.53038 1.18499 8.31885C0.401588 10.1073 -0.00213584 12.0427 8.49741e-06 13.9995H3.1915C3.19084 12.4953 3.50203 11.0076 4.10488 9.63299C4.70775 8.25843 5.58883 7.02752 6.69107 6.02005Z" fill="url(#paint5_linear_345_30533)"/>
<defs>
<linearGradient id="paint0_linear_345_30533" x1="4.69177" y1="23.494" x2="1.12108" y2="13.309" gradientUnits="userSpaceOnUse">
<stop offset="0.14" stop-color="#F1E813"/>
<stop offset="0.3" stop-color="#E6E418"/>
<stop offset="0.58" stop-color="#C9DA26"/>
<stop offset="0.89" stop-color="#A2CC39"/>
</linearGradient>
<linearGradient id="paint1_linear_345_30533" x1="4.9581" y1="4.67334" x2="13.9693" y2="1.2849" gradientUnits="userSpaceOnUse">
<stop offset="0.06" stop-color="#0FA7DF"/>
<stop offset="0.54" stop-color="#0098F8"/>
<stop offset="0.92" stop-color="#0290EA"/>
</linearGradient>
<linearGradient id="paint2_linear_345_30533" x1="12.9146" y1="26.0478" x2="23.0835" y2="23.7811" gradientUnits="userSpaceOnUse">
<stop offset="0.12" stop-color="#A2CC39"/>
<stop offset="0.28" stop-color="#86C239"/>
<stop offset="0.87" stop-color="#219F38"/>
</linearGradient>
<linearGradient id="paint3_linear_345_30533" x1="13.1487" y1="1.08293" x2="21.8513" y2="3.73289" gradientUnits="userSpaceOnUse">
<stop offset="0.06" stop-color="#0290EA"/>
<stop offset="0.79" stop-color="#0C89CA"/>
</linearGradient>
<linearGradient id="paint4_linear_345_30533" x1="4.37089" y1="22.9984" x2="13.8524" y2="26.4949" gradientUnits="userSpaceOnUse">
<stop offset="0.13" stop-color="#F1E813"/>
<stop offset="0.3" stop-color="#EAE616"/>
<stop offset="0.53" stop-color="#D8DF1F"/>
<stop offset="0.8" stop-color="#BAD52D"/>
<stop offset="0.98" stop-color="#A2CC39"/>
</linearGradient>
<linearGradient id="paint5_linear_345_30533" x1="1.18895" y1="14.3909" x2="5.07175" y2="4.42442" gradientUnits="userSpaceOnUse">
<stop offset="0.07" stop-color="#A2CC39"/>
<stop offset="0.26" stop-color="#81C45E"/>
<stop offset="0.92" stop-color="#0FA7DF"/>
</linearGradient>
</defs>
</svg>
