<svg width="17" height="14" viewBox="0 0 17 14" fill="none" xmlns="http://www.w3.org/2000/svg">
<path d="M0.265781 14C0.234969 14 0.203891 13.9947 0.173876 13.9837C0.0628462 13.9431 -0.00780922 13.8347 0.00069068 13.7174C0.00733123 13.6244 0.78215 4.491 10.9159 3.70732L10.8915 0.26527C10.8907 0.157196 10.9568 0.059401 11.058 0.0190706C11.1589 -0.0212597 11.275 0.00351832 11.3502 0.0825975L16.9275 5.9392C17.0241 6.04068 17.0241 6.19937 16.9277 6.30085L11.3157 12.2099C11.2408 12.2893 11.1241 12.3143 11.0232 12.2737C10.9217 12.2334 10.8556 12.1353 10.8567 12.0264L10.8888 8.67191C4.07108 9.15798 0.5152 13.8447 0.479607 13.8925C0.428342 13.9615 0.34839 14 0.265781 14Z" fill="#039571"/>
</svg>
