<svg width="74" height="97" viewBox="0 0 74 97" fill="none" xmlns="http://www.w3.org/2000/svg">
<path fill-rule="evenodd" clip-rule="evenodd" d="M18.0546 64.1735C16.9925 64.1131 15.2989 63.9779 11.708 61.5234C10.9247 60.9884 9.4797 59.7389 8.48261 59.9416C8.08089 60.0236 7.13149 60.7756 6.86415 60.6534C6.55636 60.5125 6.86271 59.7964 5.78615 60.2206C4.7038 60.6462 4.36422 61.4817 4.43358 62.4235C4.51017 63.4617 3.24864 63.6745 2.24433 63.8427C0.978463 64.0555 -0.0402977 63.7291 0.00594391 62.2754C0.271833 54.0993 14.4911 56.8127 14.4608 57.3045C14.2989 59.8712 18.0763 62.3315 18.0575 64.1749L18.0546 64.1735ZM47.0395 78.8044C48.0669 77.8597 51.9165 72.6932 51.9194 71.4264C51.9237 69.4205 50.5524 68.5778 50.9555 65.4618C51.022 64.9442 51.6492 63.4861 51.6651 63.4243C50.1492 61.3379 47.0944 57.8322 43.4658 60.5427C42.9413 62.6334 44.1725 67.288 45.9051 69.1243C46.4296 69.6807 46.814 70.1265 46.2895 71.7384C46.0164 72.558 45.7736 73.2195 45.4456 73.9514C45.1623 74.5841 44.7664 75.4454 44.3545 75.9199C42.8893 77.6095 41.567 74.5237 40.5729 77.608C40.0165 79.335 40.9457 79.207 41.0512 79.2157H46.158C46.5742 79.0805 46.6869 79.1193 47.0409 78.8044H47.0395ZM5.59974 38.5423C5.41332 38.7221 5.36419 38.7336 5.2009 38.9579C4.96102 39.2915 4.52173 39.1621 4.15613 39.385C3.82232 39.5877 3.92059 39.4166 4.03186 39.1693C4.14312 38.9219 4.25584 38.6732 4.33821 38.4144C4.6171 38.3482 5.21969 38.3036 5.47691 38.4302C5.50292 38.4431 5.63731 38.4949 5.59829 38.5438L5.59974 38.5423ZM32.3996 49.0191C32.6395 49.0191 32.8765 49.0335 33.1092 49.0622C33.4719 49.1456 33.8288 49.2233 34.1828 49.2966C36.5397 50.0487 38.2463 52.253 38.2463 54.8542C38.2463 58.0752 35.6279 60.6865 32.3996 60.6865C29.1714 60.6865 26.553 58.0738 26.553 54.8542C26.553 51.6318 29.1714 49.0205 32.3996 49.0205V49.0191ZM32.3028 53.7786C32.3823 53.7585 32.443 53.7585 32.5022 53.7786C32.7797 53.4019 33.0196 52.9648 33.1973 52.5291C33.3375 52.1926 33.4357 51.8547 33.4762 51.478C33.4964 51.1803 33.4964 50.8424 33.3765 50.5649C33.297 50.3477 33.0788 50.1881 32.8996 50.0889C32.7609 50.0098 32.602 49.9696 32.4618 49.9696C32.4213 49.9494 32.4025 49.9494 32.3621 49.9696C32.2031 49.9696 32.0644 50.0098 31.9242 50.0889C31.7263 50.1881 31.5268 50.3477 31.4271 50.5649C31.3072 50.8424 31.3274 51.1803 31.3462 51.478C31.3867 51.8547 31.4864 52.1926 31.6049 52.5291C31.8028 52.9662 32.0225 53.4019 32.2999 53.7786H32.3028ZM31.5673 54.1554C31.6078 54.1166 31.6468 54.0562 31.7075 54.0159C31.628 53.5601 31.5081 53.1028 31.3101 52.647C31.1916 52.3292 30.9922 52.0129 30.774 51.7339C30.5745 51.4952 30.3361 51.258 30.0587 51.1386C29.8202 51.0394 29.5818 51.0797 29.3621 51.1386C29.2234 51.1789 29.0833 51.258 28.9648 51.3572C28.9445 51.3773 28.9243 51.3974 28.9055 51.4363C28.8058 51.5355 28.7263 51.6735 28.6859 51.813C28.6266 52.0316 28.5862 52.289 28.6671 52.5075C28.787 52.785 29.0255 53.0237 29.2639 53.2222C29.5413 53.4609 29.8607 53.6392 30.1988 53.7772C30.6367 53.9555 31.1136 54.095 31.5702 54.154L31.5673 54.1554ZM31.3289 54.9693C31.3086 54.8902 31.3086 54.8298 31.3289 54.7708C30.9315 54.4933 30.5124 54.2546 30.076 54.0763C29.7379 53.9368 29.3795 53.8376 29.0226 53.7988C28.7249 53.7787 28.3867 53.7787 28.1078 53.898C27.8694 53.9785 27.7292 54.1957 27.6107 54.374C27.5515 54.512 27.511 54.6716 27.4908 54.8111C27.4908 54.8513 27.4908 54.87 27.4908 54.9103C27.511 55.0685 27.5501 55.208 27.6107 55.3474C27.7292 55.5459 27.8694 55.7443 28.1078 55.8435C28.3867 55.9629 28.7249 55.9427 29.0226 55.9226C29.3809 55.8823 29.7379 55.7846 30.076 55.6652C30.5139 55.4668 30.9315 55.2482 31.3289 54.9707V54.9693ZM31.7075 55.7026C31.6482 55.6638 31.6078 55.6235 31.5673 55.5646C31.1092 55.6437 30.6323 55.763 30.1959 55.9614C29.8578 56.0808 29.5399 56.2792 29.261 56.4963C29.0226 56.6948 28.7841 56.9335 28.6642 57.211C28.5847 57.4497 28.6237 57.687 28.683 57.9055C28.7234 58.045 28.8029 58.183 28.9026 58.3024C28.9229 58.3225 28.9416 58.3426 28.9619 58.3628C29.0804 58.462 29.2205 58.5411 29.3593 58.5813C29.5789 58.6403 29.8159 58.6806 30.0558 58.6015C30.3332 58.4821 30.5731 58.2434 30.7711 58.0062C30.9893 57.7287 31.1887 57.4109 31.3072 57.0744C31.5066 56.6373 31.6251 56.1613 31.7046 55.7055L31.7075 55.7026ZM32.3028 55.9413C32.3823 55.9614 32.443 55.9614 32.5022 55.9413C32.7797 56.3382 33.0196 56.7552 33.1973 57.1909C33.3375 57.5288 33.4357 57.8854 33.4762 58.242C33.4964 58.5396 33.4964 58.8776 33.3765 59.1551C33.297 59.3923 33.0788 59.5318 32.8996 59.6512C32.7609 59.7101 32.602 59.7504 32.4618 59.7705C32.4213 59.7705 32.4025 59.7705 32.3621 59.7705C32.2031 59.7504 32.0644 59.7116 31.9242 59.6512C31.7263 59.5318 31.5268 59.3938 31.4271 59.1551C31.3072 58.8776 31.3274 58.5396 31.3462 58.242C31.3867 57.8854 31.4864 57.5273 31.6049 57.1909C31.8028 56.7552 32.0225 56.3382 32.2999 55.9413H32.3028ZM33.1178 55.7026C33.1583 55.6638 33.2175 55.6235 33.2566 55.5646C33.6944 55.6437 34.151 55.763 34.6091 55.9614C34.927 56.0808 35.245 56.2792 35.5238 56.4963C35.7623 56.6948 36.0209 56.9335 36.1207 57.211C36.2204 57.4497 36.1799 57.687 36.1207 57.9055C36.0802 58.045 36.0007 58.183 35.9025 58.3024C35.8822 58.3225 35.862 58.3426 35.823 58.3628C35.7233 58.462 35.5845 58.5411 35.4458 58.5813C35.2262 58.6403 34.9689 58.6806 34.7493 58.6015C34.4719 58.4821 34.2334 58.2434 34.034 58.0062C33.7956 57.7287 33.6366 57.4109 33.4979 57.0744C33.3187 56.6373 33.1785 56.1613 33.1193 55.7055L33.1178 55.7026ZM33.4964 54.9693C33.5167 54.8902 33.5167 54.8298 33.4964 54.7708C33.8548 54.4933 34.2912 54.2546 34.7291 54.0763C35.0672 53.9368 35.4053 53.8376 35.7825 53.7988C36.0802 53.7787 36.4183 53.7787 36.6972 53.898C36.9169 53.9785 37.0758 54.1957 37.1741 54.374C37.2536 54.512 37.2926 54.6716 37.2926 54.8111C37.3128 54.8513 37.3128 54.87 37.2926 54.9103C37.2926 55.0685 37.2536 55.208 37.1741 55.3474C37.0744 55.5459 36.9154 55.7443 36.6972 55.8435C36.4183 55.9629 36.0802 55.9427 35.7825 55.9226C35.4053 55.8823 35.0672 55.7846 34.7291 55.6652C34.2912 55.4668 33.8548 55.2482 33.4964 54.9707V54.9693ZM33.258 54.1554C33.2175 54.1166 33.1583 54.0562 33.1193 54.0159C33.1785 53.5601 33.3173 53.1028 33.4979 52.647C33.6366 52.3292 33.7956 52.0129 34.034 51.7339C34.2334 51.4952 34.4719 51.258 34.7493 51.1386C34.9675 51.0394 35.2262 51.0797 35.4458 51.1386C35.5845 51.1789 35.7247 51.258 35.823 51.3572C35.8634 51.3773 35.8837 51.3974 35.9025 51.4363C36.0022 51.5355 36.0816 51.6735 36.1207 51.813C36.1799 52.0316 36.2204 52.289 36.1207 52.5075C36.0209 52.785 35.7623 53.0237 35.5238 53.2222C35.245 53.4609 34.927 53.6392 34.6091 53.7772C34.1525 53.9555 33.6944 54.095 33.2566 54.154L33.258 54.1554ZM32.4025 54.2546C32.7407 54.2546 33.0196 54.5321 33.0196 54.87C33.0196 55.208 32.7407 55.4855 32.4025 55.4855C32.0644 55.4855 31.7855 55.208 31.7855 54.87C31.7855 54.5321 32.0644 54.2546 32.4025 54.2546ZM32.4025 60.3198C29.4084 60.3198 26.9417 57.8581 26.9417 54.87C26.9417 51.8633 29.4098 49.4203 32.4025 49.4203C35.3967 49.4203 37.8446 51.8633 37.8446 54.87C37.8446 57.8566 35.3967 60.3198 32.4025 60.3198ZM32.4025 60.3198C29.4084 60.3198 26.9417 57.8581 26.9417 54.87C26.9417 51.8633 29.4098 49.4203 32.4025 49.4203C35.3967 49.4203 37.8446 51.8633 37.8446 54.87C37.8446 57.8566 35.3967 60.3198 32.4025 60.3198ZM38.2839 51.1357C38.9472 52.115 39.3503 53.3128 39.3503 54.8528C39.3503 58.6834 36.2377 61.7879 32.3996 61.7879C28.5601 61.7879 25.449 58.6834 25.449 54.8528C25.449 51.7138 27.5399 49.0622 30.4055 48.2081C24.8478 45.3854 20.478 41.9876 16.2122 38.052C13.0114 34.7634 14.1819 38.4733 13.1747 38.4273C12.9074 38.4158 12.1776 35.6348 11.8048 34.9475C11.6126 34.5894 11.4161 34.2098 11.114 33.9668C10.6011 33.57 10.2268 33.4995 9.84818 33.6951C9.67189 33.8015 9.48837 33.9769 9.29184 34.1983C9.06352 34.473 8.76295 34.9187 8.64879 35.3012C8.63001 35.4163 8.27163 35.4091 8.08522 35.4723C7.4783 35.6535 6.84681 35.8189 6.24423 36.0202C6.01591 36.0935 5.81216 36.1841 5.60985 36.2747C4.52895 36.7305 4.46826 36.6644 4.12 37.0699C3.73417 37.5214 3.03477 38.5452 2.65472 38.8989C2.44952 39.0787 2.13306 39.06 1.92786 39.2412C1.03048 40.0752 0.271833 40.8732 0.000163709 42.0077C-0.0085066 42.5182 0.32819 42.8015 0.779046 43.5765C1.33395 44.5327 1.53336 44.3099 2.32091 44.9052C2.35849 45.3653 2.45097 46.0713 2.78478 46.3431C3.08246 46.5832 3.83388 46.694 4.28185 46.6896C5.24859 46.6781 6.00001 45.2661 6.77601 44.7858C8.13869 43.9144 10.2961 44.7758 11.325 45.7622C14.8712 49.1672 15.1327 57.0672 16.0937 59.0142C17.1992 61.253 18.4318 61.4313 19.0474 64.2454C19.4636 66.1477 19.8075 68.7245 19.9419 69.6664C20.0979 70.7865 20.53 75.3721 20.0705 76.2219C19.5358 77.2069 18.767 75.8998 17.7078 76.8143C17.1486 77.2975 16.3104 79.0316 16.7786 79.207L17.2743 79.2157H22.0618C22.4635 79.184 22.8045 79.0834 23.0386 78.8274C23.0848 78.757 23.1311 78.6764 23.1759 78.583C23.3117 78.3069 23.3276 77.9488 23.4649 77.6915C23.7077 77.2399 24.0299 77.4973 24.2669 77.296C24.6152 76.8603 24.4663 75.618 24.4764 74.9019C24.488 74.0866 24.5126 73.2756 24.5415 72.4516C24.6238 70.9504 25.2091 68.9201 25.6513 67.4721C26.7336 63.929 26.3564 64.3906 25.9229 60.8087C26.1686 60.9539 26.209 61.0877 26.4171 61.289C28.5674 63.3711 28.1714 65.6632 30.2682 65.6143C34.4025 65.5179 36.5773 64.74 39.8865 62.1848C41.6928 60.7886 44.736 57.9616 47.2273 58.531C53.087 59.8697 52.8225 68.8395 64.9595 69.8662C66.513 69.8864 67.2687 69.606 68.1661 70.4889C68.4797 70.7966 68.4175 73.3187 68.419 73.8766C68.4219 75.027 68.2022 76.4405 66.7846 75.9257C65.6055 76.1831 65.1763 78.4607 65.5982 79.2171H70.8727C71.0389 79.1581 71.1443 79.0632 71.2787 78.9856C71.9117 78.5772 72.4666 77.8511 72.6905 77.1709C72.7469 76.9768 72.7859 76.8287 72.822 76.6288C72.9275 76.0436 72.981 75.4037 72.9955 74.7379C73.0388 72.6501 72.5894 70.2861 72.2137 68.4556C71.666 65.7839 70.1314 66.0442 67.9638 65.2505C60.6836 62.5831 61.4119 58.984 57.9713 54.6371C56.9279 53.3214 55.7878 52.0215 54.2922 51.2076C55.1867 51.6318 55.9395 52.0344 56.5855 52.3321C57.5103 52.7577 57.4915 52.7405 58.4554 52.4097C63.6778 50.6224 63.7992 45.9736 63.0463 40.7984C62.5217 37.195 62.2501 34.0531 63.1474 31.9724C64.078 29.8112 65.6011 29.1339 67.3858 28.9283C69.7499 28.6565 72.7715 29.7666 73.0692 26.5342C73.1429 25.7246 72.6631 24.9654 71.9868 24.5052C68.6343 22.2232 61.2804 24.1918 59.2241 28.7399C56.5479 34.6585 60.0926 43.2587 58.899 45.9807C57.6086 48.9228 52.2127 49.4289 48.866 49.6777C46.7215 49.8373 44.6002 50.2341 42.7 50.1033C41.7636 50.0386 41.7202 50.2327 41.2014 48.9788C39.1061 43.9101 35.8475 42.5585 34.4603 41.8985C41.0295 43.368 41.8864 48.6337 43.0511 48.188C44.606 47.5941 47.1493 39.881 46.7288 38.354C46.5684 37.773 45.9817 37.8838 44.8907 38.8328C43.554 39.9932 41.6957 40.9724 41.4168 40.9106C44.8112 38.1886 49.4556 33.0897 51.1506 29.2763C52.6289 25.9489 52.0177 24.6907 49.4599 27.7334C47.8458 29.653 43.9442 33.2838 42.0092 34.2343C44.158 31.9135 56.8412 19.9786 54.8413 13.7049C54.5393 12.7573 53.7864 13.2735 52.9728 14.5015C49.444 19.8205 42.9225 27.0791 36.5455 32.1723C40.2766 27.9117 49.7041 19.0612 54.6375 8.48955C55.9843 5.60506 57.649 0 52.6621 0C49.5394 0 49.8255 4.18151 49.2865 6.29814C48.9065 7.79215 48.3573 9.15244 47.7027 10.4221C45.986 13.7481 43.5294 16.4557 41.4052 19.3071C38.005 23.8697 33.1308 28.1691 29.089 32.2284C28.7061 32.6137 27.9735 33.5009 27.631 33.662C27.7191 33.0293 37.8981 21.753 39.109 20.1684C48.6406 7.69725 45.4542 1.64787 42.7766 2.38265C40.5613 2.98946 40.6798 6.88194 40.2174 8.86197C38.703 15.3485 34.2565 21.7804 30.3318 26.4838C28.4055 28.7931 25.8507 31.7884 24.5834 35.2365C22.7568 40.2075 25.3406 43.6556 29.3361 46.0181C32.232 47.7307 36.4357 48.4209 38.2796 51.1386L38.2839 51.1357Z" fill="#013220"/>
<path fill-rule="evenodd" clip-rule="evenodd" d="M73.0873 95.7864V93.9128C73.0873 93.8668 73.044 93.8323 72.9963 93.8323H72.4313C72.3836 93.8323 72.3446 93.8654 72.3446 93.9128V95.7864C72.3446 96.2164 72.2232 96.3961 71.8316 96.3961C71.44 96.3961 71.3229 96.2149 71.3229 95.7864V93.9128C71.3229 93.8668 71.2839 93.8323 71.2362 93.8323H70.6669C70.6192 93.8323 70.5802 93.8654 70.5802 93.9128V95.7864C70.5802 96.747 71.1409 96.9986 71.8316 96.9986C72.5223 96.9986 73.0873 96.7455 73.0873 95.7864ZM68.469 96.8936C68.469 96.8893 68.4646 96.8807 68.4646 96.8735L67.8173 94.2622C67.7175 93.8582 67.4011 93.7949 67.1005 93.7949C66.8014 93.7949 66.4791 93.8582 66.3794 94.2622L65.732 96.8735C65.732 96.8821 65.7277 96.8908 65.7277 96.8936C65.7277 96.9353 65.758 96.9612 65.8014 96.9612H66.4098C66.4531 96.9612 66.4878 96.9281 66.4965 96.885L66.6525 96.1948H67.5427L67.6988 96.885C67.7074 96.9267 67.7421 96.9612 67.7855 96.9612H68.3938C68.4372 96.9612 68.4675 96.9368 68.4675 96.8936H68.469ZM67.4228 95.6182H66.7754L67.0398 94.4563C67.0485 94.4146 67.0615 94.3931 67.1005 94.3931C67.1395 94.3931 67.1482 94.4146 67.1569 94.4563L67.4228 95.6182ZM63.5775 96.8563V96.4637C63.5775 96.4177 63.5385 96.3789 63.4908 96.3789H62.6093C62.4055 96.3789 62.3318 96.3113 62.3318 96.0927V95.647H63.4575C63.5052 95.647 63.5442 95.6096 63.5442 95.5636V95.1638C63.5442 95.1178 63.5052 95.079 63.4575 95.079H62.3318V94.695C62.3318 94.4765 62.4055 94.4089 62.6093 94.4089H63.4908C63.5385 94.4089 63.5775 94.3715 63.5775 94.3241V93.9329C63.5775 93.8783 63.5515 93.8567 63.4908 93.8481C63.339 93.8265 63.1208 93.7935 62.6526 93.7935C62.092 93.7935 61.592 93.9286 61.592 94.695V96.0927C61.592 96.8591 62.0876 96.9986 62.6483 96.9986C63.1179 96.9986 63.339 96.9655 63.4908 96.944C63.5515 96.9353 63.5775 96.9109 63.5775 96.8563ZM59.4186 96.9109C59.4186 96.898 59.4143 96.8821 59.4056 96.8649L58.7496 95.6772C59.066 95.5549 59.3102 95.2817 59.3102 94.8345V94.7799C59.3102 94.035 58.7409 93.7949 58.0025 93.7949C57.6903 93.7949 57.3204 93.8208 57.121 93.8495C56.9866 93.8711 56.9259 93.9085 56.9259 94.0523V96.8778C56.9259 96.9238 56.9649 96.9612 57.0126 96.9612H57.5776C57.6253 96.9612 57.6643 96.9238 57.6643 96.8778V95.808C57.7467 95.808 57.8811 95.8166 57.9721 95.8166L58.0198 95.8123L58.6022 96.8778C58.6238 96.9195 58.6412 96.9612 58.6889 96.9612H59.3536C59.4013 96.9612 59.4186 96.9397 59.4186 96.9109ZM58.5718 94.8345C58.5718 95.1207 58.4288 95.2343 57.9721 95.2343C57.9244 95.2343 57.712 95.23 57.6643 95.2256V94.4175C57.7163 94.4132 57.9418 94.4046 58.0039 94.4046C58.3681 94.4046 58.5733 94.5225 58.5733 94.7799V94.8345H58.5718ZM54.504 95.7864V93.9128C54.504 93.8668 54.4606 93.8323 54.413 93.8323H53.8479C53.8003 93.8323 53.7612 93.8654 53.7612 93.9128V95.7864C53.7612 96.2164 53.6399 96.3961 53.2482 96.3961C52.8566 96.3961 52.7396 96.2149 52.7396 95.7864V93.9128C52.7396 93.8668 52.7006 93.8323 52.6529 93.8323H52.0835C52.0359 93.8323 51.9968 93.8654 51.9968 93.9128V95.7864C51.9968 96.747 52.5575 96.9986 53.2482 96.9986C53.939 96.9986 54.504 96.7455 54.504 95.7864ZM49.6804 96.0553V95.9921C49.6804 95.7016 49.5244 95.4787 49.2931 95.3694C49.5229 95.2602 49.6573 95.0243 49.6573 94.7497V94.6735C49.6573 94.0034 49.1053 93.7935 48.2845 93.7935C48.0056 93.7935 47.6545 93.8193 47.5071 93.8395C47.338 93.8654 47.2773 93.9243 47.2773 94.1127V96.6722C47.2773 96.862 47.3423 96.9166 47.5157 96.9454C47.6848 96.9756 48.0244 96.9957 48.3105 96.9957C49.0619 96.9957 49.679 96.7944 49.679 96.0525L49.6804 96.0553ZM48.942 94.7842C48.942 94.9654 48.8423 95.1178 48.4984 95.1178H48.0128V94.3888C48.0735 94.3844 48.2729 94.3844 48.3423 94.3844C48.7903 94.3844 48.942 94.4894 48.942 94.7209V94.7842ZM48.9593 96.0395C48.9593 96.2753 48.8163 96.4105 48.3683 96.4105C48.3076 96.4105 48.0822 96.4062 48.0128 96.4062V95.6182H48.4984C48.8466 95.6182 48.9593 95.7907 48.9593 95.9935V96.0395ZM42.8641 96.8016V93.9128C42.8641 93.8668 42.8251 93.8323 42.7774 93.8323H42.2644C42.2167 93.8323 42.1777 93.8654 42.1777 93.9128V95.6944C42.1777 95.7232 42.1647 95.7318 42.156 95.7318C42.143 95.7318 42.1387 95.7232 42.1214 95.6987L41.0925 93.9646C41.0405 93.8769 40.9971 93.8337 40.9104 93.8337H40.4711C40.3801 93.8337 40.3064 93.9056 40.3064 93.9933V96.8778C40.3064 96.9238 40.3454 96.9612 40.3931 96.9612H40.9061C40.9538 96.9612 40.9928 96.9238 40.9928 96.8778V95.1724C40.9928 95.148 41.0014 95.1394 41.0144 95.1394C41.0275 95.1394 41.0361 95.148 41.0535 95.1724L42.0433 96.8318C42.1127 96.9454 42.1777 96.9627 42.2688 96.9627H42.695C42.7861 96.9627 42.8641 96.8908 42.8641 96.803V96.8016ZM37.9452 95.6484V95.148C37.9452 94.1716 37.3758 93.7963 36.6591 93.7963C35.9423 93.7963 35.373 94.1716 35.373 95.148V95.6484C35.373 96.6247 35.9423 97 36.6591 97C37.3758 97 37.9452 96.6247 37.9452 95.6484ZM37.1981 95.6484C37.1981 96.1545 37.0247 96.3688 36.6591 96.3688C36.2949 96.3688 36.1244 96.1545 36.1244 95.6484V95.148C36.1244 94.6433 36.2935 94.4276 36.6591 94.4276C37.0247 94.4276 37.1981 94.6418 37.1981 95.148V95.6484ZM33.0132 96.8778V93.9128C33.0132 93.8668 32.9785 93.8323 32.9308 93.8323H32.3485C32.3008 93.8323 32.2704 93.8654 32.2704 93.9128V96.8778C32.2704 96.9238 32.3008 96.9612 32.3485 96.9612H32.9308C32.9785 96.9612 33.0132 96.9238 33.0132 96.8778ZM30.0321 94.3471V93.9142C30.0321 93.8682 29.9887 93.8337 29.941 93.8337H27.7865C27.7388 93.8337 27.6998 93.8668 27.6998 93.9142V94.3471C27.6998 94.3931 27.7388 94.4262 27.7865 94.4262H28.4945V96.8778C28.4945 96.9238 28.5335 96.9612 28.5812 96.9612H29.1506C29.1983 96.9612 29.2373 96.9238 29.2373 96.8778V94.4262H29.941C29.9887 94.4262 30.0321 94.3931 30.0321 94.3471ZM25.5741 96.8016V93.9128C25.5741 93.8668 25.5351 93.8323 25.4874 93.8323H24.9744C24.9267 93.8323 24.8877 93.8654 24.8877 93.9128V95.6944C24.8877 95.7232 24.8747 95.7318 24.866 95.7318C24.853 95.7318 24.8487 95.7232 24.8313 95.6987L23.8024 93.9646C23.7504 93.8769 23.7071 93.8337 23.6204 93.8337H23.1811C23.09 93.8337 23.0163 93.9056 23.0163 93.9933V96.8778C23.0163 96.9238 23.0554 96.9612 23.103 96.9612H23.616C23.6637 96.9612 23.7027 96.9238 23.7027 96.8778V95.1724C23.7027 95.148 23.7114 95.1394 23.7244 95.1394C23.7374 95.1394 23.7461 95.148 23.7634 95.1724L24.7533 96.8318C24.8227 96.9454 24.8877 96.9627 24.9787 96.9627H25.405C25.496 96.9627 25.5741 96.8908 25.5741 96.803V96.8016ZM20.6421 96.8563V96.4637C20.6421 96.4177 20.6031 96.3789 20.5554 96.3789H19.6725C19.4687 96.3789 19.395 96.3113 19.395 96.0927V95.647H20.5193C20.567 95.647 20.606 95.6096 20.606 95.5636V95.1638C20.606 95.1178 20.567 95.079 20.5193 95.079H19.395V94.695C19.395 94.4765 19.4687 94.4089 19.6725 94.4089H20.5554C20.6031 94.4089 20.6421 94.3715 20.6421 94.3241V93.9329C20.6421 93.8783 20.6161 93.8567 20.5554 93.8481C20.4037 93.8265 20.1855 93.7935 19.7173 93.7935C19.1566 93.7935 18.6566 93.9286 18.6566 94.695V96.0927C18.6566 96.8591 19.1523 96.9986 19.713 96.9986C20.1826 96.9986 20.4037 96.9655 20.5554 96.944C20.6161 96.9353 20.6421 96.9109 20.6421 96.8563ZM16.5627 93.8999C16.5627 93.8582 16.5324 93.8323 16.489 93.8323H15.8807C15.8373 93.8323 15.807 93.8654 15.7983 93.9085L15.255 96.3386C15.2463 96.3846 15.2333 96.4019 15.1943 96.4019C15.1553 96.4019 15.1423 96.3846 15.1336 96.3386L14.5903 93.9085C14.5816 93.8668 14.5469 93.8323 14.5035 93.8323H13.8995C13.8562 93.8323 13.8215 93.861 13.8215 93.8999C13.8215 93.9085 13.8258 93.9128 13.8258 93.9214L14.4732 96.5327C14.5729 96.9368 14.8952 97 15.1943 97C15.4934 97 15.8113 96.9368 15.911 96.5327L16.5584 93.9214C16.5584 93.9128 16.5627 93.9042 16.5627 93.8999ZM11.6655 96.8002V93.9114C11.6655 93.8654 11.6264 93.8308 11.5788 93.8308H11.0658C11.0181 93.8308 10.9791 93.8639 10.9791 93.9114V95.693C10.9791 95.7217 10.9661 95.7304 10.9574 95.7304C10.9444 95.7304 10.9401 95.7217 10.9227 95.6973L9.89239 93.9631C9.84037 93.8754 9.79702 93.8323 9.71031 93.8323H9.27102C9.17998 93.8323 9.10628 93.9042 9.10628 93.9919V96.8764C9.10628 96.9224 9.1453 96.9598 9.19298 96.9598H9.70453C9.75222 96.9598 9.79124 96.9224 9.79124 96.8764V95.171C9.79124 95.1466 9.79991 95.1379 9.81291 95.1379C9.82592 95.1379 9.83459 95.1466 9.85193 95.171L10.8432 96.8304C10.9126 96.944 10.9776 96.9612 11.0687 96.9612H11.495C11.586 96.9612 11.664 96.8893 11.664 96.8016L11.6655 96.8002ZM6.74651 95.647V95.1466C6.74651 94.1702 6.17716 93.7949 5.46042 93.7949C4.74367 93.7949 4.17432 94.1702 4.17432 95.1466V95.647C4.17432 96.6233 4.74367 96.9986 5.46042 96.9986C6.17716 96.9986 6.74651 96.6233 6.74651 95.647ZM5.99942 95.647C5.99942 96.1531 5.82602 96.3674 5.46042 96.3674C5.09482 96.3674 4.92575 96.1531 4.92575 95.647V95.1466C4.92575 94.6418 5.09482 94.4262 5.46042 94.4262C5.82602 94.4262 5.99942 94.6404 5.99942 95.1466V95.647ZM2.03276 96.8304V96.422C2.03276 96.3717 2.00675 96.3372 1.95039 96.3372C1.94605 96.3372 1.94172 96.3372 1.93738 96.3372C1.77265 96.3501 1.53277 96.3702 1.29434 96.3702C0.995211 96.3702 0.755333 96.2193 0.755333 95.6585V95.1279C0.755333 94.5685 0.993766 94.4161 1.29434 94.4161C1.53277 94.4161 1.77265 94.4377 1.93738 94.4492C1.94172 94.4492 1.94605 94.4492 1.95039 94.4492C2.00675 94.4492 2.03276 94.4161 2.03276 94.3658V93.9574C2.03276 93.8984 1.99808 93.8812 1.93738 93.8654C1.84635 93.8366 1.59491 93.7935 1.29 93.7935C0.629613 93.7935 0.00390625 94.1271 0.00390625 95.1279V95.6585C0.00390625 96.6607 0.629613 96.9972 1.29 96.9972C1.59491 96.9972 1.84635 96.9555 1.93738 96.9253C1.99808 96.908 2.03276 96.8879 2.03276 96.8289V96.8304Z" fill="#013220"/>
<path fill-rule="evenodd" clip-rule="evenodd" d="M73.0849 89.6781V80.9456C73.0849 80.9053 73.069 80.8694 73.043 80.842C73.0155 80.8162 72.9794 80.7989 72.9389 80.7989H70.6052C70.5647 80.7989 70.5286 80.8147 70.5026 80.842C70.4766 80.8694 70.4592 80.9053 70.4592 80.9456V84.5505C70.4592 84.6339 70.4448 84.6828 70.4188 84.7158L70.4144 84.7216C70.3711 84.7734 70.3321 84.7733 70.2873 84.7733C70.2367 84.7733 70.1601 84.7733 70.0662 84.6065L67.9217 81.1009C67.8755 81.0218 67.8206 80.9427 67.7526 80.8866C67.6905 80.8363 67.6183 80.8018 67.5315 80.8018H65.4391C65.3481 80.8018 65.2643 80.8406 65.2021 80.9024L65.1978 80.9067C65.1385 80.9671 65.1024 81.0491 65.1024 81.1383V89.8708C65.1024 89.9082 65.1198 89.9442 65.1472 89.97C65.1776 89.9988 65.218 90.0161 65.2614 90.0161H67.5951C67.637 90.0161 67.6789 89.9988 67.7093 89.97C67.7367 89.9442 67.7541 89.9082 67.7541 89.8708V86.368C67.7541 86.3019 67.7671 86.2544 67.7888 86.2199C67.8234 86.1653 67.8711 86.1466 67.926 86.1466C67.9882 86.1466 68.033 86.1667 68.0734 86.2027L68.0807 86.2098C68.1067 86.2357 68.1255 86.2659 68.1471 86.3019L70.2526 89.7932C70.2901 89.8579 70.3364 89.9168 70.3899 89.9585C70.439 89.9959 70.4968 90.0189 70.5662 90.0189H72.7467C72.8378 90.0189 72.923 89.9801 72.9837 89.9197C73.0459 89.8579 73.0834 89.7745 73.0834 89.6839L73.0849 89.6781ZM60.247 86.2199H60.1228C60.1083 86.2242 60.0939 86.2271 60.078 86.2257L59.7774 86.2199H59.2153C58.9176 86.2242 58.617 86.2343 58.3165 86.2501C58.0144 86.2659 57.7139 86.2889 57.4176 86.3177C57.3584 86.3234 57.3049 86.2803 57.2991 86.2199C57.2934 86.1638 57.3338 86.1121 57.3887 86.1034C57.8295 86.0287 58.2139 85.9079 58.513 85.754C58.7948 85.6102 58.9985 85.4377 59.1011 85.2522L59.4378 83.1384C59.445 83.0766 59.4537 83.0263 59.4797 82.9817C59.5159 82.917 59.5693 82.881 59.6604 82.881C59.7514 82.881 59.8049 82.917 59.841 82.9817C59.8656 83.0263 59.8742 83.078 59.8829 83.1384L60.354 86.0948C60.3641 86.1538 60.3236 86.2084 60.2644 86.2185L60.247 86.2199ZM63.7802 90.0146C63.7932 90.0146 63.8048 90.0132 63.8134 90.0117C63.8351 90.0074 63.8481 90.0002 63.8553 89.9902L63.8582 89.9859C63.8655 89.9729 63.8683 89.9557 63.8683 89.9326C63.8683 89.9168 63.8669 89.9025 63.864 89.8881L62.3467 82.2225C62.2268 81.6113 61.9363 81.2245 61.4941 80.993C61.0404 80.7543 60.4219 80.6724 59.6604 80.6724C58.8988 80.6724 58.2803 80.7543 57.8266 80.993C57.3844 81.2245 57.0939 81.6099 56.974 82.2225L55.4553 89.8924C55.4538 89.9053 55.4524 89.9183 55.4524 89.9312C55.4524 89.9557 55.4567 89.9758 55.4654 89.9887C55.4726 89.9988 55.4856 90.006 55.5073 90.0103C55.5159 90.0117 55.5275 90.0132 55.542 90.0132H58.1951C58.2326 90.0132 58.2659 89.9988 58.2919 89.9729C58.3237 89.9427 58.3468 89.8981 58.3555 89.8478L58.5852 88.4286C58.5939 88.3754 58.6402 88.338 58.6922 88.338H60.6314C60.6892 88.338 60.7355 88.3826 60.7398 88.4386L60.9681 89.8492C60.9768 89.8996 60.9999 89.9441 61.0317 89.9743C61.0577 89.9988 61.091 90.0146 61.1285 90.0146H63.7816H63.7802ZM55.4321 82.8753V80.9456C55.4321 80.9082 55.4134 80.8722 55.3859 80.8464C55.3556 80.8176 55.3151 80.8003 55.2717 80.8003H48.7546C48.7141 80.8003 48.678 80.8162 48.652 80.8435C48.626 80.8708 48.6086 80.9068 48.6086 80.947V82.8767C48.6086 82.917 48.626 82.9529 48.652 82.9788L48.6563 82.9831C48.6823 83.0076 48.717 83.0219 48.756 83.0219H50.5421C50.6013 83.0219 50.6505 83.0708 50.6505 83.1298V89.8694C50.6505 89.9096 50.6678 89.9456 50.6938 89.9715L50.6982 89.9758C50.7242 90.0002 50.7603 90.0146 50.7979 90.0146H53.2848C53.3253 90.0146 53.3614 89.9973 53.3888 89.9715L53.3932 89.9672C53.4177 89.9413 53.4322 89.9068 53.4322 89.8679V83.1284C53.4322 83.068 53.4813 83.0205 53.5406 83.0205H55.2746C55.3165 83.0205 55.3584 83.0033 55.3888 82.9745C55.4162 82.9486 55.435 82.9127 55.435 82.8753H55.4321ZM47.626 87.2164C47.626 86.6915 47.5104 86.23 47.2575 85.8302C47.0032 85.4276 46.6087 85.0811 46.0523 84.7863L44.2373 83.8329C44.0206 83.7222 43.8963 83.6446 43.8241 83.577C43.7301 83.4907 43.7113 83.4188 43.7113 83.3325C43.7113 83.2563 43.733 83.1772 43.798 83.1154C43.8573 83.0593 43.9483 83.0219 44.0885 83.0219C44.5076 83.0219 45.0278 83.0435 45.5379 83.0752C46.1882 83.1154 46.8196 83.17 47.1997 83.2132C47.2647 83.2204 47.2965 83.2118 47.311 83.1945C47.3297 83.1701 47.3355 83.1226 47.3355 83.0665V81.1756C47.3355 81.1426 47.3225 81.1167 47.3037 81.0966C47.2719 81.0649 47.2199 81.0405 47.1607 81.0247L47.1563 81.0232C46.876 80.9341 46.3644 80.8449 45.7835 80.7788C45.2315 80.7155 44.6203 80.6738 44.0885 80.6738C42.7865 80.6738 41.9556 80.9614 41.4527 81.4143C40.9571 81.8615 40.7793 82.4784 40.7793 83.1413C40.7793 83.6331 40.8559 84.1061 41.077 84.5375C41.2995 84.9689 41.668 85.3629 42.2547 85.7008L44.1709 86.8066C44.3269 86.8943 44.4252 86.9691 44.4859 87.0395C44.5581 87.1244 44.5798 87.2035 44.5798 87.2912C44.5798 87.4321 44.5451 87.5572 44.4498 87.6507L44.4469 87.6535C44.3544 87.7412 44.2128 87.793 43.9989 87.793C43.3212 87.793 42.3053 87.6866 41.6521 87.6176C41.5062 87.6032 41.3559 87.5816 41.21 87.5744C41.1724 87.5744 41.1464 87.5845 41.1319 87.6003C41.1146 87.619 41.1045 87.6492 41.1001 87.6837L41.0972 87.7225V89.6134C41.0972 89.6436 41.1102 89.6695 41.1305 89.6882C41.1666 89.7227 41.223 89.7472 41.2836 89.763L41.2894 89.7644C41.6637 89.8766 42.1001 89.9758 42.59 90.0448C43.0192 90.1038 43.4902 90.1397 43.9989 90.1397C45.1882 90.1397 46.048 89.8306 46.6303 89.3575C47.324 88.7938 47.6274 87.9958 47.6274 87.215L47.626 87.2164ZM36.5554 83.9926C36.5554 84.2097 36.4716 84.4239 36.2737 84.5735C36.1147 84.6957 35.8835 84.7733 35.5656 84.7733H34.609C34.5483 84.7733 34.5006 84.7245 34.5006 84.6655V83.0665C34.5006 83.0076 34.5497 82.9587 34.609 82.9587H35.5656C35.9182 82.9587 36.1609 83.0277 36.3185 83.1586C36.4846 83.2952 36.554 83.4922 36.554 83.7395V83.994L36.5554 83.9926ZM39.6666 89.8938C39.6666 89.8708 39.658 89.8377 39.6392 89.8032C39.2042 88.9362 38.7028 88.0863 38.2664 87.2193C38.2375 87.1704 38.1826 87.1359 38.1204 87.1114C38.0135 87.0697 37.8921 87.0611 37.8228 87.0654C37.093 87.1114 36.4109 87.0467 36.0858 87.0065C36.0179 86.9978 35.9673 86.9906 35.9355 86.9849C35.7216 86.9504 35.7159 86.8598 35.8445 86.7778C35.8604 86.7678 35.8777 86.762 35.8951 86.7606C36.2433 86.7347 36.5901 86.6858 36.9297 86.6168C37.2693 86.5463 37.6074 86.4557 37.9384 86.3421C38.3011 86.1796 38.6883 85.8734 38.9629 85.4132C39.1854 85.0394 39.3328 84.5648 39.3328 83.981V83.728C39.3328 82.569 38.9513 81.8069 38.262 81.3381C37.5626 80.8622 36.5439 80.6767 35.2824 80.6767C34.8618 80.6767 34.3084 80.6968 33.7997 80.7241H33.7983C33.2391 80.7543 32.7289 80.7946 32.505 80.8277H32.5035C32.1856 80.8809 31.9833 80.9456 31.8663 81.0779C31.7478 81.213 31.7044 81.433 31.7044 81.7983V89.8708C31.7044 89.9082 31.7217 89.9442 31.7492 89.97C31.7796 89.9988 31.82 90.0161 31.8634 90.0161H34.3503C34.3908 90.0161 34.4269 89.9988 34.4543 89.9729L34.4587 89.9686C34.4832 89.9427 34.4977 89.9082 34.4977 89.8694V86.8871C34.4977 86.8267 34.5468 86.7793 34.6061 86.7793H35.0136C35.0584 86.7793 35.0974 86.8066 35.1133 86.8454C35.6089 87.8203 36.1898 88.8614 36.6407 89.8464C36.6841 89.9326 36.7274 90.0146 36.8762 90.0146H39.5424C39.5742 90.0146 39.6059 90.0017 39.6291 89.9787L39.6334 89.9743C39.6522 89.9542 39.6623 89.9269 39.6623 89.8938H39.6666ZM26.9184 86.2199H26.7898C26.7782 86.2242 26.7652 86.2257 26.7537 86.2257L26.4473 86.2199H25.8852C25.5875 86.2242 25.2869 86.2343 24.9864 86.2501C24.6844 86.2659 24.3838 86.2889 24.0875 86.3177C24.0283 86.3234 23.9748 86.2803 23.9691 86.2199C23.9633 86.1638 24.0037 86.1121 24.0586 86.1034C24.5023 86.0287 24.8881 85.9064 25.1872 85.7526C25.469 85.6073 25.6728 85.4348 25.7739 85.2479L26.1106 83.1399C26.1193 83.078 26.1265 83.0277 26.1525 82.9831C26.1887 82.9184 26.2421 82.8825 26.3332 82.8825C26.4242 82.8825 26.4777 82.9184 26.5138 82.9831C26.5398 83.0291 26.5485 83.0809 26.5557 83.1427L27.0268 86.0962C27.0354 86.1552 26.9964 86.2098 26.9372 86.2199L26.9198 86.2213L26.9184 86.2199ZM30.4515 90.0146C30.466 90.0146 30.4776 90.0132 30.4848 90.0117C30.505 90.0074 30.5195 90.0002 30.5267 89.9902L30.5296 89.9859C30.5368 89.9729 30.5397 89.9557 30.5397 89.9326C30.5397 89.9168 30.5383 89.9025 30.5354 89.8881L29.0166 82.2225C28.8967 81.6113 28.6062 81.2245 28.164 80.993C27.7103 80.7543 27.0918 80.6724 26.3303 80.6724C25.5687 80.6724 24.9502 80.7543 24.4965 80.993C24.0543 81.2245 23.7639 81.6099 23.6439 82.2225L22.1252 89.8938C22.1237 89.9068 22.1223 89.9197 22.1223 89.9326C22.1223 89.9571 22.1266 89.9772 22.1353 89.9902C22.1425 90.0002 22.1555 90.0074 22.1772 90.0117C22.1873 90.0132 22.1989 90.0146 22.2119 90.0146H24.865C24.9026 90.0146 24.9372 90.0002 24.9618 89.9743C24.9936 89.9441 25.0167 89.8996 25.0254 89.8492L25.2551 88.43C25.2638 88.3768 25.3101 88.3394 25.3621 88.3394H27.3013C27.3591 88.3394 27.4054 88.384 27.4097 88.4401L27.638 89.8507C27.6467 89.901 27.6698 89.9456 27.7016 89.9758C27.7276 90.0002 27.7609 90.0161 27.7984 90.0161H30.4515V90.0146ZM22.1035 82.8753V80.9456C22.1035 80.9082 22.0862 80.8722 22.0573 80.8464C22.0269 80.8176 21.9864 80.8003 21.9431 80.8003H15.4259C15.3855 80.8003 15.3493 80.8162 15.3233 80.8435C15.2973 80.8708 15.28 80.9068 15.28 80.947V82.8767C15.28 82.917 15.2973 82.9529 15.3233 82.9788L15.3277 82.9831C15.3537 83.0076 15.3883 83.0219 15.4259 83.0219H17.212C17.2727 83.0219 17.3204 83.0708 17.3204 83.1298V89.8694C17.3204 89.9096 17.3363 89.9456 17.3637 89.9715L17.3652 89.9729C17.3912 89.9988 17.4273 90.0146 17.4678 90.0146H19.9547C19.9952 90.0146 20.0313 89.9973 20.0573 89.9715L20.0616 89.9672C20.0862 89.9413 20.1007 89.9068 20.1007 89.8679V83.1284C20.1007 83.068 20.1498 83.0205 20.209 83.0205H21.9431C21.9864 83.0205 22.0269 83.0033 22.0573 82.9745C22.0847 82.9486 22.1035 82.9127 22.1035 82.8753ZM11.6384 86.2199H11.5098C11.4983 86.2242 11.4853 86.2257 11.4737 86.2257L11.1674 86.2199H10.6052C10.3075 86.2242 10.007 86.2343 9.70641 86.2501C9.40439 86.2659 9.10382 86.2889 8.80758 86.3177C8.74834 86.3234 8.69487 86.2803 8.68909 86.2199C8.68331 86.1638 8.72377 86.1121 8.77868 86.1034C9.22087 86.0287 9.6067 85.9064 9.90727 85.7526C10.1891 85.6073 10.3928 85.4348 10.494 85.2479L10.8307 83.1399C10.8379 83.078 10.8465 83.0277 10.8726 82.9831C10.9087 82.9184 10.9622 82.8825 11.0532 82.8825C11.1442 82.8825 11.1977 82.9184 11.2338 82.9831C11.2584 83.0277 11.2671 83.0795 11.2757 83.1399L11.7483 86.0962C11.7569 86.1552 11.7165 86.2098 11.6587 86.2199L11.6413 86.2213L11.6384 86.2199ZM15.1716 90.0146C15.186 90.0146 15.1962 90.0132 15.2048 90.0117C15.2251 90.0074 15.2395 90.0002 15.2467 89.9902L15.2496 89.9859C15.2568 89.9729 15.2597 89.9557 15.2597 89.9326C15.2597 89.9168 15.2583 89.9025 15.2554 89.8881L13.7367 82.2225C13.6167 81.6113 13.3263 81.2245 12.8841 80.993C12.4303 80.7543 11.8118 80.6724 11.0503 80.6724C10.2888 80.6724 9.67028 80.7543 9.21653 80.993C8.77435 81.2245 8.48389 81.6099 8.36395 82.2225L6.8452 89.8938C6.84376 89.9068 6.84231 89.9197 6.84231 89.9326C6.84231 89.9571 6.84665 89.9772 6.85532 89.9902L6.85821 89.993C6.86544 90.0017 6.87844 90.0074 6.89723 90.0117C6.90734 90.0132 6.9189 90.0146 6.93191 90.0146H9.58502C9.62259 90.0146 9.65727 90.0002 9.68184 89.9743C9.71363 89.9441 9.73675 89.8996 9.74542 89.8492L9.97518 88.43C9.98385 88.3768 10.0301 88.3394 10.0821 88.3394H12.0214C12.0792 88.3394 12.1254 88.384 12.1298 88.4401L12.3581 89.8507C12.3667 89.901 12.3899 89.9456 12.4217 89.9758C12.4477 90.0002 12.4809 90.0161 12.5185 90.0161H15.1716V90.0146ZM6.82353 82.8753V80.9456C6.82353 80.9082 6.80619 80.8722 6.77729 80.8464C6.74694 80.8176 6.70648 80.8003 6.66313 80.8003H0.14595C0.105489 80.8003 0.0693624 80.8162 0.0433515 80.8435C0.0173406 80.8708 0 80.9068 0 80.947V82.8767C0 82.917 0.0173406 82.9529 0.0433515 82.9788L0.0476867 82.9831C0.0736976 83.0076 0.108379 83.0219 0.14595 83.0219H1.93203C1.99272 83.0219 2.04041 83.0708 2.04041 83.1298V89.8694C2.04041 89.9096 2.05631 89.9456 2.08376 89.9715C2.10977 89.9973 2.14735 90.0146 2.18636 90.0146H4.67329C4.71375 90.0146 4.74988 89.9973 4.77589 89.9715L4.78023 89.9672C4.80479 89.9413 4.81924 89.9068 4.81924 89.8679V83.1284C4.81924 83.068 4.86837 83.0205 4.92762 83.0205H6.66168C6.70503 83.0205 6.7455 83.0033 6.77584 82.9745C6.8033 82.9486 6.82208 82.9127 6.82208 82.8753H6.82353Z" fill="#013220"/>
</svg>
