<svg width="62" height="83" viewBox="0 0 62 83" fill="none" xmlns="http://www.w3.org/2000/svg">
<path fill-rule="evenodd" clip-rule="evenodd" d="M15.15 53.8491C14.2587 53.7984 12.8376 53.685 9.82436 51.6253C9.16715 51.1765 7.95458 50.1279 7.11791 50.2981C6.78082 50.3669 5.98416 50.9979 5.75983 50.8953C5.50156 50.7771 5.75862 50.1762 4.85526 50.5322C3.94705 50.8893 3.66209 51.5903 3.7203 52.3807C3.78456 53.2518 2.72599 53.4304 1.88326 53.5716C0.821046 53.7501 -0.0338145 53.4762 0.00498764 52.2564C0.2281 45.3957 12.1598 47.6725 12.1343 48.0852C11.9985 50.239 15.1681 52.3034 15.1524 53.8503L15.15 53.8491ZM39.4716 66.1262C40.3338 65.3334 43.5641 60.9982 43.5665 59.9351C43.5701 58.2519 42.4194 57.5449 42.7577 54.9302C42.8135 54.4958 43.3397 53.2723 43.3531 53.2204C42.0811 51.4697 39.5177 48.528 36.473 50.8024C36.0328 52.5568 37.0659 56.4626 38.5198 58.0034C38.9599 58.4703 39.2825 58.8444 38.8423 60.197C38.6131 60.8847 38.4094 61.4398 38.1342 62.0539C37.8965 62.5848 37.5643 63.3076 37.2187 63.7057C35.9891 65.1235 34.8797 62.5341 34.0454 65.1223C33.5786 66.5714 34.3582 66.464 34.4468 66.4713H38.732C39.0812 66.3578 39.1758 66.3904 39.4729 66.1262H39.4716ZM4.69884 32.3415C4.54242 32.4924 4.50119 32.502 4.36417 32.6903C4.16288 32.9702 3.79426 32.8616 3.48748 33.0486C3.20738 33.2187 3.28983 33.0752 3.3832 32.8676C3.47657 32.6601 3.57115 32.4513 3.64027 32.2342C3.87429 32.1787 4.37993 32.1413 4.59577 32.2474C4.6176 32.2583 4.73036 32.3017 4.69762 32.3428L4.69884 32.3415ZM27.1871 41.1328C27.3884 41.1328 27.5873 41.1449 27.7825 41.169C28.0868 41.239 28.3863 41.3041 28.6834 41.3657C30.6611 41.9967 32.0932 43.8464 32.0932 46.0291C32.0932 48.7319 29.896 50.9231 27.1871 50.9231C24.4782 50.9231 22.2811 48.7307 22.2811 46.0291C22.2811 43.3252 24.4782 41.134 27.1871 41.134V41.1328ZM27.1059 45.1266C27.1726 45.1097 27.2235 45.1097 27.2732 45.1266C27.506 44.8105 27.7073 44.4437 27.8565 44.0781C27.9741 43.7957 28.0565 43.5122 28.0905 43.1961C28.1075 42.9463 28.1075 42.6628 28.0068 42.4299C27.9401 42.2477 27.757 42.1138 27.6067 42.0305C27.4903 41.9641 27.3569 41.9303 27.2393 41.9303C27.2053 41.9135 27.1895 41.9135 27.1556 41.9303C27.0222 41.9303 26.9058 41.9641 26.7882 42.0305C26.6221 42.1138 26.4547 42.2477 26.3711 42.4299C26.2704 42.6628 26.2874 42.9463 26.3032 43.1961C26.3371 43.5122 26.4208 43.7957 26.5202 44.0781C26.6863 44.4449 26.8706 44.8105 27.1035 45.1266H27.1059ZM26.4887 45.4427C26.5226 45.4102 26.5554 45.3595 26.6063 45.3257C26.5396 44.9432 26.439 44.5595 26.2728 44.177C26.1734 43.9104 26.0061 43.6449 25.823 43.4108C25.6556 43.2105 25.4556 43.0115 25.2228 42.9113C25.0227 42.8281 24.8226 42.8618 24.6383 42.9113C24.5219 42.9451 24.4043 43.0115 24.3048 43.0947C24.2879 43.1116 24.2709 43.1285 24.2551 43.1611C24.1715 43.2443 24.1048 43.3602 24.0708 43.4772C24.0211 43.6606 23.9872 43.8766 24.0551 44.06C24.1557 44.2929 24.3558 44.4932 24.5558 44.6597C24.7887 44.86 25.0566 45.0096 25.3404 45.1254C25.7078 45.275 26.1079 45.3921 26.4911 45.4415L26.4887 45.4427ZM26.2886 46.1257C26.2716 46.0593 26.2716 46.0086 26.2886 45.9592C25.9552 45.7263 25.6035 45.526 25.2373 45.3764C24.9536 45.2593 24.6529 45.1761 24.3533 45.1435C24.1036 45.1266 23.8198 45.1266 23.5858 45.2268C23.3857 45.2943 23.2681 45.4765 23.1687 45.6261C23.119 45.742 23.085 45.8759 23.068 45.993C23.068 46.0267 23.068 46.0424 23.068 46.0762C23.085 46.2089 23.1177 46.326 23.1687 46.443C23.2681 46.6095 23.3857 46.776 23.5858 46.8593C23.8198 46.9594 24.1036 46.9425 24.3533 46.9256C24.6541 46.8919 24.9536 46.8098 25.2373 46.7097C25.6047 46.5432 25.9552 46.3598 26.2886 46.1269V46.1257ZM26.6063 46.741C26.5566 46.7085 26.5226 46.6747 26.4887 46.6252C26.1043 46.6916 25.7041 46.7917 25.338 46.9582C25.0542 47.0584 24.7874 47.2249 24.5534 47.4071C24.3533 47.5736 24.1533 47.7739 24.0526 48.0068C23.9859 48.2071 24.0187 48.4061 24.0684 48.5895C24.1023 48.7066 24.169 48.8224 24.2527 48.9226C24.2697 48.9395 24.2854 48.9563 24.3024 48.9732C24.4019 49.0565 24.5195 49.1229 24.6359 49.1566C24.8202 49.2061 25.019 49.2399 25.2203 49.1735C25.4531 49.0734 25.6544 48.8731 25.8206 48.674C26.0037 48.4411 26.171 48.1745 26.2704 47.8921C26.4378 47.5253 26.5372 47.1259 26.6039 46.7435L26.6063 46.741ZM27.1059 46.9413C27.1726 46.9582 27.2235 46.9582 27.2732 46.9413C27.506 47.2744 27.7073 47.6243 27.8565 47.9899C27.9741 48.2734 28.0565 48.5726 28.0905 48.8719C28.1075 49.1216 28.1075 49.4052 28.0068 49.6381C27.9401 49.8372 27.757 49.9542 27.6067 50.0543C27.4903 50.1038 27.3569 50.1376 27.2393 50.1545C27.2053 50.1545 27.1895 50.1545 27.1556 50.1545C27.0222 50.1376 26.9058 50.105 26.7882 50.0543C26.6221 49.9542 26.4547 49.8384 26.3711 49.6381C26.2704 49.4052 26.2874 49.1216 26.3032 48.8719C26.3371 48.5726 26.4208 48.2722 26.5202 47.9899C26.6863 47.6243 26.8706 47.2744 27.1035 46.9413H27.1059ZM27.7898 46.741C27.8237 46.7085 27.8734 46.6747 27.9062 46.6252C28.2736 46.6916 28.6568 46.7917 29.0411 46.9582C29.3079 47.0584 29.5747 47.2249 29.8087 47.4071C30.0088 47.5736 30.2258 47.7739 30.3095 48.0068C30.3931 48.2071 30.3592 48.4061 30.3095 48.5895C30.2755 48.7066 30.2088 48.8224 30.1264 48.9226C30.1094 48.9395 30.0924 48.9563 30.0597 48.9732C29.976 49.0565 29.8596 49.1229 29.7432 49.1566C29.5589 49.2061 29.3431 49.2399 29.1588 49.1735C28.9259 49.0734 28.7259 48.8731 28.5585 48.674C28.3585 48.4411 28.2251 48.1745 28.1087 47.8921C27.9583 47.5253 27.8407 47.1259 27.791 46.7435L27.7898 46.741ZM28.1075 46.1257C28.1244 46.0593 28.1244 46.0086 28.1075 45.9592C28.4082 45.7263 28.7744 45.526 29.1418 45.3764C29.4255 45.2593 29.7093 45.1761 30.0257 45.1435C30.2755 45.1266 30.5593 45.1266 30.7933 45.2268C30.9776 45.2943 31.111 45.4765 31.1934 45.6261C31.2601 45.742 31.2929 45.8759 31.2929 45.993C31.3099 46.0267 31.3099 46.0424 31.2929 46.0762C31.2929 46.2089 31.2601 46.326 31.1934 46.443C31.1098 46.6095 30.9764 46.776 30.7933 46.8593C30.5593 46.9594 30.2755 46.9425 30.0257 46.9256C29.7093 46.8919 29.4255 46.8098 29.1418 46.7097C28.7744 46.5432 28.4082 46.3598 28.1075 46.1269V46.1257ZM27.9074 45.4427C27.8734 45.4102 27.8237 45.3595 27.791 45.3257C27.8407 44.9432 27.9571 44.5595 28.1087 44.177C28.2251 43.9104 28.3585 43.6449 28.5585 43.4108C28.7259 43.2105 28.9259 43.0115 29.1588 42.9113C29.3419 42.8281 29.5589 42.8618 29.7432 42.9113C29.8596 42.9451 29.9772 43.0115 30.0597 43.0947C30.0936 43.1116 30.1106 43.1285 30.1264 43.1611C30.2101 43.2443 30.2767 43.3602 30.3095 43.4772C30.3592 43.6606 30.3931 43.8766 30.3095 44.06C30.2258 44.2929 30.0088 44.4932 29.8087 44.6597C29.5747 44.86 29.3079 45.0096 29.0411 45.1254C28.658 45.275 28.2736 45.3921 27.9062 45.4415L27.9074 45.4427ZM27.1895 45.526C27.4733 45.526 27.7073 45.7589 27.7073 46.0424C27.7073 46.326 27.4733 46.5588 27.1895 46.5588C26.9058 46.5588 26.6718 46.326 26.6718 46.0424C26.6718 45.7589 26.9058 45.526 27.1895 45.526ZM27.1895 50.6154C24.6771 50.6154 22.6073 48.5497 22.6073 46.0424C22.6073 43.5194 24.6783 41.4694 27.1895 41.4694C29.702 41.4694 31.7561 43.5194 31.7561 46.0424C31.7561 48.5485 29.702 50.6154 27.1895 50.6154ZM27.1895 50.6154C24.6771 50.6154 22.6073 48.5497 22.6073 46.0424C22.6073 43.5194 24.6783 41.4694 27.1895 41.4694C29.702 41.4694 31.7561 43.5194 31.7561 46.0424C31.7561 48.5485 29.702 50.6154 27.1895 50.6154ZM32.1247 42.9089C32.6813 43.7306 33.0196 44.7357 33.0196 46.0279C33.0196 49.2423 30.4077 51.8473 27.1871 51.8473C23.9653 51.8473 21.3547 49.2423 21.3547 46.0279C21.3547 43.3939 23.1093 41.169 25.5138 40.4523C20.8502 38.0837 17.1834 35.2325 13.6039 31.9301C10.9181 29.1706 11.9003 32.2836 11.0551 32.245C10.8308 32.2354 10.2184 29.9018 9.9056 29.3251C9.74433 29.0246 9.57942 28.7061 9.326 28.5022C8.89553 28.1691 8.58148 28.11 8.26379 28.2741C8.11585 28.3634 7.96186 28.5106 7.79695 28.6964C7.60536 28.9269 7.35315 29.3009 7.25736 29.6219C7.24159 29.7184 6.94088 29.7124 6.78445 29.7655C6.27518 29.9175 5.74528 30.0563 5.23964 30.2252C5.04806 30.2867 4.87708 30.3627 4.70733 30.4387C3.80032 30.8212 3.7494 30.7657 3.45717 31.106C3.13341 31.4849 2.54653 32.344 2.22762 32.6408C2.05544 32.7916 1.78989 32.7759 1.6177 32.928C0.864698 33.6278 0.2281 34.2974 0.000137371 35.2494C-0.00713804 35.6778 0.27539 35.9155 0.653711 36.5658C1.11934 37.3682 1.28667 37.1812 1.94752 37.6807C1.97905 38.0668 2.05665 38.6593 2.33676 38.8873C2.58654 39.0888 3.21708 39.1817 3.59298 39.1781C4.40418 39.1685 5.03472 37.9836 5.68587 37.5806C6.82932 36.8494 8.63968 37.5721 9.50303 38.3999C12.4787 41.2571 12.6981 47.8861 13.5045 49.5198C14.4321 51.3985 15.4664 51.5481 15.983 53.9094C16.3322 55.5057 16.6208 57.668 16.7336 58.4583C16.8645 59.3982 17.2271 63.246 16.8415 63.9591C16.3928 64.7856 15.7478 63.6889 14.8589 64.4562C14.3897 64.8617 13.6864 66.3168 14.0793 66.464L14.4952 66.4713H18.5124C18.8495 66.4447 19.1357 66.3603 19.3321 66.1455C19.3709 66.0863 19.4097 66.0188 19.4473 65.9404C19.5613 65.7087 19.5746 65.4082 19.6898 65.1923C19.8935 64.8134 20.1639 65.0294 20.3628 64.8605C20.655 64.4949 20.5301 63.4524 20.5386 62.8515C20.5483 62.1673 20.5689 61.4868 20.5932 60.7954C20.6623 59.5358 21.1534 57.8321 21.5244 56.617C22.4326 53.644 22.1162 54.0313 21.7524 51.0257C21.9585 51.1475 21.9925 51.2597 22.1671 51.4287C23.9714 53.1758 23.6391 55.0991 25.3986 55.0581C28.8677 54.9772 30.6927 54.3245 33.4694 52.1804C34.9851 51.0088 37.5388 48.6366 39.6293 49.1144C44.5462 50.2377 44.3243 57.7645 54.5087 58.626C55.8122 58.6429 56.4464 58.4076 57.1994 59.1484C57.4625 59.4067 57.4104 61.523 57.4116 61.9912C57.414 62.9564 57.2297 64.1425 56.0402 63.7106C55.0507 63.9265 54.6906 65.8378 55.0447 66.4725H59.4705C59.61 66.423 59.6985 66.3434 59.8113 66.2782C60.3424 65.9355 60.808 65.3262 60.9959 64.7555C61.0432 64.5926 61.076 64.4683 61.1063 64.3006C61.1948 63.8095 61.2397 63.2726 61.2518 62.7139C61.2882 60.962 60.9111 58.9783 60.5958 57.4423C60.1362 55.2005 58.8485 55.4189 57.0296 54.7528C50.9207 52.5146 51.5318 49.4945 48.6447 45.847C47.7692 44.7429 46.8125 43.6522 45.5575 42.9692C46.3081 43.3252 46.9398 43.663 47.4819 43.9128C48.2579 44.2699 48.2421 44.2555 49.0509 43.9779C53.4332 42.4781 53.535 38.5772 52.9033 34.2347C52.4631 31.211 52.2351 28.5746 52.9881 26.8286C53.769 25.0151 55.0471 24.4468 56.5446 24.2743C58.5284 24.0462 61.0638 24.9777 61.3136 22.2653C61.3755 21.586 60.9729 20.9489 60.4054 20.5628C57.5923 18.6479 51.4215 20.2997 49.696 24.1162C47.4503 29.0825 50.4248 36.2992 49.4232 38.5833C48.3404 41.0519 43.8126 41.4767 41.0043 41.6854C39.2049 41.8193 37.4248 42.1524 35.8303 42.0426C35.0446 41.9883 35.0082 42.1512 34.5729 41.099C32.8146 36.8458 30.0803 35.7116 28.9162 35.1577C34.4286 36.3909 35.1476 40.8094 36.125 40.4354C37.4297 39.9371 39.5638 33.4649 39.2109 32.1835C39.0763 31.696 38.584 31.7889 37.6686 32.5853C36.5469 33.559 34.9876 34.3807 34.7535 34.3288C37.6019 32.0447 41.4991 27.7661 42.9214 24.5663C44.1619 21.7742 43.6489 20.7184 41.5027 23.2716C40.1483 24.8824 36.8743 27.929 35.2507 28.7266C37.0538 26.7791 47.6965 16.7644 46.0183 11.5C45.7649 10.7049 45.1331 11.1381 44.4504 12.1685C41.4894 16.6317 36.017 22.7226 30.666 26.9963C33.7968 23.4212 41.7076 15.9946 45.8473 7.12373C46.9774 4.7033 48.3743 0 44.1897 0C41.5694 0 41.8095 3.50877 41.3572 5.28488C41.0383 6.53853 40.5775 7.67997 40.0282 8.74539C38.5877 11.5362 36.5263 13.8083 34.7438 16.2009C31.8907 20.0295 27.8007 23.6372 24.4091 27.0434C24.0878 27.3668 23.473 28.1112 23.1856 28.2464C23.2596 27.7155 31.8009 18.2534 32.8171 16.9237C40.8152 6.4589 38.1415 1.38276 35.8946 1.99933C34.0357 2.50851 34.1351 5.77476 33.7471 7.43624C32.4763 12.8792 28.7453 18.2763 25.4519 22.223C23.8356 24.1608 21.6918 26.6742 20.6283 29.5676C19.0957 33.7388 21.2637 36.6322 24.6165 38.6146C27.0465 40.0517 30.5738 40.6308 32.1211 42.9113L32.1247 42.9089Z" fill="white"/>
<path fill-rule="evenodd" clip-rule="evenodd" d="M61.3256 81.9819V80.4097C61.3256 80.3711 61.2892 80.3422 61.2492 80.3422H60.7751C60.7351 80.3422 60.7024 80.3699 60.7024 80.4097V81.9819C60.7024 82.3427 60.6005 82.4935 60.2719 82.4935C59.9433 82.4935 59.8451 82.3415 59.8451 81.9819V80.4097C59.8451 80.3711 59.8123 80.3422 59.7723 80.3422H59.2946C59.2545 80.3422 59.2218 80.3699 59.2218 80.4097V81.9819C59.2218 82.7879 59.6923 82.9991 60.2719 82.9991C60.8515 82.9991 61.3256 82.7867 61.3256 81.9819ZM57.4502 82.911C57.4502 82.9074 57.4466 82.9001 57.4466 82.8941L56.9034 80.7029C56.8197 80.3639 56.5542 80.3108 56.3019 80.3108C56.0509 80.3108 55.7805 80.3639 55.6969 80.7029L55.1536 82.8941C55.1536 82.9013 55.15 82.9086 55.15 82.911C55.15 82.946 55.1755 82.9677 55.2118 82.9677H55.7223C55.7587 82.9677 55.7878 82.9399 55.7951 82.9037L55.926 82.3246H56.673L56.8039 82.9037C56.8112 82.9387 56.8403 82.9677 56.8767 82.9677H57.3872C57.4236 82.9677 57.449 82.9472 57.449 82.911H57.4502ZM56.5723 81.8407H56.0291L56.251 80.8658C56.2583 80.8308 56.2692 80.8127 56.3019 80.8127C56.3347 80.8127 56.342 80.8308 56.3492 80.8658L56.5723 81.8407ZM53.3457 82.8796V82.5502C53.3457 82.5116 53.313 82.479 53.2729 82.479H52.5333C52.3623 82.479 52.3005 82.4223 52.3005 82.2389V81.8649H53.2451C53.2851 81.8649 53.3178 81.8335 53.3178 81.7949V81.4595C53.3178 81.4208 53.2851 81.3883 53.2451 81.3883H52.3005V81.0661C52.3005 80.8827 52.3623 80.826 52.5333 80.826H53.2729C53.313 80.826 53.3457 80.7946 53.3457 80.7548V80.4266C53.3457 80.3808 53.3239 80.3627 53.2729 80.3554C53.1456 80.3373 52.9625 80.3096 52.5697 80.3096C52.0992 80.3096 51.6796 80.423 51.6796 81.0661V82.2389C51.6796 82.882 52.0955 82.9991 52.566 82.9991C52.9601 82.9991 53.1456 82.9713 53.2729 82.9532C53.3239 82.946 53.3457 82.9255 53.3457 82.8796ZM49.8559 82.9255C49.8559 82.9146 49.8523 82.9013 49.845 82.8869L49.2945 81.8902C49.5601 81.7877 49.765 81.5584 49.765 81.1831V81.1373C49.765 80.5123 49.2872 80.3108 48.6676 80.3108C48.4057 80.3108 48.0953 80.3325 47.928 80.3566C47.8152 80.3747 47.7643 80.4061 47.7643 80.5268V82.8977C47.7643 82.9363 47.797 82.9677 47.837 82.9677H48.3111C48.3511 82.9677 48.3839 82.9363 48.3839 82.8977V82C48.453 82 48.5658 82.0072 48.6422 82.0072L48.6822 82.0036L49.1708 82.8977C49.189 82.9327 49.2036 82.9677 49.2436 82.9677H49.8014C49.8414 82.9677 49.8559 82.9496 49.8559 82.9255ZM49.1454 81.1831C49.1454 81.4233 49.0253 81.5186 48.6422 81.5186C48.6021 81.5186 48.4239 81.515 48.3839 81.5113V80.8332C48.4275 80.8296 48.6167 80.8224 48.6688 80.8224C48.9744 80.8224 49.1466 80.9213 49.1466 81.1373V81.1831H49.1454ZM45.732 81.9819V80.4097C45.732 80.3711 45.6956 80.3422 45.6556 80.3422H45.1815C45.1415 80.3422 45.1087 80.3699 45.1087 80.4097V81.9819C45.1087 82.3427 45.0069 82.4935 44.6783 82.4935C44.3497 82.4935 44.2514 82.3415 44.2514 81.9819V80.4097C44.2514 80.3711 44.2187 80.3422 44.1787 80.3422H43.7009C43.6609 80.3422 43.6282 80.3699 43.6282 80.4097V81.9819C43.6282 82.7879 44.0987 82.9991 44.6783 82.9991C45.2579 82.9991 45.732 82.7867 45.732 81.9819ZM41.6844 82.2075V82.1545C41.6844 81.9107 41.5535 81.7237 41.3595 81.632C41.5523 81.5403 41.665 81.3424 41.665 81.112V81.048C41.665 80.4857 41.2018 80.3096 40.5131 80.3096C40.2791 80.3096 39.9844 80.3313 39.8607 80.3482C39.7189 80.3699 39.6679 80.4194 39.6679 80.5774V82.7252C39.6679 82.8844 39.7225 82.9303 39.868 82.9544C40.0099 82.9798 40.2948 82.9967 40.5349 82.9967C41.1655 82.9967 41.6832 82.8277 41.6832 82.2051L41.6844 82.2075ZM41.0648 81.1409C41.0648 81.2929 40.9812 81.4208 40.6926 81.4208H40.2851V80.8091C40.3361 80.8055 40.5034 80.8055 40.5616 80.8055C40.9375 80.8055 41.0648 80.8936 41.0648 81.0878V81.1409ZM41.0794 82.1943C41.0794 82.3922 40.9593 82.5056 40.5834 82.5056C40.5325 82.5056 40.3433 82.5019 40.2851 82.5019V81.8407H40.6926C40.9848 81.8407 41.0794 81.9855 41.0794 82.1557V82.1943ZM35.9648 82.8338V80.4097C35.9648 80.3711 35.932 80.3422 35.892 80.3422H35.4615C35.4215 80.3422 35.3888 80.3699 35.3888 80.4097V81.9047C35.3888 81.9288 35.3779 81.9361 35.3706 81.9361C35.3597 81.9361 35.356 81.9288 35.3415 81.9083L34.4781 80.4532C34.4345 80.3796 34.3981 80.3434 34.3254 80.3434H33.9567C33.8804 80.3434 33.8185 80.4037 33.8185 80.4773V82.8977C33.8185 82.9363 33.8513 82.9677 33.8913 82.9677H34.3217C34.3617 82.9677 34.3945 82.9363 34.3945 82.8977V81.4667C34.3945 81.4462 34.4018 81.4389 34.4127 81.4389C34.4236 81.4389 34.4309 81.4462 34.4454 81.4667L35.276 82.8591C35.3342 82.9544 35.3888 82.9689 35.4652 82.9689H35.8229C35.8993 82.9689 35.9648 82.9086 35.9648 82.835V82.8338ZM31.8372 81.8661V81.4462C31.8372 80.6269 31.3594 80.312 30.758 80.312C30.1566 80.312 29.6788 80.6269 29.6788 81.4462V81.8661C29.6788 82.6854 30.1566 83.0003 30.758 83.0003C31.3594 83.0003 31.8372 82.6854 31.8372 81.8661ZM31.2103 81.8661C31.2103 82.2908 31.0648 82.4706 30.758 82.4706C30.4524 82.4706 30.3093 82.2908 30.3093 81.8661V81.4462C30.3093 81.0227 30.4512 80.8417 30.758 80.8417C31.0648 80.8417 31.2103 81.0215 31.2103 81.4462V81.8661ZM27.6987 82.8977V80.4097C27.6987 80.3711 27.6696 80.3422 27.6296 80.3422H27.1409C27.1009 80.3422 27.0754 80.3699 27.0754 80.4097V82.8977C27.0754 82.9363 27.1009 82.9677 27.1409 82.9677H27.6296C27.6696 82.9677 27.6987 82.9363 27.6987 82.8977ZM25.1972 80.7741V80.4109C25.1972 80.3723 25.1608 80.3434 25.1208 80.3434H23.3128C23.2728 80.3434 23.2401 80.3711 23.2401 80.4109V80.7741C23.2401 80.8127 23.2728 80.8405 23.3128 80.8405H23.907V82.8977C23.907 82.9363 23.9397 82.9677 23.9797 82.9677H24.4575C24.4975 82.9677 24.5302 82.9363 24.5302 82.8977V80.8405H25.1208C25.1608 80.8405 25.1972 80.8127 25.1972 80.7741ZM21.4564 82.8338V80.4097C21.4564 80.3711 21.4236 80.3422 21.3836 80.3422H20.9532C20.9132 80.3422 20.8804 80.3699 20.8804 80.4097V81.9047C20.8804 81.9288 20.8695 81.9361 20.8622 81.9361C20.8513 81.9361 20.8477 81.9288 20.8331 81.9083L19.9698 80.4532C19.9261 80.3796 19.8897 80.3434 19.817 80.3434H19.4484C19.372 80.3434 19.3101 80.4037 19.3101 80.4773V82.8977C19.3101 82.9363 19.3429 82.9677 19.3829 82.9677H19.8134C19.8534 82.9677 19.8861 82.9363 19.8861 82.8977V81.4667C19.8861 81.4462 19.8934 81.4389 19.9043 81.4389C19.9152 81.4389 19.9225 81.4462 19.937 81.4667L20.7676 82.8591C20.8259 82.9544 20.8804 82.9689 20.9568 82.9689H21.3145C21.3909 82.9689 21.4564 82.9086 21.4564 82.835V82.8338ZM17.3179 82.8796V82.5502C17.3179 82.5116 17.2852 82.479 17.2451 82.479H16.5043C16.3333 82.479 16.2714 82.4223 16.2714 82.2389V81.8649H17.2148C17.2548 81.8649 17.2876 81.8335 17.2876 81.7949V81.4595C17.2876 81.4208 17.2548 81.3883 17.2148 81.3883H16.2714V81.0661C16.2714 80.8827 16.3333 80.826 16.5043 80.826H17.2451C17.2852 80.826 17.3179 80.7946 17.3179 80.7548V80.4266C17.3179 80.3808 17.2961 80.3627 17.2451 80.3554C17.1178 80.3373 16.9347 80.3096 16.5418 80.3096C16.0714 80.3096 15.6518 80.423 15.6518 81.0661V82.2389C15.6518 82.882 16.0677 82.9991 16.5382 82.9991C16.9323 82.9991 17.1178 82.9713 17.2451 82.9532C17.2961 82.946 17.3179 82.9255 17.3179 82.8796ZM13.8948 80.3989C13.8948 80.3639 13.8693 80.3422 13.833 80.3422H13.3225C13.2861 80.3422 13.2606 80.3699 13.2534 80.4061L12.7974 82.4452C12.7902 82.4839 12.7793 82.4983 12.7465 82.4983C12.7138 82.4983 12.7029 82.4839 12.6956 82.4452L12.2397 80.4061C12.2324 80.3711 12.2033 80.3422 12.1669 80.3422H11.6601C11.6237 80.3422 11.5946 80.3663 11.5946 80.3989C11.5946 80.4061 11.5982 80.4097 11.5982 80.417L12.1414 82.6081C12.2251 82.9472 12.4955 83.0003 12.7465 83.0003C12.9975 83.0003 13.2643 82.9472 13.3479 82.6081L13.8912 80.417C13.8912 80.4097 13.8948 80.4025 13.8948 80.3989ZM9.78542 82.8326V80.4085C9.78542 80.3699 9.75268 80.3409 9.71267 80.3409H9.28221C9.24219 80.3409 9.20945 80.3687 9.20945 80.4085V81.9035C9.20945 81.9276 9.19854 81.9349 9.19126 81.9349C9.18035 81.9349 9.17671 81.9276 9.16216 81.9071L8.2976 80.4519C8.25395 80.3783 8.21757 80.3422 8.14482 80.3422H7.7762C7.6998 80.3422 7.63796 80.4025 7.63796 80.4761V82.8965C7.63796 82.9351 7.6707 82.9665 7.71072 82.9665H8.13997C8.17998 82.9665 8.21272 82.9351 8.21272 82.8965V81.4655C8.21272 81.445 8.22 81.4377 8.23091 81.4377C8.24182 81.4377 8.2491 81.445 8.26365 81.4655L9.09547 82.8579C9.15367 82.9532 9.20824 82.9677 9.28463 82.9677H9.64234C9.71873 82.9677 9.78421 82.9074 9.78421 82.8338L9.78542 82.8326ZM5.65784 81.8649V81.445C5.65784 80.6257 5.18009 80.3108 4.57866 80.3108C3.97722 80.3108 3.49947 80.6257 3.49947 81.445V81.8649C3.49947 82.6841 3.97722 82.9991 4.57866 82.9991C5.18009 82.9991 5.65784 82.6841 5.65784 81.8649ZM5.03094 81.8649C5.03094 82.2896 4.88544 82.4694 4.57866 82.4694C4.27188 82.4694 4.13001 82.2896 4.13001 81.8649V81.445C4.13001 81.0215 4.27188 80.8405 4.57866 80.8405C4.88544 80.8405 5.03094 81.0203 5.03094 81.445V81.8649ZM1.70245 82.8579V82.5152C1.70245 82.473 1.68062 82.444 1.63333 82.444C1.62969 82.444 1.62605 82.444 1.62242 82.444C1.48418 82.4549 1.2829 82.4718 1.08282 82.4718C0.831822 82.4718 0.630535 82.3451 0.630535 81.8745V81.4293C0.630535 80.9599 0.830609 80.832 1.08282 80.832C1.2829 80.832 1.48418 80.8501 1.62242 80.8598C1.62605 80.8598 1.62969 80.8598 1.63333 80.8598C1.68062 80.8598 1.70245 80.832 1.70245 80.7898V80.4471C1.70245 80.3977 1.67334 80.3832 1.62242 80.3699C1.54602 80.3458 1.33504 80.3096 1.07919 80.3096C0.525042 80.3096 0 80.5895 0 81.4293V81.8745C0 82.7155 0.525042 82.9979 1.07919 82.9979C1.33504 82.9979 1.54602 82.9629 1.62242 82.9375C1.67334 82.9231 1.70245 82.9062 1.70245 82.8567V82.8579Z" fill="white"/>
<path fill-rule="evenodd" clip-rule="evenodd" d="M61.3268 75.2498V67.9221C61.3268 67.8883 61.3135 67.8582 61.2917 67.8352C61.2686 67.8135 61.2383 67.7991 61.2044 67.7991H59.2461C59.2121 67.7991 59.1818 67.8123 59.16 67.8352C59.1381 67.8582 59.1236 67.8883 59.1236 67.9221V70.9471C59.1236 71.017 59.1115 71.0581 59.0896 71.0858L59.086 71.0906C59.0496 71.1341 59.0169 71.1341 58.9793 71.1341C58.9369 71.1341 58.8726 71.1341 58.7938 70.9941L56.9943 68.0524C56.9555 67.9861 56.9094 67.9197 56.8525 67.8727C56.8003 67.8304 56.7397 67.8015 56.6669 67.8015H54.9111C54.8347 67.8015 54.7644 67.834 54.7123 67.8859L54.7086 67.8895C54.6589 67.9402 54.6286 68.009 54.6286 68.0838V75.4115C54.6286 75.4428 54.6432 75.473 54.6662 75.4947C54.6917 75.5188 54.7256 75.5333 54.762 75.5333H56.7203C56.7554 75.5333 56.7906 75.5188 56.8161 75.4947C56.8391 75.473 56.8537 75.4428 56.8537 75.4115V72.4722C56.8537 72.4167 56.8646 72.3769 56.8828 72.3479C56.9119 72.3021 56.9519 72.2864 56.998 72.2864C57.0501 72.2864 57.0877 72.3033 57.1216 72.3334L57.1277 72.3395C57.1495 72.3612 57.1653 72.3865 57.1835 72.4167L58.9502 75.3463C58.9817 75.4006 59.0205 75.4501 59.0654 75.4851C59.1066 75.5164 59.1551 75.5357 59.2133 75.5357H61.0431C61.1195 75.5357 61.191 75.5032 61.2419 75.4525C61.2941 75.4006 61.3256 75.3306 61.3256 75.2546L61.3268 75.2498ZM50.5544 72.3479H50.4501C50.438 72.3515 50.4258 72.3539 50.4125 72.3527L50.1603 72.3479H49.6886C49.4388 72.3515 49.1866 72.36 48.9344 72.3733C48.681 72.3865 48.4287 72.4058 48.1802 72.43C48.1305 72.4348 48.0856 72.3986 48.0807 72.3479C48.0759 72.3009 48.1098 72.2574 48.1559 72.2502C48.5257 72.1874 48.8483 72.0861 49.0993 71.957C49.3357 71.8363 49.5067 71.6915 49.5928 71.5359L49.8753 69.7622C49.8814 69.7103 49.8887 69.6681 49.9105 69.6307C49.9408 69.5764 49.9857 69.5462 50.0621 69.5462C50.1385 69.5462 50.1833 69.5764 50.2136 69.6307C50.2343 69.6681 50.2415 69.7115 50.2488 69.7622L50.6441 72.2429C50.6526 72.2924 50.6186 72.3383 50.5689 72.3467L50.5544 72.3479ZM53.5191 75.5321C53.53 75.5321 53.5397 75.5309 53.547 75.5297C53.5652 75.5261 53.5761 75.52 53.5822 75.5116L53.5846 75.508C53.5906 75.4971 53.5931 75.4826 53.5931 75.4633C53.5931 75.4501 53.5919 75.438 53.5894 75.4259L52.3162 68.9936C52.2156 68.4808 51.9719 68.1562 51.6008 67.9619C51.2201 67.7617 50.7011 67.6929 50.0621 67.6929C49.423 67.6929 48.9041 67.7617 48.5233 67.9619C48.1523 68.1562 47.9086 68.4796 47.8079 68.9936L46.5335 75.4296C46.5323 75.4404 46.5311 75.4513 46.5311 75.4621C46.5311 75.4826 46.5347 75.4995 46.542 75.5104C46.5481 75.5188 46.559 75.5249 46.5772 75.5285C46.5844 75.5297 46.5941 75.5309 46.6063 75.5309H48.8325C48.8641 75.5309 48.8919 75.5188 48.9138 75.4971C48.9404 75.4718 48.9599 75.4344 48.9671 75.3921L49.1599 74.2012C49.1672 74.1566 49.206 74.1252 49.2497 74.1252H50.8769C50.9254 74.1252 50.9642 74.1626 50.9679 74.2097L51.1594 75.3934C51.1667 75.4356 51.1861 75.473 51.2128 75.4983C51.2346 75.5188 51.2625 75.5321 51.294 75.5321H53.5203H53.5191ZM46.5141 69.5414V67.9221C46.5141 67.8908 46.4983 67.8606 46.4753 67.8389C46.4498 67.8147 46.4159 67.8003 46.3795 67.8003H40.9108C40.8769 67.8003 40.8466 67.8135 40.8247 67.8365C40.8029 67.8594 40.7884 67.8896 40.7884 67.9233V69.5426C40.7884 69.5764 40.8029 69.6065 40.8247 69.6283L40.8284 69.6319C40.8502 69.6524 40.8793 69.6644 40.912 69.6644H42.4108C42.4605 69.6644 42.5017 69.7055 42.5017 69.7549V75.4102C42.5017 75.444 42.5163 75.4742 42.5381 75.4959L42.5417 75.4995C42.5636 75.52 42.5939 75.5321 42.6254 75.5321H44.7122C44.7462 75.5321 44.7765 75.5176 44.7995 75.4959L44.8032 75.4923C44.8238 75.4706 44.8359 75.4416 44.8359 75.409V69.7537C44.8359 69.7031 44.8771 69.6632 44.9268 69.6632H46.3819C46.4171 69.6632 46.4523 69.6488 46.4777 69.6246C46.5008 69.6029 46.5165 69.5727 46.5165 69.5414H46.5141ZM39.9638 73.1841C39.9638 72.7437 39.8668 72.3564 39.6546 72.0209C39.4412 71.6831 39.1102 71.3923 38.6433 71.1449L37.1203 70.345C36.9385 70.2521 36.8342 70.1869 36.7735 70.1302C36.6947 70.0578 36.679 69.9975 36.679 69.9251C36.679 69.8611 36.6972 69.7948 36.7517 69.7429C36.8014 69.6958 36.8778 69.6644 36.9954 69.6644C37.3471 69.6644 37.7836 69.6825 38.2116 69.7091C38.7573 69.7429 39.2872 69.7887 39.6061 69.8249C39.6607 69.831 39.6873 69.8237 39.6995 69.8092C39.7152 69.7887 39.7201 69.7489 39.7201 69.7019V68.1152C39.7201 68.0874 39.7092 68.0657 39.6934 68.0488C39.6667 68.0223 39.6231 68.0018 39.5734 67.9885L39.5697 67.9873C39.3345 67.9125 38.9052 67.8377 38.4178 67.7822C37.9546 67.7291 37.4417 67.6941 36.9954 67.6941C35.9029 67.6941 35.2057 67.9354 34.7837 68.3155C34.3678 68.6907 34.2187 69.2084 34.2187 69.7646C34.2187 70.1772 34.2829 70.5742 34.4685 70.9362C34.6552 71.2982 34.9644 71.6288 35.4567 71.9123L37.0646 72.8402C37.1955 72.9138 37.278 72.9766 37.3289 73.0357C37.3895 73.1069 37.4077 73.1732 37.4077 73.2468C37.4077 73.3651 37.3786 73.47 37.2986 73.5485L37.2962 73.5509C37.2186 73.6245 37.0997 73.6679 36.9203 73.6679C36.3516 73.6679 35.4991 73.5786 34.9511 73.5207C34.8286 73.5087 34.7025 73.4906 34.58 73.4845C34.5485 73.4845 34.5267 73.493 34.5145 73.5062C34.5 73.5219 34.4915 73.5473 34.4879 73.5762L34.4854 73.6088V75.1955C34.4854 75.2208 34.4963 75.2425 34.5133 75.2582C34.5436 75.2872 34.5909 75.3077 34.6418 75.321L34.6467 75.3222C34.9608 75.4163 35.327 75.4995 35.738 75.5575C36.0981 75.6069 36.4934 75.6371 36.9203 75.6371C37.9182 75.6371 38.6397 75.3777 39.1283 74.9807C39.7104 74.5077 39.965 73.8381 39.965 73.1829L39.9638 73.1841ZM30.6743 70.4789C30.6743 70.6611 30.604 70.8409 30.4379 70.9664C30.3045 71.0689 30.1105 71.1341 29.8437 71.1341H29.041C28.9901 71.1341 28.9501 71.0931 28.9501 71.0436V69.7019C28.9501 69.6524 28.9913 69.6114 29.041 69.6114H29.8437C30.1396 69.6114 30.3433 69.6693 30.4755 69.7791C30.6149 69.8937 30.6731 70.059 30.6731 70.2665V70.4801L30.6743 70.4789ZM33.285 75.4308C33.285 75.4115 33.2777 75.3837 33.2619 75.3547C32.897 74.6272 32.4762 73.9141 32.11 73.1865C32.0858 73.1455 32.0397 73.1165 31.9875 73.096C31.8978 73.061 31.796 73.0538 31.7378 73.0574C31.1254 73.096 30.5531 73.0417 30.2802 73.0079C30.2233 73.0007 30.1808 72.9946 30.1541 72.9898C29.9747 72.9609 29.9698 72.8848 30.0777 72.8161C30.0911 72.8076 30.1056 72.8028 30.1202 72.8016C30.4124 72.7799 30.7034 72.7389 30.9884 72.6809C31.2733 72.6218 31.5571 72.5458 31.8348 72.4505C32.1391 72.3141 32.4641 72.0571 32.6945 71.671C32.8812 71.3573 33.0049 70.9591 33.0049 70.4692V70.2569C33.0049 69.2844 32.6848 68.6449 32.1064 68.2515C31.5195 67.8521 30.6646 67.6965 29.6061 67.6965C29.2532 67.6965 28.7888 67.7134 28.362 67.7363H28.3607C27.8915 67.7616 27.4634 67.7954 27.2755 67.8232H27.2743C27.0075 67.8678 26.8378 67.9221 26.7395 68.0331C26.6401 68.1466 26.6037 68.3312 26.6037 68.6376V75.4115C26.6037 75.4428 26.6183 75.473 26.6413 75.4947C26.6668 75.5188 26.7007 75.5333 26.7371 75.5333H28.8239C28.8579 75.5333 28.8882 75.5188 28.9113 75.4971L28.9149 75.4935C28.9355 75.4718 28.9476 75.4428 28.9476 75.4102V72.9078C28.9476 72.8571 28.9889 72.8173 29.0386 72.8173H29.3805C29.4181 72.8173 29.4508 72.8402 29.4642 72.8728C29.8801 73.6908 30.3675 74.5644 30.7459 75.3909C30.7822 75.4633 30.8186 75.5321 30.9435 75.5321H33.1807C33.2074 75.5321 33.2341 75.5213 33.2535 75.502L33.2571 75.4983C33.2729 75.4814 33.2813 75.4585 33.2813 75.4308H33.285ZM22.5877 72.3479H22.4798C22.4701 72.3515 22.4592 72.3527 22.4495 72.3527L22.1924 72.3479H21.7207C21.4709 72.3515 21.2187 72.36 20.9665 72.3733C20.7131 72.3865 20.4609 72.4058 20.2123 72.43C20.1626 72.4348 20.1177 72.3986 20.1129 72.3479C20.108 72.3009 20.142 72.2574 20.188 72.2502C20.5603 72.1874 20.8841 72.0849 21.1351 71.9558C21.3715 71.8339 21.5425 71.6891 21.6274 71.5323L21.9099 69.7634C21.9172 69.7115 21.9232 69.6693 21.9451 69.6319C21.9754 69.5776 22.0202 69.5474 22.0966 69.5474C22.173 69.5474 22.2179 69.5776 22.2482 69.6319C22.27 69.6705 22.2773 69.7139 22.2834 69.7658L22.6787 72.2441C22.6859 72.2936 22.6532 72.3395 22.6035 72.3479L22.5889 72.3491L22.5877 72.3479ZM25.5524 75.5321C25.5646 75.5321 25.5743 75.5309 25.5803 75.5297C25.5973 75.5261 25.6094 75.52 25.6155 75.5116L25.6179 75.508C25.624 75.4971 25.6264 75.4826 25.6264 75.4633C25.6264 75.4501 25.6252 75.438 25.6228 75.4259L24.3484 68.9936C24.2477 68.4808 24.004 68.1562 23.6329 67.9619C23.2522 67.7617 22.7332 67.6929 22.0942 67.6929C21.4552 67.6929 20.9362 67.7617 20.5554 67.9619C20.1844 68.1562 19.9407 68.4796 19.84 68.9936L18.5656 75.4308C18.5644 75.4416 18.5632 75.4525 18.5632 75.4633C18.5632 75.4839 18.5668 75.5007 18.5741 75.5116C18.5802 75.52 18.5911 75.5261 18.6093 75.5297C18.6178 75.5309 18.6275 75.5321 18.6384 75.5321H20.8647C20.8962 75.5321 20.9253 75.52 20.9459 75.4983C20.9726 75.473 20.992 75.4356 20.9992 75.3934L21.192 74.2024C21.1993 74.1578 21.2381 74.1264 21.2818 74.1264H22.909C22.9575 74.1264 22.9963 74.1638 23 74.2109L23.1916 75.3946C23.1988 75.4368 23.2182 75.4742 23.2449 75.4995C23.2668 75.52 23.2946 75.5333 23.3262 75.5333H25.5524V75.5321ZM18.5474 69.5414V67.9221C18.5474 67.8908 18.5329 67.8606 18.5086 67.8389C18.4832 67.8147 18.4492 67.8003 18.4128 67.8003H12.9442C12.9102 67.8003 12.8799 67.8135 12.8581 67.8365C12.8362 67.8594 12.8217 67.8896 12.8217 67.9233V69.5426C12.8217 69.5764 12.8362 69.6065 12.8581 69.6283L12.8617 69.6319C12.8835 69.6524 12.9126 69.6644 12.9442 69.6644H14.4429C14.4938 69.6644 14.5338 69.7055 14.5338 69.7549V75.4102C14.5338 75.444 14.5472 75.4742 14.5702 75.4959L14.5714 75.4971C14.5933 75.5188 14.6236 75.5321 14.6575 75.5321H16.7443C16.7783 75.5321 16.8086 75.5176 16.8304 75.4959L16.8341 75.4923C16.8547 75.4706 16.8668 75.4416 16.8668 75.409V69.7537C16.8668 69.7031 16.908 69.6632 16.9578 69.6632H18.4128C18.4492 69.6632 18.4832 69.6488 18.5086 69.6246C18.5317 69.6029 18.5474 69.5727 18.5474 69.5414ZM9.76602 72.3479H9.6581C9.6484 72.3515 9.63749 72.3527 9.62779 72.3527L9.37072 72.3479H8.89903C8.64925 72.3515 8.39703 72.36 8.14482 72.3733C7.89139 72.3865 7.63918 72.4058 7.3906 72.43C7.34088 72.4348 7.29602 72.3986 7.29117 72.3479C7.28632 72.3009 7.32027 72.2574 7.36635 72.2502C7.73739 72.1874 8.06115 72.0849 8.31336 71.9558C8.54982 71.8339 8.72079 71.6891 8.80567 71.5323L9.0882 69.7634C9.09426 69.7115 9.10153 69.6693 9.12336 69.6319C9.15368 69.5776 9.19854 69.5474 9.27493 69.5474C9.35132 69.5474 9.39619 69.5776 9.4265 69.6319C9.44712 69.6693 9.45439 69.7127 9.46167 69.7634L9.85818 72.2441C9.86545 72.2936 9.8315 72.3395 9.783 72.3479L9.76845 72.3491L9.76602 72.3479ZM12.7307 75.5321C12.7429 75.5321 12.7514 75.5309 12.7586 75.5297C12.7756 75.5261 12.7877 75.52 12.7938 75.5116L12.7962 75.508C12.8023 75.4971 12.8047 75.4826 12.8047 75.4633C12.8047 75.4501 12.8035 75.438 12.8011 75.4259L11.5267 68.9936C11.426 68.4808 11.1823 68.1562 10.8113 67.9619C10.4305 67.7617 9.91153 67.6929 9.27251 67.6929C8.63348 67.6929 8.1145 67.7617 7.73376 67.9619C7.36271 68.1562 7.11899 68.4796 7.01834 68.9936L5.74393 75.4308C5.74272 75.4416 5.74151 75.4525 5.74151 75.4633C5.74151 75.4839 5.74515 75.5007 5.75242 75.5116L5.75485 75.514C5.76091 75.5213 5.77182 75.5261 5.78759 75.5297C5.79607 75.5309 5.80577 75.5321 5.81669 75.5321H8.04296C8.07449 75.5321 8.10359 75.52 8.1242 75.4983C8.15088 75.473 8.17028 75.4356 8.17756 75.3934L8.37035 74.2024C8.37763 74.1578 8.41643 74.1264 8.46009 74.1264H10.0874C10.1359 74.1264 10.1747 74.1638 10.1783 74.2109L10.3699 75.3946C10.3772 75.4368 10.3966 75.4742 10.4232 75.4995C10.4451 75.52 10.4729 75.5333 10.5045 75.5333H12.7307V75.5321ZM5.72574 69.5414V67.9221C5.72574 67.8908 5.71119 67.8606 5.68694 67.8389C5.66148 67.8147 5.62753 67.8003 5.59115 67.8003H0.122469C0.0885174 67.8003 0.0582033 67.8135 0.036377 67.8365C0.0145508 67.8594 0 67.8896 0 67.9233V69.5426C0 69.5764 0.0145508 69.6065 0.036377 69.6283L0.0400147 69.6319C0.061841 69.6524 0.0909426 69.6644 0.122469 69.6644H1.6212C1.67213 69.6644 1.71215 69.7055 1.71215 69.7549V75.4102C1.71215 75.444 1.72548 75.4742 1.74852 75.4959C1.77035 75.5176 1.80188 75.5321 1.83461 75.5321H3.92144C3.9554 75.5321 3.98571 75.5176 4.00754 75.4959L4.01117 75.4923C4.03179 75.4706 4.04391 75.4416 4.04391 75.409V69.7537C4.04391 69.7031 4.08514 69.6632 4.13486 69.6632H5.58994C5.62631 69.6632 5.66027 69.6488 5.68573 69.6246C5.70877 69.6029 5.72453 69.5727 5.72453 69.5414H5.72574Z" fill="white"/>
</svg>
