<svg width="42" height="55" viewBox="0 0 42 55" fill="none" xmlns="http://www.w3.org/2000/svg">
<path fill-rule="evenodd" clip-rule="evenodd" d="M10.2372 36.387C9.63493 36.3528 8.67464 36.2761 6.63854 34.8844C6.19444 34.5811 5.37508 33.8725 4.80973 33.9875C4.58194 34.034 4.04363 34.4604 3.89205 34.3911C3.71752 34.3112 3.89123 33.9052 3.2808 34.1457C2.6671 34.387 2.47456 34.8607 2.51388 35.3948C2.55731 35.9834 1.84201 36.1041 1.27256 36.1995C0.554799 36.3201 -0.0228492 36.1351 0.00337026 35.3108C0.154132 30.6749 8.21662 32.2134 8.19941 32.4922C8.10764 33.9476 10.2494 35.3426 10.2388 36.3878L10.2372 36.387ZM26.6719 44.6829C27.2544 44.1472 29.4372 41.2178 29.4388 40.4995C29.4413 39.3621 28.6637 38.8843 28.8923 37.1175C28.93 36.824 29.2856 35.9973 29.2946 35.9622C28.4351 34.7792 26.703 32.7914 24.6456 34.3283C24.3481 35.5138 25.0462 38.153 26.0287 39.1941C26.3261 39.5097 26.544 39.7624 26.2466 40.6764C26.0917 41.1411 25.9541 41.5162 25.7681 41.9312C25.6075 42.2899 25.383 42.7783 25.1495 43.0474C24.3187 44.0054 23.5689 42.2557 23.0052 44.0045C22.6898 44.9837 23.2166 44.9112 23.2764 44.9161H26.172C26.408 44.8394 26.4719 44.8615 26.6727 44.6829H26.6719ZM3.17511 21.8539C3.06941 21.9558 3.04155 21.9623 2.94896 22.0895C2.81295 22.2787 2.56387 22.2053 2.35657 22.3317C2.1673 22.4466 2.22301 22.3496 2.2861 22.2094C2.34919 22.0691 2.4131 21.9281 2.45981 21.7813C2.61794 21.7438 2.95962 21.7185 3.10546 21.7903C3.12021 21.7976 3.19641 21.827 3.17429 21.8547L3.17511 21.8539ZM18.3709 27.7943C18.5069 27.7943 18.6413 27.8025 18.7732 27.8188C18.9789 27.8661 19.1813 27.9101 19.382 27.9517C20.7184 28.3781 21.6861 29.628 21.6861 31.1029C21.6861 32.9292 20.2014 34.4098 18.3709 34.4098C16.5405 34.4098 15.0558 32.9284 15.0558 31.1029C15.0558 29.2758 16.5405 27.7951 18.3709 27.7951V27.7943ZM18.316 30.493C18.3611 30.4816 18.3955 30.4816 18.4291 30.493C18.5864 30.2794 18.7224 30.0316 18.8232 29.7845C18.9027 29.5937 18.9584 29.4021 18.9813 29.1885C18.9928 29.0197 18.9928 28.8281 18.9248 28.6708C18.8798 28.5477 18.756 28.4572 18.6544 28.4009C18.5758 28.3561 18.4856 28.3332 18.4062 28.3332C18.3832 28.3218 18.3726 28.3218 18.3496 28.3332C18.2595 28.3332 18.1808 28.3561 18.1014 28.4009C17.9891 28.4572 17.876 28.5477 17.8195 28.6708C17.7515 28.8281 17.763 29.0197 17.7736 29.1885C17.7966 29.4021 17.8531 29.5937 17.9203 29.7845C18.0325 30.0324 18.1571 30.2794 18.3144 30.493H18.316ZM17.899 30.7067C17.9219 30.6846 17.944 30.6504 17.9785 30.6276C17.9334 30.3691 17.8654 30.1098 17.7531 29.8514C17.6859 29.6712 17.5729 29.4918 17.4492 29.3336C17.3361 29.1983 17.2009 29.0638 17.0436 28.9961C16.9084 28.9398 16.7732 28.9627 16.6486 28.9961C16.57 29.0189 16.4905 29.0638 16.4233 29.12C16.4118 29.1314 16.4004 29.1429 16.3897 29.1649C16.3332 29.2211 16.2881 29.2994 16.2652 29.3785C16.2316 29.5024 16.2086 29.6484 16.2545 29.7723C16.3225 29.9296 16.4577 30.065 16.5929 30.1775C16.7502 30.3128 16.9313 30.4139 17.123 30.4922C17.3713 30.5933 17.6417 30.6724 17.9006 30.7058L17.899 30.7067ZM17.7638 31.1681C17.7523 31.1233 17.7523 31.089 17.7638 31.0556C17.5385 30.8983 17.3008 30.7629 17.0534 30.6618C16.8617 30.5827 16.6585 30.5265 16.4561 30.5045C16.2873 30.493 16.0956 30.493 15.9374 30.5607C15.8022 30.6064 15.7228 30.7295 15.6556 30.8306C15.622 30.9089 15.599 30.9994 15.5876 31.0784C15.5876 31.1013 15.5876 31.1119 15.5876 31.1347C15.599 31.2244 15.6212 31.3035 15.6556 31.3826C15.7228 31.4951 15.8022 31.6076 15.9374 31.6638C16.0956 31.7315 16.2873 31.7201 16.4561 31.7087C16.6593 31.6859 16.8617 31.6304 17.0534 31.5627C17.3017 31.4502 17.5385 31.3263 17.7638 31.1689V31.1681ZM17.9785 31.5839C17.9449 31.5619 17.9219 31.5391 17.899 31.5057C17.6392 31.5505 17.3689 31.6182 17.1214 31.7307C16.9297 31.7984 16.7494 31.9109 16.5913 32.034C16.4561 32.1465 16.3209 32.2819 16.2529 32.4392C16.2078 32.5746 16.2299 32.7091 16.2635 32.833C16.2865 32.9121 16.3315 32.9904 16.3881 33.058C16.3996 33.0695 16.4102 33.0809 16.4217 33.0923C16.4889 33.1485 16.5683 33.1934 16.647 33.2162C16.7715 33.2496 16.9059 33.2725 17.0419 33.2276C17.1992 33.16 17.3353 33.0246 17.4475 32.8901C17.5712 32.7327 17.6843 32.5525 17.7515 32.3618C17.8646 32.1139 17.9318 31.844 17.9768 31.5856L17.9785 31.5839ZM18.316 31.7193C18.3611 31.7307 18.3955 31.7307 18.4291 31.7193C18.5864 31.9443 18.7224 32.1808 18.8232 32.4278C18.9027 32.6194 18.9584 32.8216 18.9813 33.0238C18.9928 33.1926 18.9928 33.3842 18.9248 33.5415C18.8798 33.6761 18.756 33.7551 18.6544 33.8228C18.5758 33.8562 18.4856 33.8791 18.4062 33.8905C18.3832 33.8905 18.3726 33.8905 18.3496 33.8905C18.2595 33.8791 18.1808 33.8571 18.1014 33.8228C17.9891 33.7551 17.876 33.6769 17.8195 33.5415C17.7515 33.3842 17.763 33.1926 17.7736 33.0238C17.7966 32.8216 17.8531 32.6186 17.9203 32.4278C18.0325 32.1808 18.1571 31.9443 18.3144 31.7193H18.316ZM18.7782 31.5839C18.8011 31.5619 18.8347 31.5391 18.8568 31.5057C19.1051 31.5505 19.364 31.6182 19.6237 31.7307C19.804 31.7984 19.9842 31.9109 20.1424 32.034C20.2776 32.1465 20.4242 32.2819 20.4808 32.4392C20.5373 32.5746 20.5144 32.7091 20.4808 32.833C20.4578 32.9121 20.4128 32.9904 20.3571 33.058C20.3456 33.0695 20.3341 33.0809 20.312 33.0923C20.2555 33.1485 20.1768 33.1934 20.0981 33.2162C19.9736 33.2496 19.8277 33.2725 19.7032 33.2276C19.5459 33.16 19.4107 33.0246 19.2976 32.8901C19.1624 32.7327 19.0723 32.5525 18.9936 32.3618C18.892 32.1139 18.8126 31.844 18.779 31.5856L18.7782 31.5839ZM18.9928 31.1681C19.0043 31.1233 19.0043 31.089 18.9928 31.0556C19.196 30.8983 19.4435 30.7629 19.6917 30.6618C19.8835 30.5827 20.0752 30.5265 20.289 30.5045C20.4578 30.493 20.6496 30.493 20.8077 30.5607C20.9322 30.6064 21.0224 30.7295 21.0781 30.8306C21.1232 30.9089 21.1453 30.9994 21.1453 31.0784C21.1567 31.1013 21.1567 31.1119 21.1453 31.1347C21.1453 31.2244 21.1232 31.3035 21.0781 31.3826C21.0216 31.4951 20.9314 31.6076 20.8077 31.6638C20.6496 31.7315 20.4578 31.7201 20.289 31.7087C20.0752 31.6859 19.8835 31.6304 19.6917 31.5627C19.4435 31.4502 19.196 31.3263 18.9928 31.1689V31.1681ZM18.8576 30.7067C18.8347 30.6846 18.8011 30.6504 18.779 30.6276C18.8126 30.3691 18.8912 30.1098 18.9936 29.8514C19.0723 29.6712 19.1624 29.4918 19.2976 29.3336C19.4107 29.1983 19.5459 29.0638 19.7032 28.9961C19.8269 28.9398 19.9736 28.9627 20.0981 28.9961C20.1768 29.0189 20.2563 29.0638 20.312 29.12C20.3349 29.1314 20.3464 29.1429 20.3571 29.1649C20.4136 29.2211 20.4587 29.2994 20.4808 29.3785C20.5144 29.5024 20.5373 29.6484 20.4808 29.7723C20.4242 29.9296 20.2776 30.065 20.1424 30.1775C19.9842 30.3128 19.804 30.4139 19.6237 30.4922C19.3648 30.5933 19.1051 30.6724 18.8568 30.7058L18.8576 30.7067ZM18.3726 30.7629C18.5643 30.7629 18.7224 30.9203 18.7224 31.1119C18.7224 31.3035 18.5643 31.4608 18.3726 31.4608C18.1808 31.4608 18.0227 31.3035 18.0227 31.1119C18.0227 30.9203 18.1808 30.7629 18.3726 30.7629ZM18.3726 34.2019C16.6749 34.2019 15.2762 32.8061 15.2762 31.1119C15.2762 29.407 16.6757 28.0218 18.3726 28.0218C20.0703 28.0218 21.4583 29.407 21.4583 31.1119C21.4583 32.8053 20.0703 34.2019 18.3726 34.2019ZM18.3726 34.2019C16.6749 34.2019 15.2762 32.8061 15.2762 31.1119C15.2762 29.407 16.6757 28.0218 18.3726 28.0218C20.0703 28.0218 21.4583 29.407 21.4583 31.1119C21.4583 32.8053 20.0703 34.2019 18.3726 34.2019ZM21.7074 28.9945C22.0834 29.5497 22.312 30.2289 22.312 31.1021C22.312 33.2741 20.5471 35.0344 18.3709 35.0344C16.1939 35.0344 14.4298 33.2741 14.4298 31.1021C14.4298 29.3222 15.6154 27.8188 17.2402 27.3345C14.089 25.734 11.6112 23.8074 9.19248 21.5759C7.3776 19.7112 8.04128 21.8148 7.47018 21.7887C7.3186 21.7821 6.90483 20.2053 6.69343 19.8156C6.58446 19.6126 6.47302 19.3973 6.30178 19.2595C6.01091 19.0345 5.79869 18.9946 5.58402 19.1054C5.48406 19.1658 5.38 19.2652 5.26857 19.3908C5.13911 19.5465 4.96868 19.7993 4.90395 20.0161C4.8933 20.0814 4.6901 20.0773 4.5844 20.1132C4.24027 20.2159 3.88221 20.3097 3.54054 20.4238C3.41108 20.4654 3.29555 20.5168 3.18084 20.5681C2.56796 20.8266 2.53355 20.7891 2.33608 21.019C2.11732 21.275 1.72075 21.8555 1.50525 22.0561C1.38891 22.158 1.20947 22.1474 1.09312 22.2501C0.584295 22.723 0.154132 23.1755 9.28244e-05 23.8188C-0.00482333 24.1083 0.186087 24.2689 0.441727 24.7083C0.756361 25.2505 0.869432 25.1241 1.31598 25.4617C1.33729 25.7226 1.38972 26.1229 1.579 26.277C1.74778 26.4132 2.17385 26.4759 2.42785 26.4735C2.976 26.467 3.40207 25.6663 3.84206 25.394C4.61472 24.8999 5.83802 25.3883 6.4214 25.9476C8.43211 27.8783 8.58041 32.3577 9.12529 33.4616C9.7521 34.7311 10.451 34.8322 10.8001 36.4278C11.036 37.5064 11.231 38.9675 11.3072 39.5015C11.3957 40.1367 11.6407 42.7367 11.3802 43.2186C11.077 43.7771 10.6411 43.0359 10.0405 43.5545C9.72342 43.8284 9.24819 44.8117 9.51366 44.9112L9.7947 44.9161H12.5092C12.737 44.8981 12.9304 44.8411 13.0631 44.6959C13.0893 44.656 13.1156 44.6103 13.141 44.5573C13.218 44.4008 13.227 44.1978 13.3048 44.0518C13.4425 43.7958 13.6252 43.9418 13.7596 43.8276C13.957 43.5806 13.8727 42.8761 13.8784 42.4701C13.8849 42.0078 13.8989 41.548 13.9153 41.0808C13.962 40.2296 14.2938 39.0784 14.5445 38.2573C15.1582 36.2484 14.9444 36.5101 14.6986 34.4791C14.8379 34.5615 14.8608 34.6373 14.9788 34.7515C16.198 35.932 15.9735 37.2317 17.1624 37.2039C19.5066 37.1493 20.7397 36.7082 22.616 35.2594C23.6402 34.4677 25.3658 32.8648 26.7784 33.1877C30.1009 33.9467 29.9509 39.0327 36.8327 39.6149C37.7135 39.6263 38.142 39.4673 38.6509 39.9679C38.8287 40.1424 38.7934 41.5724 38.7943 41.8888C38.7959 42.541 38.6714 43.3425 37.8676 43.0506C37.199 43.1966 36.9556 44.488 37.1949 44.9169H40.1855C40.2798 44.8835 40.3396 44.8297 40.4158 44.7856C40.7746 44.5541 41.0893 44.1423 41.2163 43.7567C41.2482 43.6466 41.2704 43.5626 41.2908 43.4493C41.3507 43.1175 41.381 42.7547 41.3892 42.3772C41.4137 41.1933 41.1589 39.8529 40.9459 38.815C40.6354 37.3002 39.7652 37.4477 38.5362 36.9977C34.4082 35.4853 34.8212 33.4445 32.8703 30.9798C32.2787 30.2338 31.6322 29.4967 30.7842 29.0352C31.2914 29.2758 31.7183 29.5041 32.0845 29.6728C32.6089 29.9142 32.5983 29.9044 33.1448 29.7169C36.1059 28.7034 36.1748 26.0675 35.7479 23.1331C35.4505 21.0899 35.2964 19.3085 35.8052 18.1287C36.3329 16.9033 37.1965 16.5192 38.2084 16.4026C39.5489 16.2485 41.2622 16.878 41.431 15.0451C41.4727 14.5861 41.2007 14.1556 40.8173 13.8947C38.9163 12.6008 34.7466 13.717 33.5807 16.2958C32.0632 19.6517 34.0731 24.5281 33.3963 26.0715C32.6646 27.7397 29.6052 28.0267 27.7075 28.1677C26.4916 28.2582 25.2888 28.4833 24.2113 28.4091C23.6804 28.3724 23.6558 28.4825 23.3616 27.7715C22.1736 24.8975 20.3259 24.1311 19.5393 23.7568C23.2641 24.5901 23.75 27.5758 24.4104 27.3231C25.2921 26.9863 26.7341 22.613 26.4957 21.7471C26.4047 21.4177 26.0721 21.4805 25.4535 22.0186C24.6956 22.6765 23.6419 23.2318 23.4837 23.1967C25.4084 21.6533 28.0418 18.7622 29.0029 16.6C29.8411 14.7133 29.4945 13.9999 28.0443 15.7251C27.1291 16.8136 24.9168 18.8723 23.8197 19.4112C25.038 18.0953 32.2296 11.3281 31.0956 7.77083C30.9243 7.23354 30.4974 7.52624 30.0361 8.22252C28.0353 11.2384 24.3375 15.3541 20.7217 18.242C22.8373 15.8262 28.1827 10.8079 30.98 4.81366C31.7437 3.17812 32.6876 0 29.86 0C28.0893 0 28.2516 2.37096 27.946 3.57111C27.7305 4.41823 27.4191 5.18952 27.0479 5.90945C26.0745 7.79529 24.6816 9.33054 23.4772 10.9473C21.5492 13.5343 18.7855 15.9722 16.4938 18.2738C16.2766 18.4923 15.8612 18.9954 15.667 19.0867C15.717 18.7279 21.4886 12.3342 22.1752 11.4357C27.5797 4.36442 25.773 0.934359 24.2547 1.35099C22.9987 1.69505 23.0659 3.90213 22.8037 5.02483C21.945 8.70275 19.4238 12.3497 17.1984 15.0166C16.1062 16.326 14.6576 18.0243 13.939 19.9795C12.9033 22.798 14.3684 24.7532 16.6339 26.0927C18.2759 27.0638 20.6594 27.4551 21.7049 28.9961L21.7074 28.9945Z" fill="#013220"/>
<path fill-rule="evenodd" clip-rule="evenodd" d="M41.4401 54.3119V53.2496C41.4401 53.2235 41.4155 53.2039 41.3884 53.2039H41.0681C41.041 53.2039 41.0189 53.2227 41.0189 53.2496V54.3119C41.0189 54.5557 40.9501 54.6576 40.728 54.6576C40.506 54.6576 40.4396 54.5549 40.4396 54.3119V53.2496C40.4396 53.2235 40.4175 53.2039 40.3905 53.2039H40.0676C40.0406 53.2039 40.0185 53.2227 40.0185 53.2496V54.3119C40.0185 54.8566 40.3364 54.9992 40.728 54.9992C41.1197 54.9992 41.4401 54.8557 41.4401 54.3119ZM38.8214 54.9397C38.8214 54.9373 38.8189 54.9324 38.8189 54.9283L38.4519 53.4477C38.3953 53.2186 38.2159 53.1827 38.0455 53.1827C37.8759 53.1827 37.6931 53.2186 37.6366 53.4477L37.2695 54.9283C37.2695 54.9332 37.2671 54.9381 37.2671 54.9397C37.2671 54.9634 37.2843 54.978 37.3089 54.978H37.6538C37.6784 54.978 37.6981 54.9593 37.703 54.9348L37.7915 54.5435H38.2962L38.3847 54.9348C38.3896 54.9585 38.4093 54.978 38.4338 54.978H38.7788C38.8034 54.978 38.8206 54.9642 38.8206 54.9397H38.8214ZM38.2282 54.2165H37.8611L38.011 53.5577C38.016 53.5341 38.0233 53.5219 38.0455 53.5219C38.0676 53.5219 38.0725 53.5341 38.0774 53.5577L38.2282 54.2165ZM36.0479 54.9185V54.6959C36.0479 54.6698 36.0257 54.6478 35.9987 54.6478H35.4989C35.3834 54.6478 35.3416 54.6095 35.3416 54.4856V54.2328H35.9799C36.0069 54.2328 36.029 54.2116 36.029 54.1855V53.9589C36.029 53.9328 36.0069 53.9108 35.9799 53.9108H35.3416V53.6931C35.3416 53.5692 35.3834 53.5308 35.4989 53.5308H35.9987C36.0257 53.5308 36.0479 53.5096 36.0479 53.4827V53.261C36.0479 53.23 36.0331 53.2178 35.9987 53.2129C35.9127 53.2006 35.7889 53.1819 35.5235 53.1819C35.2056 53.1819 34.9221 53.2585 34.9221 53.6931V54.4856C34.9221 54.9202 35.2031 54.9992 35.521 54.9992C35.7873 54.9992 35.9127 54.9805 35.9987 54.9683C36.0331 54.9634 36.0479 54.9495 36.0479 54.9185ZM33.6898 54.9495C33.6898 54.9422 33.6873 54.9332 33.6824 54.9234L33.3104 54.25C33.4898 54.1807 33.6283 54.0257 33.6283 53.7722V53.7412C33.6283 53.3189 33.3055 53.1827 32.8868 53.1827C32.7098 53.1827 32.5 53.1974 32.387 53.2137C32.3108 53.2259 32.2764 53.2471 32.2764 53.3286V54.9308C32.2764 54.9568 32.2985 54.978 32.3255 54.978H32.6459C32.6729 54.978 32.695 54.9568 32.695 54.9308V54.3242C32.7417 54.3242 32.818 54.329 32.8696 54.329L32.8966 54.3266L33.2268 54.9308C33.2391 54.9544 33.2489 54.978 33.276 54.978H33.6529C33.6799 54.978 33.6898 54.9658 33.6898 54.9495ZM33.2096 53.7722C33.2096 53.9344 33.1285 53.9988 32.8696 53.9988C32.8425 53.9988 32.7221 53.9964 32.695 53.9939V53.5357C32.7245 53.5333 32.8524 53.5284 32.8876 53.5284C33.0941 53.5284 33.2104 53.5953 33.2104 53.7412V53.7722H33.2096ZM30.9031 54.3119V53.2496C30.9031 53.2235 30.8785 53.2039 30.8515 53.2039H30.5311C30.5041 53.2039 30.482 53.2227 30.482 53.2496V54.3119C30.482 54.5557 30.4131 54.6576 30.1911 54.6576C29.969 54.6576 29.9027 54.5549 29.9027 54.3119V53.2496C29.9027 53.2235 29.8806 53.2039 29.8535 53.2039H29.5307C29.5036 53.2039 29.4815 53.2227 29.4815 53.2496V54.3119C29.4815 54.8566 29.7994 54.9992 30.1911 54.9992C30.5827 54.9992 30.9031 54.8557 30.9031 54.3119ZM28.1681 54.4644V54.4285C28.1681 54.2638 28.0796 54.1374 27.9485 54.0755C28.0788 54.0135 28.155 53.8798 28.155 53.7241V53.6809C28.155 53.3009 27.842 53.1819 27.3766 53.1819C27.2185 53.1819 27.0194 53.1966 26.9358 53.208C26.8399 53.2227 26.8055 53.2561 26.8055 53.3629V54.8142C26.8055 54.9218 26.8424 54.9528 26.9407 54.9691C27.0366 54.9862 27.2291 54.9976 27.3913 54.9976C27.8174 54.9976 28.1673 54.8835 28.1673 54.4628L28.1681 54.4644ZM27.7494 53.7436C27.7494 53.8464 27.6929 53.9328 27.4979 53.9328H27.2226V53.5194C27.257 53.517 27.37 53.517 27.4094 53.517C27.6634 53.517 27.7494 53.5765 27.7494 53.7078V53.7436ZM27.7592 54.4554C27.7592 54.5891 27.6781 54.6658 27.4241 54.6658C27.3897 54.6658 27.2619 54.6633 27.2226 54.6633V54.2165H27.4979C27.6953 54.2165 27.7592 54.3144 27.7592 54.4293V54.4554ZM24.3032 54.8875V53.2496C24.3032 53.2235 24.2811 53.2039 24.254 53.2039H23.9631C23.9361 53.2039 23.914 53.2227 23.914 53.2496V54.2597C23.914 54.276 23.9066 54.2809 23.9017 54.2809C23.8943 54.2809 23.8919 54.276 23.882 54.2622L23.2986 53.2789C23.2691 53.2292 23.2446 53.2047 23.1954 53.2047H22.9463C22.8947 53.2047 22.8529 53.2455 22.8529 53.2952V54.9308C22.8529 54.9568 22.875 54.978 22.9021 54.978H23.1929C23.22 54.978 23.2421 54.9568 23.2421 54.9308V53.9638C23.2421 53.9499 23.247 53.945 23.2544 53.945C23.2618 53.945 23.2667 53.9499 23.2765 53.9638L23.8378 54.9047C23.8771 54.9691 23.914 54.9789 23.9656 54.9789H24.2073C24.2589 54.9789 24.3032 54.9381 24.3032 54.8884V54.8875ZM21.5141 54.2337V53.9499C21.5141 53.3963 21.1913 53.1835 20.7849 53.1835C20.3785 53.1835 20.0556 53.3963 20.0556 53.9499V54.2337C20.0556 54.7873 20.3785 55.0001 20.7849 55.0001C21.1913 55.0001 21.5141 54.7873 21.5141 54.2337ZM21.0905 54.2337C21.0905 54.5206 20.9922 54.6421 20.7849 54.6421C20.5784 54.6421 20.4817 54.5206 20.4817 54.2337V53.9499C20.4817 53.6637 20.5776 53.5414 20.7849 53.5414C20.9922 53.5414 21.0905 53.6629 21.0905 53.9499V54.2337ZM18.7176 54.9308V53.2496C18.7176 53.2235 18.6979 53.2039 18.6709 53.2039H18.3407C18.3137 53.2039 18.2965 53.2227 18.2965 53.2496V54.9308C18.2965 54.9568 18.3137 54.978 18.3407 54.978H18.6709C18.6979 54.978 18.7176 54.9568 18.7176 54.9308ZM17.0273 53.4958V53.2504C17.0273 53.2243 17.0027 53.2047 16.9757 53.2047H15.754C15.727 53.2047 15.7048 53.2235 15.7048 53.2504V53.4958C15.7048 53.5219 15.727 53.5406 15.754 53.5406H16.1555V54.9308C16.1555 54.9568 16.1776 54.978 16.2046 54.978H16.5275C16.5545 54.978 16.5766 54.9568 16.5766 54.9308V53.5406H16.9757C17.0027 53.5406 17.0273 53.5219 17.0273 53.4958ZM14.4996 54.8875V53.2496C14.4996 53.2235 14.4774 53.2039 14.4504 53.2039H14.1595C14.1325 53.2039 14.1104 53.2227 14.1104 53.2496V54.2597C14.1104 54.276 14.103 54.2809 14.0981 54.2809C14.0907 54.2809 14.0882 54.276 14.0784 54.2622L13.495 53.2789C13.4655 53.2292 13.4409 53.2047 13.3918 53.2047H13.1427C13.0911 53.2047 13.0493 53.2455 13.0493 53.2952V54.9308C13.0493 54.9568 13.0714 54.978 13.0985 54.978H13.3893C13.4164 54.978 13.4385 54.9568 13.4385 54.9308V53.9638C13.4385 53.9499 13.4434 53.945 13.4508 53.945C13.4581 53.945 13.4631 53.9499 13.4729 53.9638L14.0342 54.9047C14.0735 54.9691 14.1104 54.9789 14.162 54.9789H14.4037C14.4553 54.9789 14.4996 54.9381 14.4996 54.8884V54.8875ZM11.7031 54.9185V54.6959C11.7031 54.6698 11.681 54.6478 11.6539 54.6478H11.1533C11.0378 54.6478 10.996 54.6095 10.996 54.4856V54.2328H11.6334C11.6605 54.2328 11.6826 54.2116 11.6826 54.1855V53.9589C11.6826 53.9328 11.6605 53.9108 11.6334 53.9108H10.996V53.6931C10.996 53.5692 11.0378 53.5308 11.1533 53.5308H11.6539C11.681 53.5308 11.7031 53.5096 11.7031 53.4827V53.261C11.7031 53.23 11.6883 53.2178 11.6539 53.2129C11.5679 53.2006 11.4442 53.1819 11.1787 53.1819C10.8608 53.1819 10.5773 53.2585 10.5773 53.6931V54.4856C10.5773 54.9202 10.8583 54.9992 11.1762 54.9992C11.4425 54.9992 11.5679 54.9805 11.6539 54.9683C11.6883 54.9634 11.7031 54.9495 11.7031 54.9185ZM9.39004 53.2422C9.39004 53.2186 9.37283 53.2039 9.34825 53.2039H9.0033C8.97872 53.2039 8.96151 53.2226 8.9566 53.2471L8.64852 54.625C8.6436 54.6511 8.63623 54.6609 8.6141 54.6609C8.59198 54.6609 8.58461 54.6511 8.57969 54.625L8.27161 53.2471C8.2667 53.2235 8.24703 53.2039 8.22245 53.2039H7.87996C7.85538 53.2039 7.83571 53.2202 7.83571 53.2422C7.83571 53.2471 7.83817 53.2496 7.83817 53.2544L8.20524 54.7351C8.26178 54.9642 8.4445 55.0001 8.6141 55.0001C8.78371 55.0001 8.96397 54.9642 9.0205 54.7351L9.38758 53.2544C9.38758 53.2496 9.39004 53.2447 9.39004 53.2422ZM6.61323 54.8867V53.2487C6.61323 53.2227 6.59111 53.2031 6.56407 53.2031H6.2732C6.24616 53.2031 6.22403 53.2218 6.22403 53.2487V54.2589C6.22403 54.2752 6.21666 54.2801 6.21174 54.2801C6.20437 54.2801 6.20191 54.2752 6.19208 54.2614L5.60788 53.2781C5.57838 53.2284 5.5538 53.2039 5.50464 53.2039H5.25555C5.20393 53.2039 5.16215 53.2447 5.16215 53.2944V54.9299C5.16215 54.956 5.18427 54.9772 5.21131 54.9772H5.50136C5.5284 54.9772 5.55052 54.956 5.55052 54.9299V53.963C5.55052 53.9491 5.55544 53.9442 5.56281 53.9442C5.57019 53.9442 5.5751 53.9491 5.58494 53.963L6.14702 54.9038C6.18634 54.9683 6.22322 54.978 6.27483 54.978H6.51655C6.56816 54.978 6.61241 54.9373 6.61241 54.8875L6.61323 54.8867ZM3.82413 54.2328V53.9491C3.82413 53.3955 3.50131 53.1827 3.0949 53.1827C2.6885 53.1827 2.36568 53.3955 2.36568 53.9491V54.2328C2.36568 54.7864 2.6885 54.9992 3.0949 54.9992C3.50131 54.9992 3.82413 54.7864 3.82413 54.2328ZM3.40053 54.2328C3.40053 54.5198 3.3022 54.6413 3.0949 54.6413C2.88761 54.6413 2.79174 54.5198 2.79174 54.2328V53.9491C2.79174 53.6629 2.88761 53.5406 3.0949 53.5406C3.3022 53.5406 3.40053 53.6621 3.40053 53.9491V54.2328ZM1.15139 54.9038V54.6723C1.15139 54.6438 1.13664 54.6242 1.10468 54.6242C1.10222 54.6242 1.09977 54.6242 1.09731 54.6242C1.0039 54.6315 0.867888 54.6429 0.732694 54.6429C0.563087 54.6429 0.427073 54.5573 0.427073 54.2394V53.9385C0.427073 53.6213 0.562268 53.5349 0.732694 53.5349C0.867888 53.5349 1.0039 53.5471 1.09731 53.5537C1.09977 53.5537 1.10222 53.5537 1.10468 53.5537C1.13664 53.5537 1.15139 53.5349 1.15139 53.5064V53.2748C1.15139 53.2414 1.13172 53.2316 1.09731 53.2227C1.04569 53.2063 0.903121 53.1819 0.730236 53.1819C0.355789 53.1819 0.00100708 53.371 0.00100708 53.9385V54.2394C0.00100708 54.8076 0.355789 54.9984 0.730236 54.9984C0.903121 54.9984 1.04569 54.9748 1.09731 54.9577C1.13172 54.9479 1.15139 54.9365 1.15139 54.903V54.9038Z" fill="#013220"/>
<path fill-rule="evenodd" clip-rule="evenodd" d="M41.4399 50.8483V45.8969C41.4399 45.874 41.4309 45.8536 41.4161 45.8382C41.4005 45.8235 41.3801 45.8137 41.3571 45.8137H40.0339C40.0109 45.8137 39.9904 45.8227 39.9757 45.8382C39.9609 45.8536 39.9511 45.874 39.9511 45.8969V47.9409C39.9511 47.9882 39.9429 48.0159 39.9282 48.0346L39.9257 48.0379C39.9011 48.0672 39.879 48.0672 39.8536 48.0672C39.8249 48.0672 39.7815 48.0672 39.7282 47.9727L38.5123 45.9849C38.4861 45.9401 38.455 45.8952 38.4164 45.8634C38.3812 45.8349 38.3402 45.8153 38.2911 45.8153H37.1046C37.053 45.8153 37.0055 45.8373 36.9703 45.8724L36.9678 45.8748C36.9342 45.9091 36.9137 45.9556 36.9137 46.0061V50.9576C36.9137 50.9788 36.9236 50.9991 36.9391 51.0138C36.9563 51.0301 36.9793 51.0399 37.0039 51.0399H38.3271C38.3509 51.0399 38.3747 51.0301 38.3919 51.0138C38.4074 50.9991 38.4173 50.9788 38.4173 50.9576V48.9714C38.4173 48.9339 38.4246 48.907 38.4369 48.8875C38.4566 48.8565 38.4836 48.8459 38.5148 48.8459C38.55 48.8459 38.5754 48.8573 38.5983 48.8777L38.6024 48.8817C38.6172 48.8964 38.6278 48.9135 38.6401 48.9339L39.8339 50.9135C39.8552 50.9502 39.8815 50.9836 39.9118 51.0073C39.9396 51.0285 39.9724 51.0415 40.0117 51.0415H41.2481C41.2998 51.0415 41.3481 51.0195 41.3825 50.9853C41.4178 50.9502 41.4391 50.9029 41.4391 50.8516L41.4399 50.8483ZM34.1607 48.8875H34.0902C34.082 48.8899 34.0738 48.8915 34.0648 48.8907L33.8944 48.8875H33.5757C33.4069 48.8899 33.2365 48.8956 33.066 48.9046C32.8948 48.9135 32.7244 48.9266 32.5564 48.9429C32.5228 48.9462 32.4925 48.9217 32.4892 48.8875C32.4859 48.8557 32.5089 48.8263 32.54 48.8214C32.7899 48.779 33.0079 48.7105 33.1775 48.6233C33.3372 48.5418 33.4528 48.4439 33.5109 48.3387L33.7019 47.1402C33.7059 47.1052 33.7109 47.0766 33.7256 47.0514C33.7461 47.0147 33.7764 46.9943 33.828 46.9943C33.8797 46.9943 33.91 47.0147 33.9305 47.0514C33.9444 47.0766 33.9493 47.106 33.9542 47.1402L34.2213 48.8165C34.2271 48.85 34.2041 48.8809 34.1705 48.8866L34.1607 48.8875ZM36.164 51.0391C36.1714 51.0391 36.178 51.0383 36.1829 51.0375C36.1952 51.035 36.2025 51.0309 36.2066 51.0252L36.2083 51.0228C36.2124 51.0154 36.214 51.0057 36.214 50.9926C36.214 50.9836 36.2132 50.9755 36.2115 50.9673L35.3512 46.6209C35.2832 46.2744 35.1185 46.055 34.8678 45.9238C34.6105 45.7884 34.2598 45.7419 33.828 45.7419C33.3962 45.7419 33.0455 45.7884 32.7883 45.9238C32.5375 46.055 32.3729 46.2735 32.3048 46.6209L31.4437 50.9698C31.4429 50.9771 31.4421 50.9845 31.4421 50.9918C31.4421 51.0057 31.4445 51.0171 31.4494 51.0244C31.4535 51.0301 31.4609 51.0342 31.4732 51.0366C31.4781 51.0375 31.4847 51.0383 31.4929 51.0383H32.9972C33.0185 51.0383 33.0374 51.0301 33.0521 51.0154C33.0701 50.9983 33.0832 50.973 33.0882 50.9445L33.2184 50.1398C33.2233 50.1096 33.2496 50.0884 33.2791 50.0884H34.3786C34.4114 50.0884 34.4376 50.1137 34.4401 50.1455L34.5696 50.9453C34.5745 50.9739 34.5876 50.9991 34.6056 51.0163C34.6204 51.0301 34.6392 51.0391 34.6605 51.0391H36.1648H36.164ZM31.4306 46.991V45.8969C31.4306 45.8757 31.4199 45.8553 31.4044 45.8406C31.3872 45.8243 31.3642 45.8145 31.3396 45.8145H27.6443C27.6214 45.8145 27.6009 45.8235 27.5862 45.839C27.5714 45.8545 27.5616 45.8748 27.5616 45.8977V46.9918C27.5616 47.0147 27.5714 47.035 27.5862 47.0497L27.5886 47.0522C27.6034 47.066 27.623 47.0742 27.6452 47.0742H28.6579C28.6915 47.0742 28.7193 47.1019 28.7193 47.1353V50.9567C28.7193 50.9796 28.7292 51 28.7439 51.0146L28.7464 51.0171C28.7611 51.0309 28.7816 51.0391 28.8029 51.0391H30.213C30.236 51.0391 30.2565 51.0293 30.272 51.0146L30.2745 51.0122C30.2884 50.9975 30.2966 50.9779 30.2966 50.9559V47.1345C30.2966 47.1003 30.3245 47.0734 30.3581 47.0734H31.3413C31.365 47.0734 31.3888 47.0636 31.406 47.0473C31.4216 47.0326 31.4322 47.0122 31.4322 46.991H31.4306ZM27.0044 49.4525C27.0044 49.1549 26.9389 48.8932 26.7955 48.6665C26.6513 48.4382 26.4276 48.2417 26.1121 48.0746L25.083 47.534C24.9601 47.4712 24.8897 47.4272 24.8487 47.3889C24.7954 47.34 24.7848 47.2992 24.7848 47.2503C24.7848 47.2071 24.7971 47.1622 24.8339 47.1272C24.8675 47.0954 24.9191 47.0742 24.9986 47.0742C25.2362 47.0742 25.5312 47.0864 25.8204 47.1043C26.1892 47.1272 26.5472 47.1582 26.7627 47.1826C26.7996 47.1867 26.8176 47.1818 26.8258 47.172C26.8364 47.1582 26.8397 47.1313 26.8397 47.0995V46.0273C26.8397 46.0086 26.8324 45.9939 26.8217 45.9825C26.8037 45.9645 26.7742 45.9507 26.7406 45.9417L26.7381 45.9409C26.5792 45.8903 26.2891 45.8398 25.9597 45.8023C25.6467 45.7664 25.3001 45.7428 24.9986 45.7428C24.2604 45.7428 23.7893 45.9058 23.5041 46.1627C23.2231 46.4162 23.1223 46.766 23.1223 47.1418C23.1223 47.4207 23.1657 47.6889 23.2911 47.9335C23.4173 48.1781 23.6262 48.4015 23.9589 48.5931L25.0453 49.2201C25.1338 49.2698 25.1895 49.3122 25.224 49.3522C25.2649 49.4003 25.2772 49.4451 25.2772 49.4949C25.2772 49.5748 25.2575 49.6457 25.2035 49.6987L25.2018 49.7003C25.1494 49.7501 25.0691 49.7794 24.9478 49.7794C24.5635 49.7794 23.9875 49.7191 23.6172 49.6799C23.5344 49.6718 23.4492 49.6596 23.3665 49.6555C23.3452 49.6555 23.3304 49.6612 23.3222 49.6702C23.3124 49.6808 23.3067 49.6979 23.3042 49.7175L23.3026 49.7395V50.8116C23.3026 50.8287 23.3099 50.8434 23.3214 50.854C23.3419 50.8736 23.3738 50.8874 23.4083 50.8964L23.4115 50.8972C23.6237 50.9608 23.8712 51.0171 24.149 51.0562C24.3923 51.0896 24.6594 51.11 24.9478 51.11C25.6222 51.11 26.1097 50.9347 26.4399 50.6665C26.8332 50.3469 27.0052 49.8944 27.0052 49.4517L27.0044 49.4525ZM20.7273 47.6245C20.7273 47.7476 20.6798 47.8691 20.5675 47.9539C20.4774 48.0232 20.3463 48.0672 20.166 48.0672H19.6236C19.5892 48.0672 19.5622 48.0395 19.5622 48.0061V47.0995C19.5622 47.066 19.59 47.0383 19.6236 47.0383H20.166C20.366 47.0383 20.5036 47.0774 20.5929 47.1516C20.6872 47.2291 20.7265 47.3408 20.7265 47.481V47.6253L20.7273 47.6245ZM22.4914 50.9706C22.4914 50.9576 22.4865 50.9388 22.4758 50.9192C22.2292 50.4276 21.9449 49.9457 21.6974 49.4541C21.681 49.4264 21.6499 49.4068 21.6147 49.393C21.554 49.3693 21.4852 49.3644 21.4459 49.3669C21.0321 49.393 20.6454 49.3563 20.461 49.3334C20.4225 49.3285 20.3938 49.3245 20.3758 49.3212C20.2545 49.3016 20.2513 49.2503 20.3242 49.2038C20.3332 49.1981 20.343 49.1948 20.3529 49.194C20.5503 49.1793 20.747 49.1516 20.9395 49.1125C21.1321 49.0725 21.3238 49.0212 21.5114 48.9568C21.7171 48.8646 21.9367 48.691 22.0924 48.4301C22.2185 48.2181 22.3021 47.949 22.3021 47.618V47.4745C22.3021 46.8174 22.0858 46.3852 21.695 46.1194C21.2984 45.8496 20.7208 45.7444 20.0055 45.7444C19.767 45.7444 19.4532 45.7558 19.1648 45.7713H19.164C18.8469 45.7884 18.5576 45.8112 18.4306 45.83H18.4298C18.2496 45.8602 18.1349 45.8969 18.0685 45.9719C18.0013 46.0485 17.9767 46.1733 17.9767 46.3803V50.9576C17.9767 50.9788 17.9866 50.9991 18.0021 51.0138C18.0193 51.0301 18.0423 51.0399 18.0669 51.0399H19.477C19.4999 51.0399 19.5204 51.0301 19.536 51.0154L19.5384 51.013C19.5524 50.9983 19.5605 50.9788 19.5605 50.9567V49.2658C19.5605 49.2315 19.5884 49.2046 19.622 49.2046H19.8531C19.8785 49.2046 19.9006 49.2201 19.9096 49.2421C20.1906 49.7949 20.52 50.3852 20.7757 50.9437C20.8002 50.9926 20.8248 51.0391 20.9092 51.0391H22.4209C22.439 51.0391 22.457 51.0318 22.4701 51.0187L22.4725 51.0163C22.4832 51.0048 22.4889 50.9894 22.4889 50.9706H22.4914ZM15.263 48.8875H15.1901C15.1835 48.8899 15.1762 48.8907 15.1696 48.8907L14.9959 48.8875H14.6772C14.5084 48.8899 14.338 48.8956 14.1675 48.9046C13.9963 48.9135 13.8259 48.9266 13.6579 48.9429C13.6243 48.9462 13.594 48.9217 13.5907 48.8875C13.5874 48.8557 13.6104 48.8263 13.6415 48.8214C13.893 48.779 14.1118 48.7097 14.2814 48.6225C14.4412 48.5401 14.5567 48.4423 14.6141 48.3363L14.805 47.141C14.8099 47.106 14.814 47.0774 14.8287 47.0522C14.8492 47.0155 14.8795 46.9951 14.9312 46.9951C14.9828 46.9951 15.0131 47.0155 15.0336 47.0522C15.0483 47.0783 15.0533 47.1076 15.0573 47.1427L15.3245 48.8173C15.3294 48.8508 15.3073 48.8817 15.2737 48.8875L15.2638 48.8883L15.263 48.8875ZM17.2663 51.0391C17.2745 51.0391 17.2811 51.0383 17.2852 51.0375C17.2967 51.035 17.3048 51.0309 17.3089 51.0252L17.3106 51.0228C17.3147 51.0154 17.3163 51.0057 17.3163 50.9926C17.3163 50.9836 17.3155 50.9755 17.3139 50.9673L16.4527 46.6209C16.3847 46.2744 16.22 46.055 15.9693 45.9238C15.712 45.7884 15.3613 45.7419 14.9295 45.7419C14.4977 45.7419 14.147 45.7884 13.8898 45.9238C13.639 46.055 13.4743 46.2735 13.4063 46.6209L12.5452 50.9706C12.5444 50.9779 12.5436 50.9853 12.5436 50.9926C12.5436 51.0065 12.546 51.0179 12.5509 51.0252C12.555 51.0309 12.5624 51.035 12.5747 51.0375C12.5804 51.0383 12.587 51.0391 12.5944 51.0391H14.0987C14.12 51.0391 14.1397 51.0309 14.1536 51.0163C14.1716 50.9991 14.1847 50.9739 14.1896 50.9453L14.3199 50.1406C14.3248 50.1104 14.3511 50.0892 14.3806 50.0892H15.4801C15.5129 50.0892 15.5391 50.1145 15.5416 50.1463L15.671 50.9461C15.676 50.9747 15.6891 51 15.7071 51.0171C15.7218 51.0309 15.7407 51.0399 15.762 51.0399H17.2663V51.0391ZM12.5329 46.991V45.8969C12.5329 45.8757 12.5231 45.8553 12.5067 45.8406C12.4895 45.8243 12.4665 45.8145 12.442 45.8145H8.74665C8.72371 45.8145 8.70323 45.8235 8.68848 45.839C8.67373 45.8545 8.6639 45.8748 8.6639 45.8977V46.9918C8.6639 47.0147 8.67373 47.035 8.68848 47.0497L8.69094 47.0522C8.70568 47.066 8.72535 47.0742 8.74665 47.0742H9.75938C9.79379 47.0742 9.82083 47.1019 9.82083 47.1353V50.9567C9.82083 50.9796 9.82984 51 9.84541 51.0146L9.84623 51.0154C9.86098 51.0301 9.88146 51.0391 9.90441 51.0391H11.3145C11.3375 51.0391 11.3579 51.0293 11.3727 51.0146L11.3752 51.0122C11.3891 50.9975 11.3973 50.9779 11.3973 50.9559V47.1345C11.3973 47.1003 11.4251 47.0734 11.4587 47.0734H12.442C12.4665 47.0734 12.4895 47.0636 12.5067 47.0473C12.5223 47.0326 12.5329 47.0122 12.5329 46.991ZM6.59911 48.8875H6.52619C6.51964 48.8899 6.51226 48.8907 6.50571 48.8907L6.332 48.8875H6.01327C5.84448 48.8899 5.67406 48.8956 5.50363 48.9046C5.33239 48.9135 5.16196 48.9266 4.99399 48.9429C4.9604 48.9462 4.93008 48.9217 4.9268 48.8875C4.92352 48.8557 4.94647 48.8263 4.9776 48.8214C5.22833 48.779 5.4471 48.7097 5.61752 48.6225C5.7773 48.5401 5.89283 48.4423 5.95018 48.3363L6.14109 47.141C6.14519 47.106 6.1501 47.0774 6.16485 47.0522C6.18534 47.0155 6.21565 46.9951 6.26727 46.9951C6.31889 46.9951 6.34921 47.0155 6.36969 47.0522C6.38362 47.0774 6.38854 47.1068 6.39345 47.141L6.66138 48.8173C6.6663 48.8508 6.64336 48.8817 6.61058 48.8875L6.60075 48.8883L6.59911 48.8875ZM8.60244 51.0391C8.61064 51.0391 8.61637 51.0383 8.62129 51.0375C8.63276 51.035 8.64095 51.0309 8.64505 51.0252L8.64669 51.0228C8.65079 51.0154 8.65242 51.0057 8.65242 50.9926C8.65242 50.9836 8.65161 50.9755 8.64997 50.9673L7.78882 46.6209C7.72082 46.2744 7.55612 46.055 7.3054 45.9238C7.04812 45.7884 6.69744 45.7419 6.26563 45.7419C5.83383 45.7419 5.48315 45.7884 5.22587 45.9238C4.97514 46.055 4.81045 46.2735 4.74245 46.6209L3.8813 50.9706C3.88048 50.9779 3.87966 50.9853 3.87966 50.9926C3.87966 51.0065 3.88212 51.0179 3.88704 51.0252L3.88868 51.0269C3.89277 51.0318 3.90015 51.035 3.9108 51.0375C3.91653 51.0383 3.92309 51.0391 3.93046 51.0391H5.4348C5.45611 51.0391 5.47577 51.0309 5.4897 51.0163C5.50773 50.9991 5.52084 50.9739 5.52575 50.9453L5.65603 50.1406C5.66095 50.1104 5.68717 50.0892 5.71666 50.0892H6.81624C6.84902 50.0892 6.87524 50.1145 6.8777 50.1463L7.00715 50.9461C7.01207 50.9747 7.02518 51 7.04321 51.0171C7.05795 51.0309 7.0768 51.0399 7.0981 51.0399H8.60244V51.0391ZM3.86901 46.991V45.8969C3.86901 45.8757 3.85918 45.8553 3.84279 45.8406C3.82558 45.8243 3.80264 45.8145 3.77806 45.8145H0.0827552C0.0598132 45.8145 0.0393292 45.8235 0.0245808 45.839C0.0098323 45.8545 0 45.8748 0 45.8977V46.9918C0 47.0147 0.0098323 47.035 0.0245808 47.0497L0.0270388 47.0522C0.0417873 47.066 0.0614519 47.0742 0.0827552 47.0742H1.09548C1.1299 47.0742 1.15693 47.1019 1.15693 47.1353V50.9567C1.15693 50.9796 1.16595 51 1.18151 51.0146C1.19626 51.0293 1.21757 51.0391 1.23969 51.0391H2.64981C2.67275 51.0391 2.69323 51.0293 2.70798 51.0146L2.71044 51.0122C2.72437 50.9975 2.73256 50.9779 2.73256 50.9559V47.1345C2.73256 47.1003 2.76042 47.0734 2.79401 47.0734H3.77724C3.80182 47.0734 3.82477 47.0636 3.84197 47.0473C3.85754 47.0326 3.86819 47.0122 3.86819 46.991H3.86901Z" fill="#013220"/>
</svg>
