<svg width="28" height="28" viewBox="0 0 28 28" fill="none" xmlns="http://www.w3.org/2000/svg">
<path d="M14 0C6.25806 0 0 6.25806 0 14C0 21.7419 6.25806 28 14 28C21.7419 28 28 21.7419 28 14C28 6.25806 21.7419 0 14 0ZM12.0645 19.9355L11.0323 22.9677C7.16129 21.6774 4.58065 18 4.58065 13.871C4.58065 9.74193 7.16129 6.12903 11.0968 4.77419L12.129 7.80645C9.54839 8.64516 7.87097 11.0968 7.87097 13.8065C7.74194 16.6452 9.48387 19.0968 12.0645 19.9355ZM16.8387 23.0323L15.871 19.9355C18.5161 19.0968 20.2581 16.6452 20.2581 13.871C20.2581 11.0968 18.5161 8.70968 15.9355 7.87097L16.9677 4.77419C20.9032 6.06452 23.5484 9.74193 23.5484 13.871C23.5484 18.129 20.8387 21.8065 16.8387 23.0323Z" fill="#00BEF0"/>
</svg>
